<svg width="464" height="438" viewBox="0 0 464 438" fill="none" xmlns="http://www.w3.org/2000/svg">
<g filter="url(#filter0_d_126_1245)">
<rect x="4" width="456" height="430" rx="14" fill="white"/>
</g>
<path d="M50.685 299.68C50.675 299.7 50.675 299.72 50.685 299.74C50.695 299.75 50.71 299.755 50.73 299.755H55.245C55.345 299.755 55.395 299.805 55.395 299.905V300.85C55.395 300.95 55.345 301 55.245 301H48.96C48.86 301 48.81 300.95 48.81 300.85V299.935C48.81 299.865 48.835 299.805 48.885 299.755C49.225 299.365 50.005 298.45 51.225 297.01L52.26 295.765C53.19 294.655 53.655 293.795 53.655 293.185C53.655 292.715 53.495 292.34 53.175 292.06C52.865 291.77 52.45 291.625 51.93 291.625C51.41 291.625 50.995 291.77 50.685 292.06C50.375 292.35 50.225 292.73 50.235 293.2V293.65C50.235 293.75 50.185 293.8 50.085 293.8H48.93C48.83 293.8 48.78 293.75 48.78 293.65V293.005C48.8 292.485 48.945 292.025 49.215 291.625C49.495 291.225 49.87 290.92 50.34 290.71C50.81 290.49 51.34 290.38 51.93 290.38C52.57 290.38 53.13 290.5 53.61 290.74C54.09 290.98 54.46 291.31 54.72 291.73C54.98 292.15 55.11 292.625 55.11 293.155C55.11 293.985 54.66 294.965 53.76 296.095C53.36 296.605 52.885 297.18 52.335 297.82C51.785 298.45 51.235 299.07 50.685 299.68ZM60.3892 301.15C59.3792 301.15 58.5742 300.865 57.9742 300.295C57.3842 299.715 57.0892 298.94 57.0892 297.97V293.53C57.0892 292.56 57.3842 291.79 57.9742 291.22C58.5742 290.65 59.3792 290.365 60.3892 290.365C61.3992 290.365 62.2042 290.65 62.8042 291.22C63.4142 291.79 63.7192 292.56 63.7192 293.53V297.97C63.7192 298.94 63.4142 299.715 62.8042 300.295C62.2042 300.865 61.3992 301.15 60.3892 301.15ZM60.3892 299.905C60.9692 299.905 61.4292 299.74 61.7692 299.41C62.1092 299.07 62.2792 298.62 62.2792 298.06V293.47C62.2792 292.91 62.1092 292.465 61.7692 292.135C61.4292 291.795 60.9692 291.625 60.3892 291.625C59.8292 291.625 59.3792 291.795 59.0392 292.135C58.6992 292.465 58.5292 292.91 58.5292 293.47V298.06C58.5292 298.62 58.6992 299.07 59.0392 299.41C59.3792 299.74 59.8292 299.905 60.3892 299.905Z" fill="#A3A3A3"/>
<path d="M60.23 354.15C59.22 354.15 58.415 353.865 57.815 353.295C57.225 352.715 56.93 351.94 56.93 350.97V346.53C56.93 345.56 57.225 344.79 57.815 344.22C58.415 343.65 59.22 343.365 60.23 343.365C61.24 343.365 62.045 343.65 62.645 344.22C63.255 344.79 63.56 345.56 63.56 346.53V350.97C63.56 351.94 63.255 352.715 62.645 353.295C62.045 353.865 61.24 354.15 60.23 354.15ZM60.23 352.905C60.81 352.905 61.27 352.74 61.61 352.41C61.95 352.07 62.12 351.62 62.12 351.06V346.47C62.12 345.91 61.95 345.465 61.61 345.135C61.27 344.795 60.81 344.625 60.23 344.625C59.67 344.625 59.22 344.795 58.88 345.135C58.54 345.465 58.37 345.91 58.37 346.47V351.06C58.37 351.62 58.54 352.07 58.88 352.41C59.22 352.74 59.67 352.905 60.23 352.905Z" fill="#A3A3A3"/>
<path d="M54.56 246.89C54.66 246.89 54.71 246.94 54.71 247.04V248.03C54.71 248.13 54.66 248.18 54.56 248.18H53.915C53.875 248.18 53.855 248.2 53.855 248.24V250.85C53.855 250.95 53.805 251 53.705 251H52.565C52.465 251 52.415 250.95 52.415 250.85V248.24C52.415 248.2 52.395 248.18 52.355 248.18H47.795C47.695 248.18 47.645 248.13 47.645 248.03V247.22C47.645 247.17 47.66 247.11 47.69 247.04L50.645 240.605C50.675 240.535 50.73 240.5 50.81 240.5H52.01C52.06 240.5 52.095 240.52 52.115 240.56C52.145 240.59 52.15 240.63 52.13 240.68L49.31 246.815C49.3 246.835 49.3 246.855 49.31 246.875C49.32 246.885 49.335 246.89 49.355 246.89H52.355C52.395 246.89 52.415 246.87 52.415 246.83V244.595C52.415 244.495 52.465 244.445 52.565 244.445H53.705C53.805 244.445 53.855 244.495 53.855 244.595V246.83C53.855 246.87 53.875 246.89 53.915 246.89H54.56ZM59.7847 251.15C58.7747 251.15 57.9697 250.865 57.3697 250.295C56.7797 249.715 56.4847 248.94 56.4847 247.97V243.53C56.4847 242.56 56.7797 241.79 57.3697 241.22C57.9697 240.65 58.7747 240.365 59.7847 240.365C60.7947 240.365 61.5997 240.65 62.1997 241.22C62.8097 241.79 63.1147 242.56 63.1147 243.53V247.97C63.1147 248.94 62.8097 249.715 62.1997 250.295C61.5997 250.865 60.7947 251.15 59.7847 251.15ZM59.7847 249.905C60.3647 249.905 60.8247 249.74 61.1647 249.41C61.5047 249.07 61.6747 248.62 61.6747 248.06V243.47C61.6747 242.91 61.5047 242.465 61.1647 242.135C60.8247 241.795 60.3647 241.625 59.7847 241.625C59.2247 241.625 58.7747 241.795 58.4347 242.135C58.0947 242.465 57.9247 242.91 57.9247 243.47V248.06C57.9247 248.62 58.0947 249.07 58.4347 249.41C58.7747 249.74 59.2247 249.905 59.7847 249.905Z" fill="#A3A3A3"/>
<path d="M53.765 194.825C54.045 195.355 54.185 195.99 54.185 196.73C54.185 197.34 54.085 197.875 53.885 198.335C53.655 198.905 53.295 199.345 52.805 199.655C52.325 199.955 51.74 200.105 51.05 200.105C50.31 200.105 49.68 199.935 49.16 199.595C48.65 199.255 48.29 198.775 48.08 198.155C47.93 197.735 47.855 197.25 47.855 196.7V192.08C47.855 191.26 48.14 190.605 48.71 190.115C49.28 189.625 50.025 189.38 50.945 189.38C51.535 189.38 52.055 189.49 52.505 189.71C52.965 189.93 53.32 190.24 53.57 190.64C53.82 191.03 53.945 191.48 53.945 191.99V192.29C53.945 192.39 53.895 192.44 53.795 192.44H52.655C52.555 192.44 52.505 192.39 52.505 192.29V192.155C52.505 191.705 52.36 191.34 52.07 191.06C51.78 190.78 51.405 190.64 50.945 190.64C50.455 190.64 50.055 190.785 49.745 191.075C49.445 191.365 49.295 191.75 49.295 192.23V194.12C49.295 194.14 49.3 194.155 49.31 194.165C49.33 194.165 49.35 194.155 49.37 194.135C49.8 193.655 50.425 193.415 51.245 193.415C52.425 193.415 53.265 193.885 53.765 194.825ZM52.52 197.885C52.67 197.565 52.745 197.18 52.745 196.73C52.745 196.22 52.655 195.81 52.475 195.5C52.185 194.92 51.695 194.63 51.005 194.63C50.655 194.63 50.355 194.71 50.105 194.87C49.855 195.02 49.665 195.24 49.535 195.53C49.375 195.86 49.295 196.285 49.295 196.805C49.295 197.225 49.36 197.58 49.49 197.87C49.62 198.19 49.815 198.435 50.075 198.605C50.335 198.765 50.65 198.845 51.02 198.845C51.75 198.845 52.25 198.525 52.52 197.885ZM59.0816 200.15C58.0716 200.15 57.2666 199.865 56.6666 199.295C56.0766 198.715 55.7816 197.94 55.7816 196.97V192.53C55.7816 191.56 56.0766 190.79 56.6666 190.22C57.2666 189.65 58.0716 189.365 59.0816 189.365C60.0916 189.365 60.8966 189.65 61.4966 190.22C62.1066 190.79 62.4116 191.56 62.4116 192.53V196.97C62.4116 197.94 62.1066 198.715 61.4966 199.295C60.8966 199.865 60.0916 200.15 59.0816 200.15ZM59.0816 198.905C59.6616 198.905 60.1216 198.74 60.4616 198.41C60.8016 198.07 60.9716 197.62 60.9716 197.06V192.47C60.9716 191.91 60.8016 191.465 60.4616 191.135C60.1216 190.795 59.6616 190.625 59.0816 190.625C58.5216 190.625 58.0716 190.795 57.7316 191.135C57.3916 191.465 57.2216 191.91 57.2216 192.47V197.06C57.2216 197.62 57.3916 198.07 57.7316 198.41C58.0716 198.74 58.5216 198.905 59.0816 198.905Z" fill="#A3A3A3"/>
<path d="M53.81 144.515C54.02 144.935 54.125 145.435 54.125 146.015C54.125 146.655 53.985 147.215 53.705 147.695C53.465 148.145 53.105 148.495 52.625 148.745C52.155 148.995 51.6 149.12 50.96 149.12C50.32 149.12 49.755 148.995 49.265 148.745C48.775 148.485 48.405 148.115 48.155 147.635C47.885 147.165 47.75 146.62 47.75 146C47.75 145.45 47.86 144.945 48.08 144.485C48.3 144.025 48.625 143.68 49.055 143.45C49.105 143.43 49.105 143.405 49.055 143.375C48.735 143.135 48.495 142.885 48.335 142.625C48.055 142.205 47.915 141.725 47.915 141.185C47.915 140.595 48.085 140.055 48.425 139.565C48.675 139.185 49.02 138.885 49.46 138.665C49.91 138.445 50.41 138.335 50.96 138.335C51.52 138.335 52.015 138.445 52.445 138.665C52.875 138.885 53.215 139.185 53.465 139.565C53.795 140.055 53.96 140.595 53.96 141.185C53.96 141.725 53.82 142.215 53.54 142.655C53.36 142.935 53.125 143.175 52.835 143.375C52.785 143.405 52.785 143.43 52.835 143.45C53.255 143.68 53.58 144.035 53.81 144.515ZM49.55 140.42C49.41 140.68 49.34 140.935 49.34 141.185C49.34 141.585 49.435 141.92 49.625 142.19C49.895 142.64 50.335 142.865 50.945 142.865C51.545 142.865 51.99 142.635 52.28 142.175C52.45 141.935 52.535 141.6 52.535 141.17C52.535 140.89 52.47 140.635 52.34 140.405C52.21 140.155 52.025 139.955 51.785 139.805C51.545 139.655 51.26 139.58 50.93 139.58C50.62 139.58 50.345 139.655 50.105 139.805C49.865 139.955 49.68 140.16 49.55 140.42ZM52.325 147.185C52.555 146.865 52.67 146.435 52.67 145.895C52.67 145.415 52.585 145.02 52.415 144.71C52.135 144.19 51.645 143.93 50.945 143.93C50.265 143.93 49.785 144.175 49.505 144.665C49.315 144.985 49.22 145.4 49.22 145.91C49.22 146.41 49.325 146.82 49.535 147.14C49.825 147.62 50.3 147.86 50.96 147.86C51.58 147.86 52.035 147.635 52.325 147.185ZM59.1402 149.15C58.1302 149.15 57.3252 148.865 56.7252 148.295C56.1352 147.715 55.8402 146.94 55.8402 145.97V141.53C55.8402 140.56 56.1352 139.79 56.7252 139.22C57.3252 138.65 58.1302 138.365 59.1402 138.365C60.1502 138.365 60.9552 138.65 61.5552 139.22C62.1652 139.79 62.4702 140.56 62.4702 141.53V145.97C62.4702 146.94 62.1652 147.715 61.5552 148.295C60.9552 148.865 60.1502 149.15 59.1402 149.15ZM59.1402 147.905C59.7202 147.905 60.1802 147.74 60.5202 147.41C60.8602 147.07 61.0302 146.62 61.0302 146.06V141.47C61.0302 140.91 60.8602 140.465 60.5202 140.135C60.1802 139.795 59.7202 139.625 59.1402 139.625C58.5802 139.625 58.1302 139.795 57.7902 140.135C57.4502 140.465 57.2802 140.91 57.2802 141.47V146.06C57.2802 146.62 57.4502 147.07 57.7902 147.41C58.1302 147.74 58.5802 147.905 59.1402 147.905Z" fill="#A3A3A3"/>
<path d="M84.47 390.12C83.7 390.12 83.03 390 82.46 389.76C81.9 389.52 81.465 389.18 81.155 388.74C80.855 388.3 80.705 387.785 80.705 387.195V386.76C80.705 386.66 80.755 386.61 80.855 386.61H81.95C82.05 386.61 82.1 386.66 82.1 386.76V387.12C82.1 387.63 82.32 388.05 82.76 388.38C83.2 388.71 83.805 388.875 84.575 388.875C85.265 388.875 85.785 388.73 86.135 388.44C86.485 388.15 86.66 387.77 86.66 387.3C86.66 386.99 86.57 386.725 86.39 386.505C86.21 386.285 85.945 386.085 85.595 385.905C85.255 385.715 84.755 385.49 84.095 385.23C83.365 384.95 82.785 384.695 82.355 384.465C81.935 384.235 81.585 383.935 81.305 383.565C81.025 383.185 80.885 382.71 80.885 382.14C80.885 381.28 81.19 380.605 81.8 380.115C82.42 379.625 83.255 379.38 84.305 379.38C85.045 379.38 85.695 379.505 86.255 379.755C86.815 380.005 87.245 380.355 87.545 380.805C87.855 381.255 88.01 381.775 88.01 382.365V382.665C88.01 382.765 87.96 382.815 87.86 382.815H86.735C86.635 382.815 86.585 382.765 86.585 382.665V382.44C86.585 381.92 86.375 381.49 85.955 381.15C85.545 380.8 84.975 380.625 84.245 380.625C83.625 380.625 83.145 380.755 82.805 381.015C82.465 381.265 82.295 381.63 82.295 382.11C82.295 382.44 82.38 382.71 82.55 382.92C82.72 383.13 82.97 383.32 83.3 383.49C83.64 383.65 84.155 383.86 84.845 384.12C85.555 384.4 86.13 384.66 86.57 384.9C87.01 385.13 87.375 385.44 87.665 385.83C87.955 386.21 88.1 386.685 88.1 387.255C88.1 388.135 87.775 388.835 87.125 389.355C86.485 389.865 85.6 390.12 84.47 390.12ZM94.4134 382.515C94.4134 382.415 94.4634 382.365 94.5634 382.365H95.6884C95.7884 382.365 95.8384 382.415 95.8384 382.515V389.85C95.8384 389.95 95.7884 390 95.6884 390H94.5634C94.4634 390 94.4134 389.95 94.4134 389.85V389.295C94.4134 389.275 94.4034 389.265 94.3834 389.265C94.3734 389.255 94.3584 389.26 94.3384 389.28C93.9384 389.83 93.3234 390.105 92.4934 390.105C92.0034 390.105 91.5484 390.01 91.1284 389.82C90.7184 389.63 90.3884 389.35 90.1384 388.98C89.8884 388.61 89.7634 388.16 89.7634 387.63V382.515C89.7634 382.415 89.8134 382.365 89.9134 382.365H91.0384C91.1384 382.365 91.1884 382.415 91.1884 382.515V387.18C91.1884 387.7 91.3234 388.11 91.5934 388.41C91.8734 388.71 92.2634 388.86 92.7634 388.86C93.2634 388.86 93.6634 388.71 93.9634 388.41C94.2634 388.1 94.4134 387.69 94.4134 387.18V382.515ZM101.345 382.26C102.165 382.26 102.815 382.5 103.295 382.98C103.775 383.45 104.015 384.09 104.015 384.9V389.85C104.015 389.95 103.965 390 103.865 390H102.725C102.625 390 102.575 389.95 102.575 389.85V385.185C102.575 384.685 102.43 384.28 102.14 383.97C101.85 383.66 101.465 383.505 100.985 383.505C100.515 383.505 100.13 383.66 99.8296 383.97C99.5296 384.28 99.3796 384.68 99.3796 385.17V389.85C99.3796 389.95 99.3296 390 99.2296 390H98.0896C97.9896 390 97.9396 389.95 97.9396 389.85V382.515C97.9396 382.415 97.9896 382.365 98.0896 382.365H99.2296C99.3296 382.365 99.3796 382.415 99.3796 382.515V383.055C99.3796 383.075 99.3846 383.09 99.3946 383.1C99.4146 383.11 99.4296 383.105 99.4396 383.085C99.8696 382.535 100.505 382.26 101.345 382.26Z" fill="#A3A3A3"/>
<path d="M188.47 390.12C187.7 390.12 187.03 390 186.46 389.76C185.9 389.52 185.465 389.18 185.155 388.74C184.855 388.3 184.705 387.785 184.705 387.195V386.76C184.705 386.66 184.755 386.61 184.855 386.61H185.95C186.05 386.61 186.1 386.66 186.1 386.76V387.12C186.1 387.63 186.32 388.05 186.76 388.38C187.2 388.71 187.805 388.875 188.575 388.875C189.265 388.875 189.785 388.73 190.135 388.44C190.485 388.15 190.66 387.77 190.66 387.3C190.66 386.99 190.57 386.725 190.39 386.505C190.21 386.285 189.945 386.085 189.595 385.905C189.255 385.715 188.755 385.49 188.095 385.23C187.365 384.95 186.785 384.695 186.355 384.465C185.935 384.235 185.585 383.935 185.305 383.565C185.025 383.185 184.885 382.71 184.885 382.14C184.885 381.28 185.19 380.605 185.8 380.115C186.42 379.625 187.255 379.38 188.305 379.38C189.045 379.38 189.695 379.505 190.255 379.755C190.815 380.005 191.245 380.355 191.545 380.805C191.855 381.255 192.01 381.775 192.01 382.365V382.665C192.01 382.765 191.96 382.815 191.86 382.815H190.735C190.635 382.815 190.585 382.765 190.585 382.665V382.44C190.585 381.92 190.375 381.49 189.955 381.15C189.545 380.8 188.975 380.625 188.245 380.625C187.625 380.625 187.145 380.755 186.805 381.015C186.465 381.265 186.295 381.63 186.295 382.11C186.295 382.44 186.38 382.71 186.55 382.92C186.72 383.13 186.97 383.32 187.3 383.49C187.64 383.65 188.155 383.86 188.845 384.12C189.555 384.4 190.13 384.66 190.57 384.9C191.01 385.13 191.375 385.44 191.665 385.83C191.955 386.21 192.1 386.685 192.1 387.255C192.1 388.135 191.775 388.835 191.125 389.355C190.485 389.865 189.6 390.12 188.47 390.12ZM198.413 382.515C198.413 382.415 198.463 382.365 198.563 382.365H199.688C199.788 382.365 199.838 382.415 199.838 382.515V389.85C199.838 389.95 199.788 390 199.688 390H198.563C198.463 390 198.413 389.95 198.413 389.85V389.295C198.413 389.275 198.403 389.265 198.383 389.265C198.373 389.255 198.358 389.26 198.338 389.28C197.938 389.83 197.323 390.105 196.493 390.105C196.003 390.105 195.548 390.01 195.128 389.82C194.718 389.63 194.388 389.35 194.138 388.98C193.888 388.61 193.763 388.16 193.763 387.63V382.515C193.763 382.415 193.813 382.365 193.913 382.365H195.038C195.138 382.365 195.188 382.415 195.188 382.515V387.18C195.188 387.7 195.323 388.11 195.593 388.41C195.873 388.71 196.263 388.86 196.763 388.86C197.263 388.86 197.663 388.71 197.963 388.41C198.263 388.1 198.413 387.69 198.413 387.18V382.515ZM205.345 382.26C206.165 382.26 206.815 382.5 207.295 382.98C207.775 383.45 208.015 384.09 208.015 384.9V389.85C208.015 389.95 207.965 390 207.865 390H206.725C206.625 390 206.575 389.95 206.575 389.85V385.185C206.575 384.685 206.43 384.28 206.14 383.97C205.85 383.66 205.465 383.505 204.985 383.505C204.515 383.505 204.13 383.66 203.83 383.97C203.53 384.28 203.38 384.68 203.38 385.17V389.85C203.38 389.95 203.33 390 203.23 390H202.09C201.99 390 201.94 389.95 201.94 389.85V382.515C201.94 382.415 201.99 382.365 202.09 382.365H203.23C203.33 382.365 203.38 382.415 203.38 382.515V383.055C203.38 383.075 203.385 383.09 203.395 383.1C203.415 383.11 203.43 383.105 203.44 383.085C203.87 382.535 204.505 382.26 205.345 382.26Z" fill="#A3A3A3"/>
<path d="M292.47 390.12C291.7 390.12 291.03 390 290.46 389.76C289.9 389.52 289.465 389.18 289.155 388.74C288.855 388.3 288.705 387.785 288.705 387.195V386.76C288.705 386.66 288.755 386.61 288.855 386.61H289.95C290.05 386.61 290.1 386.66 290.1 386.76V387.12C290.1 387.63 290.32 388.05 290.76 388.38C291.2 388.71 291.805 388.875 292.575 388.875C293.265 388.875 293.785 388.73 294.135 388.44C294.485 388.15 294.66 387.77 294.66 387.3C294.66 386.99 294.57 386.725 294.39 386.505C294.21 386.285 293.945 386.085 293.595 385.905C293.255 385.715 292.755 385.49 292.095 385.23C291.365 384.95 290.785 384.695 290.355 384.465C289.935 384.235 289.585 383.935 289.305 383.565C289.025 383.185 288.885 382.71 288.885 382.14C288.885 381.28 289.19 380.605 289.8 380.115C290.42 379.625 291.255 379.38 292.305 379.38C293.045 379.38 293.695 379.505 294.255 379.755C294.815 380.005 295.245 380.355 295.545 380.805C295.855 381.255 296.01 381.775 296.01 382.365V382.665C296.01 382.765 295.96 382.815 295.86 382.815H294.735C294.635 382.815 294.585 382.765 294.585 382.665V382.44C294.585 381.92 294.375 381.49 293.955 381.15C293.545 380.8 292.975 380.625 292.245 380.625C291.625 380.625 291.145 380.755 290.805 381.015C290.465 381.265 290.295 381.63 290.295 382.11C290.295 382.44 290.38 382.71 290.55 382.92C290.72 383.13 290.97 383.32 291.3 383.49C291.64 383.65 292.155 383.86 292.845 384.12C293.555 384.4 294.13 384.66 294.57 384.9C295.01 385.13 295.375 385.44 295.665 385.83C295.955 386.21 296.1 386.685 296.1 387.255C296.1 388.135 295.775 388.835 295.125 389.355C294.485 389.865 293.6 390.12 292.47 390.12ZM302.413 382.515C302.413 382.415 302.463 382.365 302.563 382.365H303.688C303.788 382.365 303.838 382.415 303.838 382.515V389.85C303.838 389.95 303.788 390 303.688 390H302.563C302.463 390 302.413 389.95 302.413 389.85V389.295C302.413 389.275 302.403 389.265 302.383 389.265C302.373 389.255 302.358 389.26 302.338 389.28C301.938 389.83 301.323 390.105 300.493 390.105C300.003 390.105 299.548 390.01 299.128 389.82C298.718 389.63 298.388 389.35 298.138 388.98C297.888 388.61 297.763 388.16 297.763 387.63V382.515C297.763 382.415 297.813 382.365 297.913 382.365H299.038C299.138 382.365 299.188 382.415 299.188 382.515V387.18C299.188 387.7 299.323 388.11 299.593 388.41C299.873 388.71 300.263 388.86 300.763 388.86C301.263 388.86 301.663 388.71 301.963 388.41C302.263 388.1 302.413 387.69 302.413 387.18V382.515ZM309.345 382.26C310.165 382.26 310.815 382.5 311.295 382.98C311.775 383.45 312.015 384.09 312.015 384.9V389.85C312.015 389.95 311.965 390 311.865 390H310.725C310.625 390 310.575 389.95 310.575 389.85V385.185C310.575 384.685 310.43 384.28 310.14 383.97C309.85 383.66 309.465 383.505 308.985 383.505C308.515 383.505 308.13 383.66 307.83 383.97C307.53 384.28 307.38 384.68 307.38 385.17V389.85C307.38 389.95 307.33 390 307.23 390H306.09C305.99 390 305.94 389.95 305.94 389.85V382.515C305.94 382.415 305.99 382.365 306.09 382.365H307.23C307.33 382.365 307.38 382.415 307.38 382.515V383.055C307.38 383.075 307.385 383.09 307.395 383.1C307.415 383.11 307.43 383.105 307.44 383.085C307.87 382.535 308.505 382.26 309.345 382.26Z" fill="#A3A3A3"/>
<path d="M136.47 390.12C135.7 390.12 135.03 390 134.46 389.76C133.9 389.52 133.465 389.18 133.155 388.74C132.855 388.3 132.705 387.785 132.705 387.195V386.76C132.705 386.66 132.755 386.61 132.855 386.61H133.95C134.05 386.61 134.1 386.66 134.1 386.76V387.12C134.1 387.63 134.32 388.05 134.76 388.38C135.2 388.71 135.805 388.875 136.575 388.875C137.265 388.875 137.785 388.73 138.135 388.44C138.485 388.15 138.66 387.77 138.66 387.3C138.66 386.99 138.57 386.725 138.39 386.505C138.21 386.285 137.945 386.085 137.595 385.905C137.255 385.715 136.755 385.49 136.095 385.23C135.365 384.95 134.785 384.695 134.355 384.465C133.935 384.235 133.585 383.935 133.305 383.565C133.025 383.185 132.885 382.71 132.885 382.14C132.885 381.28 133.19 380.605 133.8 380.115C134.42 379.625 135.255 379.38 136.305 379.38C137.045 379.38 137.695 379.505 138.255 379.755C138.815 380.005 139.245 380.355 139.545 380.805C139.855 381.255 140.01 381.775 140.01 382.365V382.665C140.01 382.765 139.96 382.815 139.86 382.815H138.735C138.635 382.815 138.585 382.765 138.585 382.665V382.44C138.585 381.92 138.375 381.49 137.955 381.15C137.545 380.8 136.975 380.625 136.245 380.625C135.625 380.625 135.145 380.755 134.805 381.015C134.465 381.265 134.295 381.63 134.295 382.11C134.295 382.44 134.38 382.71 134.55 382.92C134.72 383.13 134.97 383.32 135.3 383.49C135.64 383.65 136.155 383.86 136.845 384.12C137.555 384.4 138.13 384.66 138.57 384.9C139.01 385.13 139.375 385.44 139.665 385.83C139.955 386.21 140.1 386.685 140.1 387.255C140.1 388.135 139.775 388.835 139.125 389.355C138.485 389.865 137.6 390.12 136.47 390.12ZM146.413 382.515C146.413 382.415 146.463 382.365 146.563 382.365H147.688C147.788 382.365 147.838 382.415 147.838 382.515V389.85C147.838 389.95 147.788 390 147.688 390H146.563C146.463 390 146.413 389.95 146.413 389.85V389.295C146.413 389.275 146.403 389.265 146.383 389.265C146.373 389.255 146.358 389.26 146.338 389.28C145.938 389.83 145.323 390.105 144.493 390.105C144.003 390.105 143.548 390.01 143.128 389.82C142.718 389.63 142.388 389.35 142.138 388.98C141.888 388.61 141.763 388.16 141.763 387.63V382.515C141.763 382.415 141.813 382.365 141.913 382.365H143.038C143.138 382.365 143.188 382.415 143.188 382.515V387.18C143.188 387.7 143.323 388.11 143.593 388.41C143.873 388.71 144.263 388.86 144.763 388.86C145.263 388.86 145.663 388.71 145.963 388.41C146.263 388.1 146.413 387.69 146.413 387.18V382.515ZM153.345 382.26C154.165 382.26 154.815 382.5 155.295 382.98C155.775 383.45 156.015 384.09 156.015 384.9V389.85C156.015 389.95 155.965 390 155.865 390H154.725C154.625 390 154.575 389.95 154.575 389.85V385.185C154.575 384.685 154.43 384.28 154.14 383.97C153.85 383.66 153.465 383.505 152.985 383.505C152.515 383.505 152.13 383.66 151.83 383.97C151.53 384.28 151.38 384.68 151.38 385.17V389.85C151.38 389.95 151.33 390 151.23 390H150.09C149.99 390 149.94 389.95 149.94 389.85V382.515C149.94 382.415 149.99 382.365 150.09 382.365H151.23C151.33 382.365 151.38 382.415 151.38 382.515V383.055C151.38 383.075 151.385 383.09 151.395 383.1C151.415 383.11 151.43 383.105 151.44 383.085C151.87 382.535 152.505 382.26 153.345 382.26Z" fill="#A3A3A3"/>
<path d="M240.47 390.12C239.7 390.12 239.03 390 238.46 389.76C237.9 389.52 237.465 389.18 237.155 388.74C236.855 388.3 236.705 387.785 236.705 387.195V386.76C236.705 386.66 236.755 386.61 236.855 386.61H237.95C238.05 386.61 238.1 386.66 238.1 386.76V387.12C238.1 387.63 238.32 388.05 238.76 388.38C239.2 388.71 239.805 388.875 240.575 388.875C241.265 388.875 241.785 388.73 242.135 388.44C242.485 388.15 242.66 387.77 242.66 387.3C242.66 386.99 242.57 386.725 242.39 386.505C242.21 386.285 241.945 386.085 241.595 385.905C241.255 385.715 240.755 385.49 240.095 385.23C239.365 384.95 238.785 384.695 238.355 384.465C237.935 384.235 237.585 383.935 237.305 383.565C237.025 383.185 236.885 382.71 236.885 382.14C236.885 381.28 237.19 380.605 237.8 380.115C238.42 379.625 239.255 379.38 240.305 379.38C241.045 379.38 241.695 379.505 242.255 379.755C242.815 380.005 243.245 380.355 243.545 380.805C243.855 381.255 244.01 381.775 244.01 382.365V382.665C244.01 382.765 243.96 382.815 243.86 382.815H242.735C242.635 382.815 242.585 382.765 242.585 382.665V382.44C242.585 381.92 242.375 381.49 241.955 381.15C241.545 380.8 240.975 380.625 240.245 380.625C239.625 380.625 239.145 380.755 238.805 381.015C238.465 381.265 238.295 381.63 238.295 382.11C238.295 382.44 238.38 382.71 238.55 382.92C238.72 383.13 238.97 383.32 239.3 383.49C239.64 383.65 240.155 383.86 240.845 384.12C241.555 384.4 242.13 384.66 242.57 384.9C243.01 385.13 243.375 385.44 243.665 385.83C243.955 386.21 244.1 386.685 244.1 387.255C244.1 388.135 243.775 388.835 243.125 389.355C242.485 389.865 241.6 390.12 240.47 390.12ZM250.413 382.515C250.413 382.415 250.463 382.365 250.563 382.365H251.688C251.788 382.365 251.838 382.415 251.838 382.515V389.85C251.838 389.95 251.788 390 251.688 390H250.563C250.463 390 250.413 389.95 250.413 389.85V389.295C250.413 389.275 250.403 389.265 250.383 389.265C250.373 389.255 250.358 389.26 250.338 389.28C249.938 389.83 249.323 390.105 248.493 390.105C248.003 390.105 247.548 390.01 247.128 389.82C246.718 389.63 246.388 389.35 246.138 388.98C245.888 388.61 245.763 388.16 245.763 387.63V382.515C245.763 382.415 245.813 382.365 245.913 382.365H247.038C247.138 382.365 247.188 382.415 247.188 382.515V387.18C247.188 387.7 247.323 388.11 247.593 388.41C247.873 388.71 248.263 388.86 248.763 388.86C249.263 388.86 249.663 388.71 249.963 388.41C250.263 388.1 250.413 387.69 250.413 387.18V382.515ZM257.345 382.26C258.165 382.26 258.815 382.5 259.295 382.98C259.775 383.45 260.015 384.09 260.015 384.9V389.85C260.015 389.95 259.965 390 259.865 390H258.725C258.625 390 258.575 389.95 258.575 389.85V385.185C258.575 384.685 258.43 384.28 258.14 383.97C257.85 383.66 257.465 383.505 256.985 383.505C256.515 383.505 256.13 383.66 255.83 383.97C255.53 384.28 255.38 384.68 255.38 385.17V389.85C255.38 389.95 255.33 390 255.23 390H254.09C253.99 390 253.94 389.95 253.94 389.85V382.515C253.94 382.415 253.99 382.365 254.09 382.365H255.23C255.33 382.365 255.38 382.415 255.38 382.515V383.055C255.38 383.075 255.385 383.09 255.395 383.1C255.415 383.11 255.43 383.105 255.44 383.085C255.87 382.535 256.505 382.26 257.345 382.26Z" fill="#A3A3A3"/>
<path d="M344.47 390.12C343.7 390.12 343.03 390 342.46 389.76C341.9 389.52 341.465 389.18 341.155 388.74C340.855 388.3 340.705 387.785 340.705 387.195V386.76C340.705 386.66 340.755 386.61 340.855 386.61H341.95C342.05 386.61 342.1 386.66 342.1 386.76V387.12C342.1 387.63 342.32 388.05 342.76 388.38C343.2 388.71 343.805 388.875 344.575 388.875C345.265 388.875 345.785 388.73 346.135 388.44C346.485 388.15 346.66 387.77 346.66 387.3C346.66 386.99 346.57 386.725 346.39 386.505C346.21 386.285 345.945 386.085 345.595 385.905C345.255 385.715 344.755 385.49 344.095 385.23C343.365 384.95 342.785 384.695 342.355 384.465C341.935 384.235 341.585 383.935 341.305 383.565C341.025 383.185 340.885 382.71 340.885 382.14C340.885 381.28 341.19 380.605 341.8 380.115C342.42 379.625 343.255 379.38 344.305 379.38C345.045 379.38 345.695 379.505 346.255 379.755C346.815 380.005 347.245 380.355 347.545 380.805C347.855 381.255 348.01 381.775 348.01 382.365V382.665C348.01 382.765 347.96 382.815 347.86 382.815H346.735C346.635 382.815 346.585 382.765 346.585 382.665V382.44C346.585 381.92 346.375 381.49 345.955 381.15C345.545 380.8 344.975 380.625 344.245 380.625C343.625 380.625 343.145 380.755 342.805 381.015C342.465 381.265 342.295 381.63 342.295 382.11C342.295 382.44 342.38 382.71 342.55 382.92C342.72 383.13 342.97 383.32 343.3 383.49C343.64 383.65 344.155 383.86 344.845 384.12C345.555 384.4 346.13 384.66 346.57 384.9C347.01 385.13 347.375 385.44 347.665 385.83C347.955 386.21 348.1 386.685 348.1 387.255C348.1 388.135 347.775 388.835 347.125 389.355C346.485 389.865 345.6 390.12 344.47 390.12ZM354.413 382.515C354.413 382.415 354.463 382.365 354.563 382.365H355.688C355.788 382.365 355.838 382.415 355.838 382.515V389.85C355.838 389.95 355.788 390 355.688 390H354.563C354.463 390 354.413 389.95 354.413 389.85V389.295C354.413 389.275 354.403 389.265 354.383 389.265C354.373 389.255 354.358 389.26 354.338 389.28C353.938 389.83 353.323 390.105 352.493 390.105C352.003 390.105 351.548 390.01 351.128 389.82C350.718 389.63 350.388 389.35 350.138 388.98C349.888 388.61 349.763 388.16 349.763 387.63V382.515C349.763 382.415 349.813 382.365 349.913 382.365H351.038C351.138 382.365 351.188 382.415 351.188 382.515V387.18C351.188 387.7 351.323 388.11 351.593 388.41C351.873 388.71 352.263 388.86 352.763 388.86C353.263 388.86 353.663 388.71 353.963 388.41C354.263 388.1 354.413 387.69 354.413 387.18V382.515ZM361.345 382.26C362.165 382.26 362.815 382.5 363.295 382.98C363.775 383.45 364.015 384.09 364.015 384.9V389.85C364.015 389.95 363.965 390 363.865 390H362.725C362.625 390 362.575 389.95 362.575 389.85V385.185C362.575 384.685 362.43 384.28 362.14 383.97C361.85 383.66 361.465 383.505 360.985 383.505C360.515 383.505 360.13 383.66 359.83 383.97C359.53 384.28 359.38 384.68 359.38 385.17V389.85C359.38 389.95 359.33 390 359.23 390H358.09C357.99 390 357.94 389.95 357.94 389.85V382.515C357.94 382.415 357.99 382.365 358.09 382.365H359.23C359.33 382.365 359.38 382.415 359.38 382.515V383.055C359.38 383.075 359.385 383.09 359.395 383.1C359.415 383.11 359.43 383.105 359.44 383.085C359.87 382.535 360.505 382.26 361.345 382.26Z" fill="#A3A3A3"/>
<path d="M396.47 390.12C395.7 390.12 395.03 390 394.46 389.76C393.9 389.52 393.465 389.18 393.155 388.74C392.855 388.3 392.705 387.785 392.705 387.195V386.76C392.705 386.66 392.755 386.61 392.855 386.61H393.95C394.05 386.61 394.1 386.66 394.1 386.76V387.12C394.1 387.63 394.32 388.05 394.76 388.38C395.2 388.71 395.805 388.875 396.575 388.875C397.265 388.875 397.785 388.73 398.135 388.44C398.485 388.15 398.66 387.77 398.66 387.3C398.66 386.99 398.57 386.725 398.39 386.505C398.21 386.285 397.945 386.085 397.595 385.905C397.255 385.715 396.755 385.49 396.095 385.23C395.365 384.95 394.785 384.695 394.355 384.465C393.935 384.235 393.585 383.935 393.305 383.565C393.025 383.185 392.885 382.71 392.885 382.14C392.885 381.28 393.19 380.605 393.8 380.115C394.42 379.625 395.255 379.38 396.305 379.38C397.045 379.38 397.695 379.505 398.255 379.755C398.815 380.005 399.245 380.355 399.545 380.805C399.855 381.255 400.01 381.775 400.01 382.365V382.665C400.01 382.765 399.96 382.815 399.86 382.815H398.735C398.635 382.815 398.585 382.765 398.585 382.665V382.44C398.585 381.92 398.375 381.49 397.955 381.15C397.545 380.8 396.975 380.625 396.245 380.625C395.625 380.625 395.145 380.755 394.805 381.015C394.465 381.265 394.295 381.63 394.295 382.11C394.295 382.44 394.38 382.71 394.55 382.92C394.72 383.13 394.97 383.32 395.3 383.49C395.64 383.65 396.155 383.86 396.845 384.12C397.555 384.4 398.13 384.66 398.57 384.9C399.01 385.13 399.375 385.44 399.665 385.83C399.955 386.21 400.1 386.685 400.1 387.255C400.1 388.135 399.775 388.835 399.125 389.355C398.485 389.865 397.6 390.12 396.47 390.12ZM406.413 382.515C406.413 382.415 406.463 382.365 406.563 382.365H407.688C407.788 382.365 407.838 382.415 407.838 382.515V389.85C407.838 389.95 407.788 390 407.688 390H406.563C406.463 390 406.413 389.95 406.413 389.85V389.295C406.413 389.275 406.403 389.265 406.383 389.265C406.373 389.255 406.358 389.26 406.338 389.28C405.938 389.83 405.323 390.105 404.493 390.105C404.003 390.105 403.548 390.01 403.128 389.82C402.718 389.63 402.388 389.35 402.138 388.98C401.888 388.61 401.763 388.16 401.763 387.63V382.515C401.763 382.415 401.813 382.365 401.913 382.365H403.038C403.138 382.365 403.188 382.415 403.188 382.515V387.18C403.188 387.7 403.323 388.11 403.593 388.41C403.873 388.71 404.263 388.86 404.763 388.86C405.263 388.86 405.663 388.71 405.963 388.41C406.263 388.1 406.413 387.69 406.413 387.18V382.515ZM413.345 382.26C414.165 382.26 414.815 382.5 415.295 382.98C415.775 383.45 416.015 384.09 416.015 384.9V389.85C416.015 389.95 415.965 390 415.865 390H414.725C414.625 390 414.575 389.95 414.575 389.85V385.185C414.575 384.685 414.43 384.28 414.14 383.97C413.85 383.66 413.465 383.505 412.985 383.505C412.515 383.505 412.13 383.66 411.83 383.97C411.53 384.28 411.38 384.68 411.38 385.17V389.85C411.38 389.95 411.33 390 411.23 390H410.09C409.99 390 409.94 389.95 409.94 389.85V382.515C409.94 382.415 409.99 382.365 410.09 382.365H411.23C411.33 382.365 411.38 382.415 411.38 382.515V383.055C411.38 383.075 411.385 383.09 411.395 383.1C411.415 383.11 411.43 383.105 411.44 383.085C411.87 382.535 412.505 382.26 413.345 382.26Z" fill="#A3A3A3"/>
<rect x="81" y="142" width="331" height="1" rx="0.5" fill="#F3F2F7"/>
<rect x="81" y="194" width="331" height="1" rx="0.5" fill="#F3F2F7"/>
<rect x="81" y="245" width="331" height="1" rx="0.5" fill="#F3F2F7"/>
<rect x="81" y="296" width="331" height="1" rx="0.5" fill="#F3F2F7"/>
<rect x="81" y="347" width="331" height="1" rx="0.5" fill="#F3F2F7"/>
<rect x="81" y="195" width="13" height="153" fill="#FF5B5B"/>
<rect x="134" y="142" width="13" height="206" fill="#F7C604"/>
<rect x="187" y="246" width="13" height="102" fill="#FF5B5B"/>
<rect x="240" y="173" width="13" height="175" fill="#F7C604"/>
<rect x="293" y="195" width="13" height="153" fill="#FF5B5B"/>
<rect x="346" y="283" width="13" height="65" fill="#F7C604"/>
<rect x="399" y="195" width="13" height="153" fill="#FF5B5B"/>
<path d="M47.368 64.192C46.12 64.192 45.024 63.952 44.08 63.472C43.136 62.976 42.408 62.288 41.896 61.408C41.384 60.528 41.128 59.512 41.128 58.36V52.816C41.128 51.664 41.384 50.648 41.896 49.768C42.408 48.888 43.136 48.208 44.08 47.728C45.024 47.248 46.12 47.008 47.368 47.008C48.6 47.008 49.68 47.24 50.608 47.704C51.552 48.152 52.28 48.8 52.792 49.648C53.32 50.48 53.584 51.448 53.584 52.552C53.584 52.696 53.488 52.784 53.296 52.816L50.488 52.984H50.44C50.28 52.984 50.2 52.896 50.2 52.72C50.2 51.872 49.936 51.192 49.408 50.68C48.896 50.168 48.216 49.912 47.368 49.912C46.504 49.912 45.808 50.168 45.28 50.68C44.768 51.192 44.512 51.872 44.512 52.72V58.504C44.512 59.336 44.768 60.008 45.28 60.52C45.808 61.032 46.504 61.288 47.368 61.288C48.216 61.288 48.896 61.032 49.408 60.52C49.936 60.008 50.2 59.336 50.2 58.504C50.2 58.328 50.296 58.24 50.488 58.24L53.296 58.36C53.376 58.36 53.44 58.384 53.488 58.432C53.552 58.48 53.584 58.536 53.584 58.6C53.584 59.704 53.32 60.68 52.792 61.528C52.28 62.376 51.552 63.032 50.608 63.496C49.68 63.96 48.6 64.192 47.368 64.192ZM63.0496 51.952C63.0496 51.872 63.0736 51.808 63.1216 51.76C63.1856 51.696 63.2576 51.664 63.3376 51.664H66.1456C66.2256 51.664 66.2896 51.696 66.3376 51.76C66.4016 51.808 66.4336 51.872 66.4336 51.952V63.712C66.4336 63.792 66.4016 63.864 66.3376 63.928C66.2896 63.976 66.2256 64 66.1456 64H63.3376C63.2576 64 63.1856 63.976 63.1216 63.928C63.0736 63.864 63.0496 63.792 63.0496 63.712V62.896C63.0496 62.848 63.0336 62.824 63.0016 62.824C62.9696 62.808 62.9376 62.824 62.9056 62.872C62.2656 63.736 61.2736 64.168 59.9296 64.168C58.7136 64.168 57.7136 63.8 56.9296 63.064C56.1456 62.328 55.7536 61.296 55.7536 59.968V51.952C55.7536 51.872 55.7776 51.808 55.8256 51.76C55.8896 51.696 55.9616 51.664 56.0416 51.664H58.8256C58.9056 51.664 58.9696 51.696 59.0176 51.76C59.0816 51.808 59.1136 51.872 59.1136 51.952V59.128C59.1136 59.768 59.2816 60.288 59.6176 60.688C59.9696 61.088 60.4496 61.288 61.0576 61.288C61.6016 61.288 62.0496 61.128 62.4016 60.808C62.7536 60.472 62.9696 60.04 63.0496 59.512V51.952ZM73.8477 64.168C72.7757 64.168 71.8397 64.016 71.0397 63.712C70.2397 63.408 69.6157 62.984 69.1677 62.44C68.7357 61.896 68.5197 61.28 68.5197 60.592V60.352C68.5197 60.272 68.5437 60.208 68.5917 60.16C68.6557 60.096 68.7277 60.064 68.8077 60.064H71.4717C71.5517 60.064 71.6157 60.096 71.6637 60.16C71.7277 60.208 71.7597 60.272 71.7597 60.352V60.376C71.7597 60.728 71.9517 61.032 72.3357 61.288C72.7357 61.528 73.2317 61.648 73.8237 61.648C74.3677 61.648 74.8077 61.544 75.1437 61.336C75.4797 61.112 75.6477 60.84 75.6477 60.52C75.6477 60.232 75.5037 60.016 75.2157 59.872C74.9277 59.728 74.4557 59.576 73.7997 59.416C73.0477 59.224 72.4557 59.04 72.0237 58.864C70.9997 58.512 70.1837 58.08 69.5757 57.568C68.9677 57.056 68.6637 56.32 68.6637 55.36C68.6637 54.176 69.1197 53.24 70.0317 52.552C70.9597 51.848 72.1837 51.496 73.7037 51.496C74.7277 51.496 75.6237 51.664 76.3917 52C77.1597 52.32 77.7517 52.776 78.1677 53.368C78.5997 53.96 78.8157 54.632 78.8157 55.384C78.8157 55.464 78.7837 55.536 78.7197 55.6C78.6717 55.648 78.6077 55.672 78.5277 55.672H75.9597C75.8797 55.672 75.8077 55.648 75.7437 55.6C75.6957 55.536 75.6717 55.464 75.6717 55.384C75.6717 55.032 75.4877 54.736 75.1197 54.496C74.7677 54.256 74.2957 54.136 73.7037 54.136C73.1757 54.136 72.7437 54.232 72.4077 54.424C72.0717 54.616 71.9037 54.88 71.9037 55.216C71.9037 55.536 72.0637 55.776 72.3837 55.936C72.7197 56.096 73.2717 56.264 74.0397 56.44C74.2157 56.488 74.4157 56.544 74.6397 56.608C74.8637 56.656 75.1037 56.72 75.3597 56.8C76.4957 57.136 77.3917 57.568 78.0477 58.096C78.7037 58.624 79.0317 59.392 79.0317 60.4C79.0317 61.584 78.5597 62.512 77.6157 63.184C76.6877 63.84 75.4317 64.168 73.8477 64.168ZM88.0311 54.088C88.0311 54.168 87.9991 54.24 87.9351 54.304C87.8871 54.352 87.8231 54.376 87.7431 54.376H85.4391C85.3591 54.376 85.3191 54.416 85.3191 54.496V59.584C85.3191 60.112 85.4231 60.504 85.6311 60.76C85.8551 61.016 86.2071 61.144 86.6871 61.144H87.4791C87.5591 61.144 87.6231 61.176 87.6711 61.24C87.7351 61.288 87.7671 61.352 87.7671 61.432V63.712C87.7671 63.888 87.6711 63.992 87.4791 64.024C86.8071 64.056 86.3271 64.072 86.0391 64.072C84.7111 64.072 83.7191 63.856 83.0631 63.424C82.4071 62.976 82.0711 62.144 82.0551 60.928V54.496C82.0551 54.416 82.0151 54.376 81.9351 54.376H80.5671C80.4871 54.376 80.4151 54.352 80.3511 54.304C80.3031 54.24 80.2791 54.168 80.2791 54.088V51.952C80.2791 51.872 80.3031 51.808 80.3511 51.76C80.4151 51.696 80.4871 51.664 80.5671 51.664H81.9351C82.0151 51.664 82.0551 51.624 82.0551 51.544V48.688C82.0551 48.608 82.0791 48.544 82.1271 48.496C82.1911 48.432 82.2631 48.4 82.3431 48.4H85.0311C85.1111 48.4 85.1751 48.432 85.2231 48.496C85.2871 48.544 85.3191 48.608 85.3191 48.688V51.544C85.3191 51.624 85.3591 51.664 85.4391 51.664H87.7431C87.8231 51.664 87.8871 51.696 87.9351 51.76C87.9991 51.808 88.0311 51.872 88.0311 51.952V54.088ZM95.3523 64.192C94.0083 64.192 92.8563 63.84 91.8963 63.136C90.9363 62.432 90.2803 61.472 89.9283 60.256C89.7043 59.504 89.5923 58.688 89.5923 57.808C89.5923 56.864 89.7043 56.016 89.9283 55.264C90.2963 54.08 90.9603 53.152 91.9203 52.48C92.8803 51.808 94.0323 51.472 95.3763 51.472C96.6883 51.472 97.8083 51.808 98.7363 52.48C99.6643 53.136 100.32 54.056 100.704 55.24C100.96 56.04 101.088 56.88 101.088 57.76C101.088 58.624 100.976 59.432 100.752 60.184C100.4 61.432 99.7443 62.416 98.7843 63.136C97.8403 63.84 96.6963 64.192 95.3523 64.192ZM95.3523 61.288C95.8803 61.288 96.3283 61.128 96.6963 60.808C97.0643 60.488 97.3283 60.048 97.4883 59.488C97.6163 58.976 97.6803 58.416 97.6803 57.808C97.6803 57.136 97.6163 56.568 97.4883 56.104C97.3123 55.56 97.0403 55.136 96.6723 54.832C96.3043 54.528 95.8563 54.376 95.3283 54.376C94.7843 54.376 94.3283 54.528 93.9603 54.832C93.6083 55.136 93.3523 55.56 93.1923 56.104C93.0643 56.488 93.0003 57.056 93.0003 57.808C93.0003 58.528 93.0563 59.088 93.1683 59.488C93.3283 60.048 93.5923 60.488 93.9603 60.808C94.3443 61.128 94.8083 61.288 95.3523 61.288ZM116.944 51.472C118.192 51.472 119.168 51.848 119.872 52.6C120.576 53.352 120.928 54.408 120.928 55.768V63.712C120.928 63.792 120.896 63.864 120.832 63.928C120.784 63.976 120.72 64 120.64 64H117.832C117.752 64 117.68 63.976 117.616 63.928C117.568 63.864 117.544 63.792 117.544 63.712V56.512C117.544 55.856 117.376 55.336 117.04 54.952C116.704 54.568 116.256 54.376 115.696 54.376C115.136 54.376 114.68 54.568 114.328 54.952C113.976 55.336 113.8 55.848 113.8 56.488V63.712C113.8 63.792 113.768 63.864 113.704 63.928C113.656 63.976 113.592 64 113.512 64H110.728C110.648 64 110.576 63.976 110.512 63.928C110.464 63.864 110.44 63.792 110.44 63.712V56.512C110.44 55.872 110.264 55.36 109.912 54.976C109.56 54.576 109.104 54.376 108.544 54.376C108.032 54.376 107.6 54.528 107.248 54.832C106.912 55.136 106.712 55.56 106.648 56.104V63.712C106.648 63.792 106.616 63.864 106.552 63.928C106.504 63.976 106.44 64 106.36 64H103.552C103.472 64 103.4 63.976 103.336 63.928C103.288 63.864 103.264 63.792 103.264 63.712V51.952C103.264 51.872 103.288 51.808 103.336 51.76C103.4 51.696 103.472 51.664 103.552 51.664H106.36C106.44 51.664 106.504 51.696 106.552 51.76C106.616 51.808 106.648 51.872 106.648 51.952V52.888C106.648 52.936 106.664 52.968 106.696 52.984C106.728 53 106.76 52.984 106.792 52.936C107.448 51.96 108.464 51.472 109.84 51.472C110.64 51.472 111.336 51.64 111.928 51.976C112.536 52.312 113 52.792 113.32 53.416C113.368 53.512 113.424 53.512 113.488 53.416C113.84 52.76 114.312 52.272 114.904 51.952C115.512 51.632 116.192 51.472 116.944 51.472ZM134.152 56.56C134.248 57.168 134.28 57.848 134.248 58.6C134.232 58.792 134.128 58.888 133.936 58.888H126.52C126.424 58.888 126.392 58.928 126.424 59.008C126.472 59.328 126.56 59.648 126.688 59.968C127.104 60.864 127.952 61.312 129.232 61.312C130.256 61.296 131.064 60.88 131.656 60.064C131.72 59.968 131.792 59.92 131.872 59.92C131.92 59.92 131.976 59.952 132.04 60.016L133.768 61.72C133.848 61.8 133.888 61.872 133.888 61.936C133.888 61.968 133.856 62.032 133.792 62.128C133.264 62.784 132.584 63.296 131.752 63.664C130.92 64.016 130.008 64.192 129.016 64.192C127.64 64.192 126.472 63.88 125.512 63.256C124.568 62.632 123.888 61.76 123.472 60.64C123.136 59.84 122.968 58.792 122.968 57.496C122.968 56.616 123.088 55.84 123.328 55.168C123.696 54.032 124.336 53.128 125.248 52.456C126.176 51.784 127.272 51.448 128.536 51.448C130.136 51.448 131.416 51.912 132.376 52.84C133.352 53.768 133.944 55.008 134.152 56.56ZM128.56 54.376C127.552 54.376 126.888 54.848 126.568 55.792C126.504 56 126.448 56.256 126.4 56.56C126.4 56.64 126.44 56.68 126.52 56.68H130.672C130.768 56.68 130.8 56.64 130.768 56.56C130.688 56.096 130.648 55.872 130.648 55.888C130.504 55.408 130.248 55.04 129.88 54.784C129.528 54.512 129.088 54.376 128.56 54.376ZM142.478 51.496C143.054 51.496 143.51 51.608 143.846 51.832C143.974 51.896 144.022 52.016 143.99 52.192L143.486 54.928C143.47 55.12 143.358 55.176 143.15 55.096C142.91 55.016 142.63 54.976 142.31 54.976C142.182 54.976 142.006 54.992 141.782 55.024C141.206 55.072 140.718 55.288 140.318 55.672C139.918 56.04 139.718 56.536 139.718 57.16V63.712C139.718 63.792 139.686 63.864 139.622 63.928C139.574 63.976 139.51 64 139.43 64H136.622C136.542 64 136.47 63.976 136.406 63.928C136.358 63.864 136.334 63.792 136.334 63.712V51.952C136.334 51.872 136.358 51.808 136.406 51.76C136.47 51.696 136.542 51.664 136.622 51.664H139.43C139.51 51.664 139.574 51.696 139.622 51.76C139.686 51.808 139.718 51.872 139.718 51.952V52.864C139.718 52.912 139.734 52.944 139.766 52.96C139.798 52.976 139.822 52.968 139.838 52.936C140.494 51.976 141.374 51.496 142.478 51.496ZM161.342 47.392C161.422 47.264 161.534 47.2 161.678 47.2H164.486C164.566 47.2 164.63 47.232 164.678 47.296C164.742 47.344 164.774 47.408 164.774 47.488V63.712C164.774 63.792 164.742 63.864 164.678 63.928C164.63 63.976 164.566 64 164.486 64H161.678C161.598 64 161.526 63.976 161.462 63.928C161.414 63.864 161.39 63.792 161.39 63.712V53.128C161.39 53.064 161.374 53.032 161.342 53.032C161.31 53.032 161.278 53.056 161.246 53.104L158.702 57.088C158.622 57.216 158.51 57.28 158.366 57.28H156.95C156.806 57.28 156.694 57.216 156.614 57.088L154.07 53.104C154.038 53.056 154.006 53.04 153.974 53.056C153.942 53.056 153.926 53.088 153.926 53.152V63.712C153.926 63.792 153.894 63.864 153.83 63.928C153.782 63.976 153.718 64 153.638 64H150.83C150.75 64 150.678 63.976 150.614 63.928C150.566 63.864 150.542 63.792 150.542 63.712V47.488C150.542 47.408 150.566 47.344 150.614 47.296C150.678 47.232 150.75 47.2 150.83 47.2H153.638C153.782 47.2 153.894 47.264 153.974 47.392L157.574 52.984C157.622 53.08 157.67 53.08 157.718 52.984L161.342 47.392ZM172.402 51.472C173.442 51.472 174.37 51.656 175.186 52.024C176.002 52.376 176.634 52.864 177.082 53.488C177.546 54.112 177.778 54.808 177.778 55.576V63.712C177.778 63.792 177.746 63.864 177.682 63.928C177.634 63.976 177.57 64 177.49 64H174.682C174.602 64 174.53 63.976 174.466 63.928C174.418 63.864 174.394 63.792 174.394 63.712V62.92C174.394 62.872 174.378 62.84 174.346 62.824C174.314 62.808 174.282 62.824 174.25 62.872C173.578 63.752 172.498 64.192 171.01 64.192C169.762 64.192 168.754 63.888 167.986 63.28C167.218 62.672 166.834 61.776 166.834 60.592C166.834 59.36 167.266 58.408 168.13 57.736C168.994 57.048 170.226 56.704 171.826 56.704H174.274C174.354 56.704 174.394 56.664 174.394 56.584V56.056C174.394 55.528 174.234 55.12 173.914 54.832C173.594 54.528 173.114 54.376 172.474 54.376C171.978 54.376 171.562 54.464 171.226 54.64C170.906 54.816 170.698 55.064 170.602 55.384C170.554 55.56 170.45 55.64 170.29 55.624L167.386 55.24C167.194 55.208 167.106 55.136 167.122 55.024C167.186 54.352 167.45 53.744 167.914 53.2C168.394 52.656 169.018 52.232 169.786 51.928C170.57 51.624 171.442 51.472 172.402 51.472ZM171.922 61.672C172.61 61.672 173.194 61.488 173.674 61.12C174.154 60.752 174.394 60.28 174.394 59.704V58.84C174.394 58.76 174.354 58.72 174.274 58.72H172.546C171.826 58.72 171.258 58.856 170.842 59.128C170.442 59.4 170.242 59.784 170.242 60.28C170.242 60.712 170.394 61.056 170.698 61.312C171.002 61.552 171.41 61.672 171.922 61.672ZM191.178 54.976C191.466 55.792 191.61 56.752 191.61 57.856C191.61 58.96 191.458 59.96 191.154 60.856C190.786 61.88 190.202 62.696 189.402 63.304C188.618 63.896 187.642 64.192 186.474 64.192C185.322 64.192 184.426 63.792 183.786 62.992C183.754 62.944 183.722 62.928 183.69 62.944C183.658 62.96 183.642 62.992 183.642 63.04V68.176C183.642 68.256 183.61 68.32 183.546 68.368C183.498 68.432 183.434 68.464 183.354 68.464H180.546C180.466 68.464 180.394 68.432 180.33 68.368C180.282 68.32 180.258 68.256 180.258 68.176V51.952C180.258 51.872 180.282 51.808 180.33 51.76C180.394 51.696 180.466 51.664 180.546 51.664H183.354C183.434 51.664 183.498 51.696 183.546 51.76C183.61 51.808 183.642 51.872 183.642 51.952V52.744C183.642 52.792 183.658 52.824 183.69 52.84C183.722 52.84 183.754 52.824 183.786 52.792C184.458 51.912 185.386 51.472 186.57 51.472C187.674 51.472 188.626 51.784 189.426 52.408C190.242 53.016 190.826 53.872 191.178 54.976ZM187.506 60.352C187.906 59.728 188.106 58.88 188.106 57.808C188.106 56.8 187.938 56 187.602 55.408C187.234 54.72 186.642 54.376 185.826 54.376C185.09 54.376 184.538 54.72 184.17 55.408C183.834 55.984 183.666 56.792 183.666 57.832C183.666 58.904 183.842 59.736 184.194 60.328C184.562 60.968 185.106 61.288 185.826 61.288C186.546 61.288 187.106 60.976 187.506 60.352Z" fill="#464255"/>
<rect x="386.5" y="35.5" width="37" height="37" rx="11.5" fill="white" stroke="white"/>
<circle cx="405.5" cy="45.5" r="2.5" fill="#B9BBBD"/>
<circle cx="405.5" cy="53.5" r="2.5" fill="#B9BBBD"/>
<circle cx="405.5" cy="61.5" r="2.5" fill="#B9BBBD"/>
<rect x="264.5" y="35.5" width="107" height="37" rx="11.5" fill="white" stroke="#B9BBBD"/>
<path d="M286.375 58C286.285 58 286.23 57.96 286.21 57.88L283.39 47.665L283.375 47.62C283.375 47.54 283.425 47.5 283.525 47.5H284.74C284.83 47.5 284.885 47.545 284.905 47.635L286.87 55.105C286.88 55.125 286.89 55.135 286.9 55.135C286.92 55.135 286.935 55.125 286.945 55.105L288.805 47.635C288.825 47.545 288.88 47.5 288.97 47.5H290.155C290.245 47.5 290.3 47.545 290.32 47.635L292.285 55.12C292.295 55.14 292.305 55.15 292.315 55.15C292.325 55.15 292.335 55.14 292.345 55.12L294.325 47.635C294.345 47.545 294.4 47.5 294.49 47.5H295.63C295.68 47.5 295.715 47.515 295.735 47.545C295.765 47.575 295.775 47.615 295.765 47.665L293.05 57.865C293.03 57.955 292.975 58 292.885 58H291.73C291.64 58 291.585 57.955 291.565 57.865L289.6 50.125C289.59 50.095 289.58 50.08 289.57 50.08C289.56 50.08 289.55 50.095 289.54 50.125L287.635 57.865C287.625 57.955 287.57 58 287.47 58H286.375ZM302.608 53.23C302.648 53.64 302.663 54.1 302.653 54.61C302.653 54.71 302.603 54.76 302.503 54.76H297.718C297.678 54.76 297.658 54.78 297.658 54.82C297.658 55.16 297.688 55.42 297.748 55.6C297.858 56 298.078 56.315 298.408 56.545C298.748 56.765 299.173 56.875 299.683 56.875C300.423 56.875 300.993 56.57 301.393 55.96C301.443 55.86 301.508 55.845 301.588 55.915L302.443 56.485C302.513 56.545 302.528 56.61 302.488 56.68C302.208 57.13 301.808 57.485 301.288 57.745C300.778 58.005 300.198 58.135 299.548 58.135C298.818 58.135 298.203 57.975 297.703 57.655C297.203 57.335 296.828 56.88 296.578 56.29C296.338 55.7 296.218 54.985 296.218 54.145C296.218 53.415 296.273 52.86 296.383 52.48C296.563 51.79 296.923 51.245 297.463 50.845C298.003 50.445 298.658 50.245 299.428 50.245C300.438 50.245 301.193 50.5 301.693 51.01C302.193 51.51 302.498 52.25 302.608 53.23ZM299.428 51.49C298.998 51.49 298.643 51.6 298.363 51.82C298.083 52.03 297.893 52.315 297.793 52.675C297.723 52.895 297.678 53.175 297.658 53.515C297.658 53.555 297.678 53.575 297.718 53.575H301.153C301.193 53.575 301.213 53.555 301.213 53.515C301.193 53.185 301.163 52.94 301.123 52.78C301.023 52.39 300.823 52.08 300.523 51.85C300.233 51.61 299.868 51.49 299.428 51.49ZM310.65 53.23C310.69 53.64 310.705 54.1 310.695 54.61C310.695 54.71 310.645 54.76 310.545 54.76H305.76C305.72 54.76 305.7 54.78 305.7 54.82C305.7 55.16 305.73 55.42 305.79 55.6C305.9 56 306.12 56.315 306.45 56.545C306.79 56.765 307.215 56.875 307.725 56.875C308.465 56.875 309.035 56.57 309.435 55.96C309.485 55.86 309.55 55.845 309.63 55.915L310.485 56.485C310.555 56.545 310.57 56.61 310.53 56.68C310.25 57.13 309.85 57.485 309.33 57.745C308.82 58.005 308.24 58.135 307.59 58.135C306.86 58.135 306.245 57.975 305.745 57.655C305.245 57.335 304.87 56.88 304.62 56.29C304.38 55.7 304.26 54.985 304.26 54.145C304.26 53.415 304.315 52.86 304.425 52.48C304.605 51.79 304.965 51.245 305.505 50.845C306.045 50.445 306.7 50.245 307.47 50.245C308.48 50.245 309.235 50.5 309.735 51.01C310.235 51.51 310.54 52.25 310.65 53.23ZM307.47 51.49C307.04 51.49 306.685 51.6 306.405 51.82C306.125 52.03 305.935 52.315 305.835 52.675C305.765 52.895 305.72 53.175 305.7 53.515C305.7 53.555 305.72 53.575 305.76 53.575H309.195C309.235 53.575 309.255 53.555 309.255 53.515C309.235 53.185 309.205 52.94 309.165 52.78C309.065 52.39 308.865 52.08 308.565 51.85C308.275 51.61 307.91 51.49 307.47 51.49ZM312.662 58C312.562 58 312.512 57.95 312.512 57.85V47.65C312.512 47.55 312.562 47.5 312.662 47.5H313.802C313.902 47.5 313.952 47.55 313.952 47.65V53.425C313.952 53.445 313.962 53.46 313.982 53.47C314.002 53.48 314.017 53.475 314.027 53.455L316.802 50.44C316.842 50.39 316.902 50.365 316.982 50.365H318.317C318.377 50.365 318.412 50.385 318.422 50.425C318.442 50.455 318.432 50.495 318.392 50.545L316.457 52.78C316.437 52.82 316.432 52.85 316.442 52.87L318.737 57.82L318.752 57.88C318.752 57.96 318.707 58 318.617 58H317.417C317.337 58 317.282 57.96 317.252 57.88L315.467 53.8C315.447 53.75 315.422 53.745 315.392 53.785L313.982 55.345C313.962 55.385 313.952 55.41 313.952 55.42V57.85C313.952 57.95 313.902 58 313.802 58H312.662ZM320.338 58C320.238 58 320.188 57.95 320.188 57.85V47.65C320.188 47.55 320.238 47.5 320.338 47.5H321.478C321.578 47.5 321.628 47.55 321.628 47.65V57.85C321.628 57.95 321.578 58 321.478 58H320.338ZM323.493 60.985C323.423 60.985 323.388 60.935 323.388 60.835V59.95C323.388 59.85 323.438 59.8 323.538 59.8H323.568C323.968 59.79 324.283 59.74 324.513 59.65C324.743 59.56 324.933 59.39 325.083 59.14C325.233 58.9 325.378 58.535 325.518 58.045C325.528 58.035 325.528 58.02 325.518 58C325.518 57.97 325.518 57.955 325.518 57.955L323.013 50.53L322.998 50.47C322.998 50.4 323.043 50.365 323.133 50.365H324.348C324.438 50.365 324.498 50.405 324.528 50.485L326.223 56.14C326.233 56.16 326.248 56.17 326.268 56.17C326.288 56.17 326.303 56.16 326.313 56.14L327.993 50.485C328.023 50.405 328.083 50.365 328.173 50.365H329.358C329.468 50.365 329.508 50.42 329.478 50.53L326.748 58.525C326.518 59.215 326.288 59.725 326.058 60.055C325.828 60.395 325.528 60.635 325.158 60.775C324.788 60.915 324.268 60.985 323.598 60.985H323.493Z" fill="#202020"/>
<path d="M341.579 51.6839C340.98 51.0453 341.433 50 342.308 50H352.692C353.567 50 354.02 51.0453 353.421 51.6839L348.23 57.2218C347.834 57.6432 347.166 57.6432 346.77 57.2218L341.579 51.6839Z" fill="#FF5B5B"/>
<defs>
<filter id="filter0_d_126_1245" x="0" y="0" width="464" height="438" filterUnits="userSpaceOnUse" color-interpolation-filters="sRGB">
<feFlood flood-opacity="0" result="BackgroundImageFix"/>
<feColorMatrix in="SourceAlpha" type="matrix" values="0 0 0 0 0 0 0 0 0 0 0 0 0 0 0 0 0 0 127 0" result="hardAlpha"/>
<feOffset dy="4"/>
<feGaussianBlur stdDeviation="2"/>
<feColorMatrix type="matrix" values="0 0 0 0 0 0 0 0 0 0 0 0 0 0 0 0 0 0 0.04 0"/>
<feBlend mode="normal" in2="BackgroundImageFix" result="effect1_dropShadow_126_1245"/>
<feBlend mode="normal" in="SourceGraphic" in2="effect1_dropShadow_126_1245" result="shape"/>
</filter>
</defs>
</svg>
