<svg width="980" height="438" viewBox="0 0 980 438" fill="none" xmlns="http://www.w3.org/2000/svg">
<g filter="url(#filter0_d_126_1167)">
<rect x="4" width="972" height="430" rx="14" fill="white"/>
</g>
<path d="M84.725 121.255C84.725 122.035 84.475 122.68 83.975 123.19C83.485 123.69 82.8 123.99 81.92 124.09C81.88 124.09 81.86 124.11 81.86 124.15L81.875 125.2C81.875 125.3 81.825 125.35 81.725 125.35H80.735C80.635 125.35 80.585 125.3 80.585 125.2L80.6 124.135C80.6 124.095 80.58 124.075 80.54 124.075C79.65 123.955 78.955 123.645 78.455 123.145C77.955 122.635 77.705 121.985 77.705 121.195V120.76C77.705 120.66 77.755 120.61 77.855 120.61H78.89C78.99 120.61 79.04 120.66 79.04 120.76V121.12C79.04 121.63 79.25 122.05 79.67 122.38C80.09 122.71 80.66 122.875 81.38 122.875C82.03 122.875 82.52 122.73 82.85 122.44C83.19 122.15 83.36 121.77 83.36 121.3C83.36 120.99 83.275 120.725 83.105 120.505C82.935 120.285 82.685 120.085 82.355 119.905C82.025 119.715 81.545 119.49 80.915 119.23C80.215 118.95 79.665 118.695 79.265 118.465C78.865 118.235 78.53 117.935 78.26 117.565C78 117.185 77.87 116.71 77.87 116.14C77.87 115.38 78.105 114.765 78.575 114.295C79.045 113.815 79.685 113.52 80.495 113.41C80.535 113.41 80.555 113.39 80.555 113.35L80.54 112.195C80.54 112.095 80.59 112.045 80.69 112.045H81.665C81.765 112.045 81.815 112.095 81.815 112.195L81.8 113.365C81.8 113.405 81.82 113.43 81.86 113.44C82.72 113.56 83.395 113.88 83.885 114.4C84.385 114.92 84.635 115.575 84.635 116.365V116.665C84.635 116.765 84.585 116.815 84.485 116.815H83.435C83.335 116.815 83.285 116.765 83.285 116.665V116.44C83.285 115.92 83.09 115.49 82.7 115.15C82.31 114.8 81.765 114.625 81.065 114.625C80.475 114.625 80.02 114.755 79.7 115.015C79.38 115.265 79.22 115.63 79.22 116.11C79.22 116.44 79.3 116.71 79.46 116.92C79.63 117.13 79.87 117.32 80.18 117.49C80.5 117.65 80.985 117.86 81.635 118.12C82.315 118.4 82.86 118.66 83.27 118.9C83.69 119.13 84.035 119.44 84.305 119.83C84.585 120.21 84.725 120.685 84.725 121.255ZM93.0121 119.89C93.1121 119.89 93.1621 119.94 93.1621 120.04V121.03C93.1621 121.13 93.1121 121.18 93.0121 121.18H92.3671C92.3271 121.18 92.3071 121.2 92.3071 121.24V123.85C92.3071 123.95 92.2571 124 92.1571 124H91.0171C90.9171 124 90.8671 123.95 90.8671 123.85V121.24C90.8671 121.2 90.8471 121.18 90.8071 121.18H86.2471C86.1471 121.18 86.0971 121.13 86.0971 121.03V120.22C86.0971 120.17 86.1121 120.11 86.1421 120.04L89.0971 113.605C89.1271 113.535 89.1821 113.5 89.2621 113.5H90.4621C90.5121 113.5 90.5471 113.52 90.5671 113.56C90.5971 113.59 90.6021 113.63 90.5821 113.68L87.7621 119.815C87.7521 119.835 87.7521 119.855 87.7621 119.875C87.7721 119.885 87.7871 119.89 87.8071 119.89H90.8071C90.8471 119.89 90.8671 119.87 90.8671 119.83V117.595C90.8671 117.495 90.9171 117.445 91.0171 117.445H92.1571C92.2571 117.445 92.3071 117.495 92.3071 117.595V119.83C92.3071 119.87 92.3271 119.89 92.3671 119.89H93.0121ZM98.2368 124.15C97.2268 124.15 96.4218 123.865 95.8218 123.295C95.2318 122.715 94.9368 121.94 94.9368 120.97V116.53C94.9368 115.56 95.2318 114.79 95.8218 114.22C96.4218 113.65 97.2268 113.365 98.2368 113.365C99.2468 113.365 100.052 113.65 100.652 114.22C101.262 114.79 101.567 115.56 101.567 116.53V120.97C101.567 121.94 101.262 122.715 100.652 123.295C100.052 123.865 99.2468 124.15 98.2368 124.15ZM98.2368 122.905C98.8168 122.905 99.2768 122.74 99.6168 122.41C99.9568 122.07 100.127 121.62 100.127 121.06V116.47C100.127 115.91 99.9568 115.465 99.6168 115.135C99.2768 114.795 98.8168 114.625 98.2368 114.625C97.6768 114.625 97.2268 114.795 96.8868 115.135C96.5468 115.465 96.3768 115.91 96.3768 116.47V121.06C96.3768 121.62 96.5468 122.07 96.8868 122.41C97.2268 122.74 97.6768 122.905 98.2368 122.905ZM103.703 124C103.603 124 103.553 123.95 103.553 123.85V113.65C103.553 113.55 103.603 113.5 103.703 113.5H104.843C104.943 113.5 104.993 113.55 104.993 113.65V119.425C104.993 119.445 105.003 119.46 105.023 119.47C105.043 119.48 105.058 119.475 105.068 119.455L107.843 116.44C107.883 116.39 107.943 116.365 108.023 116.365H109.358C109.418 116.365 109.453 116.385 109.463 116.425C109.483 116.455 109.473 116.495 109.433 116.545L107.498 118.78C107.478 118.82 107.473 118.85 107.483 118.87L109.778 123.82L109.793 123.88C109.793 123.96 109.748 124 109.658 124H108.458C108.378 124 108.323 123.96 108.293 123.88L106.508 119.8C106.488 119.75 106.463 119.745 106.433 119.785L105.023 121.345C105.003 121.385 104.993 121.41 104.993 121.42V123.85C104.993 123.95 104.943 124 104.843 124H103.703Z" fill="#A3A3A3"/>
<path d="M84.725 185.255C84.725 186.035 84.475 186.68 83.975 187.19C83.485 187.69 82.8 187.99 81.92 188.09C81.88 188.09 81.86 188.11 81.86 188.15L81.875 189.2C81.875 189.3 81.825 189.35 81.725 189.35H80.735C80.635 189.35 80.585 189.3 80.585 189.2L80.6 188.135C80.6 188.095 80.58 188.075 80.54 188.075C79.65 187.955 78.955 187.645 78.455 187.145C77.955 186.635 77.705 185.985 77.705 185.195V184.76C77.705 184.66 77.755 184.61 77.855 184.61H78.89C78.99 184.61 79.04 184.66 79.04 184.76V185.12C79.04 185.63 79.25 186.05 79.67 186.38C80.09 186.71 80.66 186.875 81.38 186.875C82.03 186.875 82.52 186.73 82.85 186.44C83.19 186.15 83.36 185.77 83.36 185.3C83.36 184.99 83.275 184.725 83.105 184.505C82.935 184.285 82.685 184.085 82.355 183.905C82.025 183.715 81.545 183.49 80.915 183.23C80.215 182.95 79.665 182.695 79.265 182.465C78.865 182.235 78.53 181.935 78.26 181.565C78 181.185 77.87 180.71 77.87 180.14C77.87 179.38 78.105 178.765 78.575 178.295C79.045 177.815 79.685 177.52 80.495 177.41C80.535 177.41 80.555 177.39 80.555 177.35L80.54 176.195C80.54 176.095 80.59 176.045 80.69 176.045H81.665C81.765 176.045 81.815 176.095 81.815 176.195L81.8 177.365C81.8 177.405 81.82 177.43 81.86 177.44C82.72 177.56 83.395 177.88 83.885 178.4C84.385 178.92 84.635 179.575 84.635 180.365V180.665C84.635 180.765 84.585 180.815 84.485 180.815H83.435C83.335 180.815 83.285 180.765 83.285 180.665V180.44C83.285 179.92 83.09 179.49 82.7 179.15C82.31 178.8 81.765 178.625 81.065 178.625C80.475 178.625 80.02 178.755 79.7 179.015C79.38 179.265 79.22 179.63 79.22 180.11C79.22 180.44 79.3 180.71 79.46 180.92C79.63 181.13 79.87 181.32 80.18 181.49C80.5 181.65 80.985 181.86 81.635 182.12C82.315 182.4 82.86 182.66 83.27 182.9C83.69 183.13 84.035 183.44 84.305 183.83C84.585 184.21 84.725 184.685 84.725 185.255ZM92.1571 183.02C92.3571 183.51 92.4571 184.075 92.4571 184.715C92.4571 185.245 92.3771 185.735 92.2171 186.185C91.9971 186.805 91.6321 187.285 91.1221 187.625C90.6121 187.955 89.9971 188.12 89.2771 188.12C88.5571 188.12 87.9321 187.935 87.4021 187.565C86.8821 187.195 86.5171 186.695 86.3071 186.065C86.1971 185.785 86.1321 185.385 86.1121 184.865C86.1121 184.765 86.1621 184.715 86.2621 184.715H87.4171C87.5171 184.715 87.5671 184.765 87.5671 184.865C87.5871 185.225 87.6271 185.49 87.6871 185.66C87.7871 186.03 87.9721 186.325 88.2421 186.545C88.5221 186.765 88.8671 186.875 89.2771 186.875C90.0371 186.875 90.5471 186.53 90.8071 185.84C90.9371 185.54 91.0021 185.15 91.0021 184.67C91.0021 184.16 90.9221 183.705 90.7621 183.305C90.4821 182.685 89.9821 182.375 89.2621 182.375C89.0921 182.375 88.8771 182.45 88.6171 182.6C88.5771 182.62 88.5471 182.63 88.5271 182.63C88.4771 182.63 88.4371 182.605 88.4071 182.555L87.8371 181.775C87.8171 181.735 87.8071 181.7 87.8071 181.67C87.8071 181.64 87.8221 181.605 87.8521 181.565L90.4171 178.82C90.4471 178.77 90.4371 178.745 90.3871 178.745H86.3971C86.2971 178.745 86.2471 178.695 86.2471 178.595V177.65C86.2471 177.55 86.2971 177.5 86.3971 177.5H92.2171C92.3171 177.5 92.3671 177.55 92.3671 177.65V178.73C92.3671 178.78 92.3421 178.84 92.2921 178.91L90.0121 181.4C89.9921 181.42 89.9871 181.44 89.9971 181.46C90.0071 181.47 90.0271 181.48 90.0571 181.49C90.5671 181.54 90.9971 181.7 91.3471 181.97C91.6971 182.23 91.9671 182.58 92.1571 183.02ZM97.5484 188.15C96.5384 188.15 95.7334 187.865 95.1334 187.295C94.5434 186.715 94.2484 185.94 94.2484 184.97V180.53C94.2484 179.56 94.5434 178.79 95.1334 178.22C95.7334 177.65 96.5384 177.365 97.5484 177.365C98.5584 177.365 99.3634 177.65 99.9634 178.22C100.573 178.79 100.878 179.56 100.878 180.53V184.97C100.878 185.94 100.573 186.715 99.9634 187.295C99.3634 187.865 98.5584 188.15 97.5484 188.15ZM97.5484 186.905C98.1284 186.905 98.5884 186.74 98.9284 186.41C99.2684 186.07 99.4384 185.62 99.4384 185.06V180.47C99.4384 179.91 99.2684 179.465 98.9284 179.135C98.5884 178.795 98.1284 178.625 97.5484 178.625C96.9884 178.625 96.5384 178.795 96.1984 179.135C95.8584 179.465 95.6884 179.91 95.6884 180.47V185.06C95.6884 185.62 95.8584 186.07 96.1984 186.41C96.5384 186.74 96.9884 186.905 97.5484 186.905ZM103.014 188C102.914 188 102.864 187.95 102.864 187.85V177.65C102.864 177.55 102.914 177.5 103.014 177.5H104.154C104.254 177.5 104.304 177.55 104.304 177.65V183.425C104.304 183.445 104.314 183.46 104.334 183.47C104.354 183.48 104.369 183.475 104.379 183.455L107.154 180.44C107.194 180.39 107.254 180.365 107.334 180.365H108.669C108.729 180.365 108.764 180.385 108.774 180.425C108.794 180.455 108.784 180.495 108.744 180.545L106.809 182.78C106.789 182.82 106.784 182.85 106.794 182.87L109.089 187.82L109.104 187.88C109.104 187.96 109.059 188 108.969 188H107.769C107.689 188 107.634 187.96 107.604 187.88L105.819 183.8C105.799 183.75 105.774 183.745 105.744 183.785L104.334 185.345C104.314 185.385 104.304 185.41 104.304 185.42V187.85C104.304 187.95 104.254 188 104.154 188H103.014Z" fill="#A3A3A3"/>
<path d="M84.725 249.255C84.725 250.035 84.475 250.68 83.975 251.19C83.485 251.69 82.8 251.99 81.92 252.09C81.88 252.09 81.86 252.11 81.86 252.15L81.875 253.2C81.875 253.3 81.825 253.35 81.725 253.35H80.735C80.635 253.35 80.585 253.3 80.585 253.2L80.6 252.135C80.6 252.095 80.58 252.075 80.54 252.075C79.65 251.955 78.955 251.645 78.455 251.145C77.955 250.635 77.705 249.985 77.705 249.195V248.76C77.705 248.66 77.755 248.61 77.855 248.61H78.89C78.99 248.61 79.04 248.66 79.04 248.76V249.12C79.04 249.63 79.25 250.05 79.67 250.38C80.09 250.71 80.66 250.875 81.38 250.875C82.03 250.875 82.52 250.73 82.85 250.44C83.19 250.15 83.36 249.77 83.36 249.3C83.36 248.99 83.275 248.725 83.105 248.505C82.935 248.285 82.685 248.085 82.355 247.905C82.025 247.715 81.545 247.49 80.915 247.23C80.215 246.95 79.665 246.695 79.265 246.465C78.865 246.235 78.53 245.935 78.26 245.565C78 245.185 77.87 244.71 77.87 244.14C77.87 243.38 78.105 242.765 78.575 242.295C79.045 241.815 79.685 241.52 80.495 241.41C80.535 241.41 80.555 241.39 80.555 241.35L80.54 240.195C80.54 240.095 80.59 240.045 80.69 240.045H81.665C81.765 240.045 81.815 240.095 81.815 240.195L81.8 241.365C81.8 241.405 81.82 241.43 81.86 241.44C82.72 241.56 83.395 241.88 83.885 242.4C84.385 242.92 84.635 243.575 84.635 244.365V244.665C84.635 244.765 84.585 244.815 84.485 244.815H83.435C83.335 244.815 83.285 244.765 83.285 244.665V244.44C83.285 243.92 83.09 243.49 82.7 243.15C82.31 242.8 81.765 242.625 81.065 242.625C80.475 242.625 80.02 242.755 79.7 243.015C79.38 243.265 79.22 243.63 79.22 244.11C79.22 244.44 79.3 244.71 79.46 244.92C79.63 245.13 79.87 245.32 80.18 245.49C80.5 245.65 80.985 245.86 81.635 246.12C82.315 246.4 82.86 246.66 83.27 246.9C83.69 247.13 84.035 247.44 84.305 247.83C84.585 248.21 84.725 248.685 84.725 249.255ZM88.1371 250.68C88.1271 250.7 88.1271 250.72 88.1371 250.74C88.1471 250.75 88.1621 250.755 88.1821 250.755H92.6971C92.7971 250.755 92.8471 250.805 92.8471 250.905V251.85C92.8471 251.95 92.7971 252 92.6971 252H86.4121C86.3121 252 86.2621 251.95 86.2621 251.85V250.935C86.2621 250.865 86.2871 250.805 86.3371 250.755C86.6771 250.365 87.4571 249.45 88.6771 248.01L89.7121 246.765C90.6421 245.655 91.1071 244.795 91.1071 244.185C91.1071 243.715 90.9471 243.34 90.6271 243.06C90.3171 242.77 89.9021 242.625 89.3821 242.625C88.8621 242.625 88.4471 242.77 88.1371 243.06C87.8271 243.35 87.6771 243.73 87.6871 244.2V244.65C87.6871 244.75 87.6371 244.8 87.5371 244.8H86.3821C86.2821 244.8 86.2321 244.75 86.2321 244.65V244.005C86.2521 243.485 86.3971 243.025 86.6671 242.625C86.9471 242.225 87.3221 241.92 87.7921 241.71C88.2621 241.49 88.7921 241.38 89.3821 241.38C90.0221 241.38 90.5821 241.5 91.0621 241.74C91.5421 241.98 91.9121 242.31 92.1721 242.73C92.4321 243.15 92.5621 243.625 92.5621 244.155C92.5621 244.985 92.1121 245.965 91.2121 247.095C90.8121 247.605 90.3371 248.18 89.7871 248.82C89.2371 249.45 88.6871 250.07 88.1371 250.68ZM97.8413 252.15C96.8313 252.15 96.0263 251.865 95.4263 251.295C94.8363 250.715 94.5413 249.94 94.5413 248.97V244.53C94.5413 243.56 94.8363 242.79 95.4263 242.22C96.0263 241.65 96.8313 241.365 97.8413 241.365C98.8513 241.365 99.6563 241.65 100.256 242.22C100.866 242.79 101.171 243.56 101.171 244.53V248.97C101.171 249.94 100.866 250.715 100.256 251.295C99.6563 251.865 98.8513 252.15 97.8413 252.15ZM97.8413 250.905C98.4213 250.905 98.8813 250.74 99.2213 250.41C99.5613 250.07 99.7313 249.62 99.7313 249.06V244.47C99.7313 243.91 99.5613 243.465 99.2213 243.135C98.8813 242.795 98.4213 242.625 97.8413 242.625C97.2813 242.625 96.8313 242.795 96.4913 243.135C96.1513 243.465 95.9813 243.91 95.9813 244.47V249.06C95.9813 249.62 96.1513 250.07 96.4913 250.41C96.8313 250.74 97.2813 250.905 97.8413 250.905ZM103.307 252C103.207 252 103.157 251.95 103.157 251.85V241.65C103.157 241.55 103.207 241.5 103.307 241.5H104.447C104.547 241.5 104.597 241.55 104.597 241.65V247.425C104.597 247.445 104.607 247.46 104.627 247.47C104.647 247.48 104.662 247.475 104.672 247.455L107.447 244.44C107.487 244.39 107.547 244.365 107.627 244.365H108.962C109.022 244.365 109.057 244.385 109.067 244.425C109.087 244.455 109.077 244.495 109.037 244.545L107.102 246.78C107.082 246.82 107.077 246.85 107.087 246.87L109.382 251.82L109.397 251.88C109.397 251.96 109.352 252 109.262 252H108.062C107.982 252 107.927 251.96 107.897 251.88L106.112 247.8C106.092 247.75 106.067 247.745 106.037 247.785L104.627 249.345C104.607 249.385 104.597 249.41 104.597 249.42V251.85C104.597 251.95 104.547 252 104.447 252H103.307Z" fill="#A3A3A3"/>
<path d="M84.725 313.255C84.725 314.035 84.475 314.68 83.975 315.19C83.485 315.69 82.8 315.99 81.92 316.09C81.88 316.09 81.86 316.11 81.86 316.15L81.875 317.2C81.875 317.3 81.825 317.35 81.725 317.35H80.735C80.635 317.35 80.585 317.3 80.585 317.2L80.6 316.135C80.6 316.095 80.58 316.075 80.54 316.075C79.65 315.955 78.955 315.645 78.455 315.145C77.955 314.635 77.705 313.985 77.705 313.195V312.76C77.705 312.66 77.755 312.61 77.855 312.61H78.89C78.99 312.61 79.04 312.66 79.04 312.76V313.12C79.04 313.63 79.25 314.05 79.67 314.38C80.09 314.71 80.66 314.875 81.38 314.875C82.03 314.875 82.52 314.73 82.85 314.44C83.19 314.15 83.36 313.77 83.36 313.3C83.36 312.99 83.275 312.725 83.105 312.505C82.935 312.285 82.685 312.085 82.355 311.905C82.025 311.715 81.545 311.49 80.915 311.23C80.215 310.95 79.665 310.695 79.265 310.465C78.865 310.235 78.53 309.935 78.26 309.565C78 309.185 77.87 308.71 77.87 308.14C77.87 307.38 78.105 306.765 78.575 306.295C79.045 305.815 79.685 305.52 80.495 305.41C80.535 305.41 80.555 305.39 80.555 305.35L80.54 304.195C80.54 304.095 80.59 304.045 80.69 304.045H81.665C81.765 304.045 81.815 304.095 81.815 304.195L81.8 305.365C81.8 305.405 81.82 305.43 81.86 305.44C82.72 305.56 83.395 305.88 83.885 306.4C84.385 306.92 84.635 307.575 84.635 308.365V308.665C84.635 308.765 84.585 308.815 84.485 308.815H83.435C83.335 308.815 83.285 308.765 83.285 308.665V308.44C83.285 307.92 83.09 307.49 82.7 307.15C82.31 306.8 81.765 306.625 81.065 306.625C80.475 306.625 80.02 306.755 79.7 307.015C79.38 307.265 79.22 307.63 79.22 308.11C79.22 308.44 79.3 308.71 79.46 308.92C79.63 309.13 79.87 309.32 80.18 309.49C80.5 309.65 80.985 309.86 81.635 310.12C82.315 310.4 82.86 310.66 83.27 310.9C83.69 311.13 84.035 311.44 84.305 311.83C84.585 312.21 84.725 312.685 84.725 313.255ZM88.0021 305.545C88.0621 305.515 88.1271 305.5 88.1971 305.5H89.3821C89.4821 305.5 89.5321 305.55 89.5321 305.65V315.85C89.5321 315.95 89.4821 316 89.3821 316H88.2421C88.1421 316 88.0921 315.95 88.0921 315.85V307.045C88.0921 307.025 88.0821 307.01 88.0621 307C88.0521 306.99 88.0371 306.99 88.0171 307L86.4421 307.54C86.4221 307.55 86.3971 307.555 86.3671 307.555C86.3071 307.555 86.2721 307.515 86.2621 307.435L86.2021 306.58C86.2021 306.48 86.2321 306.42 86.2921 306.4L88.0021 305.545ZM94.9556 316.15C93.9456 316.15 93.1406 315.865 92.5406 315.295C91.9506 314.715 91.6556 313.94 91.6556 312.97V308.53C91.6556 307.56 91.9506 306.79 92.5406 306.22C93.1406 305.65 93.9456 305.365 94.9556 305.365C95.9656 305.365 96.7706 305.65 97.3706 306.22C97.9806 306.79 98.2856 307.56 98.2856 308.53V312.97C98.2856 313.94 97.9806 314.715 97.3706 315.295C96.7706 315.865 95.9656 316.15 94.9556 316.15ZM94.9556 314.905C95.5356 314.905 95.9956 314.74 96.3356 314.41C96.6756 314.07 96.8456 313.62 96.8456 313.06V308.47C96.8456 307.91 96.6756 307.465 96.3356 307.135C95.9956 306.795 95.5356 306.625 94.9556 306.625C94.3956 306.625 93.9456 306.795 93.6056 307.135C93.2656 307.465 93.0956 307.91 93.0956 308.47V313.06C93.0956 313.62 93.2656 314.07 93.6056 314.41C93.9456 314.74 94.3956 314.905 94.9556 314.905ZM100.422 316C100.322 316 100.272 315.95 100.272 315.85V305.65C100.272 305.55 100.322 305.5 100.422 305.5H101.562C101.662 305.5 101.712 305.55 101.712 305.65V311.425C101.712 311.445 101.722 311.46 101.742 311.47C101.762 311.48 101.777 311.475 101.787 311.455L104.562 308.44C104.602 308.39 104.662 308.365 104.742 308.365H106.077C106.137 308.365 106.172 308.385 106.182 308.425C106.202 308.455 106.192 308.495 106.152 308.545L104.217 310.78C104.197 310.82 104.192 310.85 104.202 310.87L106.497 315.82L106.512 315.88C106.512 315.96 106.467 316 106.377 316H105.177C105.097 316 105.042 315.96 105.012 315.88L103.227 311.8C103.207 311.75 103.182 311.745 103.152 311.785L101.742 313.345C101.722 313.385 101.712 313.41 101.712 313.42V315.85C101.712 315.95 101.662 316 101.562 316H100.422Z" fill="#A3A3A3"/>
<path d="M168.915 389.12C168.205 389.12 167.58 388.985 167.04 388.715C166.51 388.445 166.1 388.065 165.81 387.575C165.52 387.085 165.375 386.52 165.375 385.88V384.815C165.375 384.715 165.425 384.665 165.525 384.665H166.665C166.765 384.665 166.815 384.715 166.815 384.815V385.88C166.815 386.48 167.005 386.965 167.385 387.335C167.765 387.695 168.275 387.875 168.915 387.875C169.535 387.875 170.04 387.695 170.43 387.335C170.82 386.965 171.015 386.48 171.015 385.88V378.65C171.015 378.55 171.065 378.5 171.165 378.5H172.305C172.405 378.5 172.455 378.55 172.455 378.65V385.88C172.455 386.52 172.305 387.085 172.005 387.575C171.715 388.065 171.3 388.445 170.76 388.715C170.22 388.985 169.605 389.12 168.915 389.12ZM177.527 381.245C178.137 381.245 178.667 381.355 179.117 381.575C179.577 381.785 179.927 382.085 180.167 382.475C180.417 382.855 180.542 383.29 180.542 383.78V388.85C180.542 388.95 180.492 389 180.392 389H179.252C179.152 389 179.102 388.95 179.102 388.85V388.31C179.102 388.26 179.077 388.25 179.027 388.28C178.767 388.55 178.447 388.76 178.067 388.91C177.697 389.05 177.282 389.12 176.822 389.12C176.082 389.12 175.467 388.935 174.977 388.565C174.497 388.185 174.257 387.615 174.257 386.855C174.257 386.075 174.527 385.465 175.067 385.025C175.617 384.575 176.382 384.35 177.362 384.35H179.042C179.082 384.35 179.102 384.33 179.102 384.29V383.885C179.102 383.445 178.972 383.105 178.712 382.865C178.462 382.615 178.077 382.49 177.557 382.49C177.137 382.49 176.792 382.575 176.522 382.745C176.262 382.905 176.102 383.125 176.042 383.405C176.012 383.505 175.952 383.55 175.862 383.54L174.647 383.375C174.547 383.355 174.502 383.315 174.512 383.255C174.592 382.665 174.907 382.185 175.457 381.815C176.007 381.435 176.697 381.245 177.527 381.245ZM177.137 387.905C177.667 387.905 178.127 387.765 178.517 387.485C178.907 387.205 179.102 386.85 179.102 386.42V385.535C179.102 385.495 179.082 385.475 179.042 385.475H177.632C177.042 385.475 176.572 385.59 176.222 385.82C175.872 386.05 175.697 386.37 175.697 386.78C175.697 387.15 175.827 387.43 176.087 387.62C176.357 387.81 176.707 387.905 177.137 387.905ZM185.891 381.26C186.711 381.26 187.361 381.5 187.841 381.98C188.321 382.45 188.561 383.09 188.561 383.9V388.85C188.561 388.95 188.511 389 188.411 389H187.271C187.171 389 187.121 388.95 187.121 388.85V384.185C187.121 383.685 186.976 383.28 186.686 382.97C186.396 382.66 186.011 382.505 185.531 382.505C185.061 382.505 184.676 382.66 184.376 382.97C184.076 383.28 183.926 383.68 183.926 384.17V388.85C183.926 388.95 183.876 389 183.776 389H182.636C182.536 389 182.486 388.95 182.486 388.85V381.515C182.486 381.415 182.536 381.365 182.636 381.365H183.776C183.876 381.365 183.926 381.415 183.926 381.515V382.055C183.926 382.075 183.931 382.09 183.941 382.1C183.961 382.11 183.976 382.105 183.986 382.085C184.416 381.535 185.051 381.26 185.891 381.26Z" fill="#A3A3A3"/>
<circle cx="179.5" cy="358.5" r="3.5" stroke="#B9BBBD" stroke-width="2"/>
<path d="M238.19 379.595C238.19 379.695 238.14 379.745 238.04 379.745H232.73C232.69 379.745 232.67 379.765 232.67 379.805V383.03C232.67 383.07 232.69 383.09 232.73 383.09H236.375C236.475 383.09 236.525 383.14 236.525 383.24V384.185C236.525 384.285 236.475 384.335 236.375 384.335H232.73C232.69 384.335 232.67 384.355 232.67 384.395V388.85C232.67 388.95 232.62 389 232.52 389H231.38C231.28 389 231.23 388.95 231.23 388.85V378.65C231.23 378.55 231.28 378.5 231.38 378.5H238.04C238.14 378.5 238.19 378.55 238.19 378.65V379.595ZM245.008 384.23C245.048 384.64 245.063 385.1 245.053 385.61C245.053 385.71 245.003 385.76 244.903 385.76H240.118C240.078 385.76 240.058 385.78 240.058 385.82C240.058 386.16 240.088 386.42 240.148 386.6C240.258 387 240.478 387.315 240.808 387.545C241.148 387.765 241.573 387.875 242.083 387.875C242.823 387.875 243.393 387.57 243.793 386.96C243.843 386.86 243.908 386.845 243.988 386.915L244.843 387.485C244.913 387.545 244.928 387.61 244.888 387.68C244.608 388.13 244.208 388.485 243.688 388.745C243.178 389.005 242.598 389.135 241.948 389.135C241.218 389.135 240.603 388.975 240.103 388.655C239.603 388.335 239.228 387.88 238.978 387.29C238.738 386.7 238.618 385.985 238.618 385.145C238.618 384.415 238.673 383.86 238.783 383.48C238.963 382.79 239.323 382.245 239.863 381.845C240.403 381.445 241.058 381.245 241.828 381.245C242.838 381.245 243.593 381.5 244.093 382.01C244.593 382.51 244.898 383.25 245.008 384.23ZM241.828 382.49C241.398 382.49 241.043 382.6 240.763 382.82C240.483 383.03 240.293 383.315 240.193 383.675C240.123 383.895 240.078 384.175 240.058 384.515C240.058 384.555 240.078 384.575 240.118 384.575H243.553C243.593 384.575 243.613 384.555 243.613 384.515C243.593 384.185 243.563 383.94 243.523 383.78C243.423 383.39 243.223 383.08 242.923 382.85C242.633 382.61 242.268 382.49 241.828 382.49ZM253.035 383.345C253.195 383.855 253.275 384.46 253.275 385.16C253.275 385.91 253.18 386.55 252.99 387.08C252.77 387.73 252.42 388.235 251.94 388.595C251.47 388.945 250.875 389.12 250.155 389.12C249.805 389.12 249.48 389.05 249.18 388.91C248.88 388.77 248.62 388.575 248.4 388.325C248.38 388.305 248.36 388.3 248.34 388.31C248.33 388.32 248.325 388.335 248.325 388.355V388.85C248.325 388.95 248.275 389 248.175 389H247.035C246.935 389 246.885 388.95 246.885 388.85V378.65C246.885 378.55 246.935 378.5 247.035 378.5H248.175C248.275 378.5 248.325 378.55 248.325 378.65V381.995C248.325 382.015 248.33 382.03 248.34 382.04C248.36 382.05 248.38 382.045 248.4 382.025C248.62 381.775 248.88 381.585 249.18 381.455C249.49 381.315 249.815 381.245 250.155 381.245C250.905 381.245 251.52 381.43 252 381.8C252.48 382.17 252.825 382.685 253.035 383.345ZM251.445 387.05C251.695 386.58 251.82 385.96 251.82 385.19C251.82 384.37 251.66 383.71 251.34 383.21C251.05 382.73 250.605 382.49 250.005 382.49C249.445 382.49 249.02 382.745 248.73 383.255C248.47 383.715 248.34 384.355 248.34 385.175C248.34 385.995 248.46 386.625 248.7 387.065C249 387.605 249.44 387.875 250.02 387.875C250.68 387.875 251.155 387.6 251.445 387.05Z" fill="#A3A3A3"/>
<circle cx="244.5" cy="358.5" r="3.5" stroke="#B9BBBD" stroke-width="2"/>
<path d="M303.025 378.59C303.075 378.53 303.135 378.5 303.205 378.5H304.345C304.445 378.5 304.495 378.55 304.495 378.65V388.85C304.495 388.95 304.445 389 304.345 389H303.205C303.105 389 303.055 388.95 303.055 388.85V381.17C303.055 381.14 303.045 381.12 303.025 381.11C303.005 381.1 302.99 381.11 302.98 381.14L300.835 384.41C300.795 384.47 300.735 384.5 300.655 384.5H300.085C300.015 384.5 299.955 384.47 299.905 384.41L297.745 381.17C297.735 381.14 297.72 381.13 297.7 381.14C297.68 381.15 297.67 381.17 297.67 381.2V388.85C297.67 388.95 297.62 389 297.52 389H296.38C296.28 389 296.23 388.95 296.23 388.85V378.65C296.23 378.55 296.28 378.5 296.38 378.5H297.52C297.6 378.5 297.66 378.53 297.7 378.59L300.325 382.52C300.335 382.53 300.35 382.535 300.37 382.535C300.39 382.535 300.405 382.53 300.415 382.52L303.025 378.59ZM309.563 381.245C310.173 381.245 310.703 381.355 311.153 381.575C311.613 381.785 311.963 382.085 312.203 382.475C312.453 382.855 312.578 383.29 312.578 383.78V388.85C312.578 388.95 312.528 389 312.428 389H311.288C311.188 389 311.138 388.95 311.138 388.85V388.31C311.138 388.26 311.113 388.25 311.063 388.28C310.803 388.55 310.483 388.76 310.103 388.91C309.733 389.05 309.318 389.12 308.858 389.12C308.118 389.12 307.503 388.935 307.013 388.565C306.533 388.185 306.293 387.615 306.293 386.855C306.293 386.075 306.563 385.465 307.103 385.025C307.653 384.575 308.418 384.35 309.398 384.35H311.078C311.118 384.35 311.138 384.33 311.138 384.29V383.885C311.138 383.445 311.008 383.105 310.748 382.865C310.498 382.615 310.113 382.49 309.593 382.49C309.173 382.49 308.828 382.575 308.558 382.745C308.298 382.905 308.138 383.125 308.078 383.405C308.048 383.505 307.988 383.55 307.898 383.54L306.683 383.375C306.583 383.355 306.538 383.315 306.548 383.255C306.628 382.665 306.943 382.185 307.493 381.815C308.043 381.435 308.733 381.245 309.563 381.245ZM309.173 387.905C309.703 387.905 310.163 387.765 310.553 387.485C310.943 387.205 311.138 386.85 311.138 386.42V385.535C311.138 385.495 311.118 385.475 311.078 385.475H309.668C309.078 385.475 308.608 385.59 308.258 385.82C307.908 386.05 307.733 386.37 307.733 386.78C307.733 387.15 307.863 387.43 308.123 387.62C308.393 387.81 308.743 387.905 309.173 387.905ZM317.867 381.29C318.187 381.29 318.477 381.355 318.737 381.485C318.807 381.515 318.832 381.575 318.812 381.665L318.572 382.79C318.562 382.88 318.502 382.91 318.392 382.88C318.222 382.81 318.022 382.775 317.792 382.775L317.582 382.79C317.112 382.81 316.722 382.975 316.412 383.285C316.112 383.585 315.962 383.98 315.962 384.47V388.85C315.962 388.95 315.912 389 315.812 389H314.672C314.572 389 314.522 388.95 314.522 388.85V381.515C314.522 381.415 314.572 381.365 314.672 381.365H315.812C315.912 381.365 315.962 381.415 315.962 381.515V382.31C315.962 382.34 315.967 382.36 315.977 382.37C315.997 382.37 316.012 382.36 316.022 382.34C316.472 381.64 317.087 381.29 317.867 381.29Z" fill="#A3A3A3"/>
<circle cx="309.5" cy="358.5" r="3.5" stroke="#B9BBBD" stroke-width="2"/>
<path d="M367.605 389C367.515 389 367.455 388.96 367.425 388.88L366.885 387.125C366.875 387.095 366.855 387.08 366.825 387.08H362.61C362.58 387.08 362.56 387.095 362.55 387.125L362.01 388.88C361.98 388.96 361.92 389 361.83 389H360.615C360.505 389 360.465 388.945 360.495 388.835L363.78 378.62C363.81 378.54 363.87 378.5 363.96 378.5H365.46C365.55 378.5 365.61 378.54 365.64 378.62L368.955 388.835L368.97 388.895C368.97 388.965 368.925 389 368.835 389H367.605ZM362.925 385.865C362.915 385.885 362.915 385.905 362.925 385.925C362.945 385.935 362.965 385.94 362.985 385.94H366.435C366.455 385.94 366.47 385.935 366.48 385.925C366.5 385.905 366.505 385.885 366.495 385.865L364.755 380.3C364.745 380.28 364.73 380.27 364.71 380.27C364.69 380.27 364.675 380.28 364.665 380.3L362.925 385.865ZM376.693 383.285C376.883 383.825 376.978 384.465 376.978 385.205C376.978 385.905 376.898 386.51 376.738 387.02C376.528 387.69 376.183 388.21 375.703 388.58C375.223 388.94 374.608 389.12 373.858 389.12C373.518 389.12 373.193 389.055 372.883 388.925C372.583 388.785 372.323 388.59 372.103 388.34C372.083 388.32 372.063 388.315 372.043 388.325C372.033 388.335 372.028 388.35 372.028 388.37V391.715C372.028 391.815 371.978 391.865 371.878 391.865H370.738C370.638 391.865 370.588 391.815 370.588 391.715V381.515C370.588 381.415 370.638 381.365 370.738 381.365H371.878C371.978 381.365 372.028 381.415 372.028 381.515V382.01C372.028 382.03 372.033 382.045 372.043 382.055C372.063 382.065 372.083 382.06 372.103 382.04C372.323 381.79 372.583 381.595 372.883 381.455C373.183 381.315 373.508 381.245 373.858 381.245C374.578 381.245 375.173 381.425 375.643 381.785C376.123 382.135 376.473 382.635 376.693 383.285ZM375.043 387.155C375.363 386.675 375.523 386.015 375.523 385.175C375.523 384.405 375.398 383.785 375.148 383.315C374.858 382.765 374.383 382.49 373.723 382.49C373.143 382.49 372.703 382.76 372.403 383.3C372.163 383.73 372.043 384.36 372.043 385.19C372.043 386.03 372.173 386.67 372.433 387.11C372.723 387.62 373.148 387.875 373.708 387.875C374.308 387.875 374.753 387.635 375.043 387.155ZM382.208 381.29C382.528 381.29 382.818 381.355 383.078 381.485C383.148 381.515 383.173 381.575 383.153 381.665L382.913 382.79C382.903 382.88 382.843 382.91 382.733 382.88C382.563 382.81 382.363 382.775 382.133 382.775L381.923 382.79C381.453 382.81 381.063 382.975 380.753 383.285C380.453 383.585 380.303 383.98 380.303 384.47V388.85C380.303 388.95 380.253 389 380.153 389H379.013C378.913 389 378.863 388.95 378.863 388.85V381.515C378.863 381.415 378.913 381.365 379.013 381.365H380.153C380.253 381.365 380.303 381.415 380.303 381.515V382.31C380.303 382.34 380.308 382.36 380.318 382.37C380.338 382.37 380.353 382.36 380.363 382.34C380.813 381.64 381.428 381.29 382.208 381.29Z" fill="#A3A3A3"/>
<circle cx="374.5" cy="358.5" r="3.5" stroke="#B9BBBD" stroke-width="2"/>
<path d="M432.025 378.59C432.075 378.53 432.135 378.5 432.205 378.5H433.345C433.445 378.5 433.495 378.55 433.495 378.65V388.85C433.495 388.95 433.445 389 433.345 389H432.205C432.105 389 432.055 388.95 432.055 388.85V381.17C432.055 381.14 432.045 381.12 432.025 381.11C432.005 381.1 431.99 381.11 431.98 381.14L429.835 384.41C429.795 384.47 429.735 384.5 429.655 384.5H429.085C429.015 384.5 428.955 384.47 428.905 384.41L426.745 381.17C426.735 381.14 426.72 381.13 426.7 381.14C426.68 381.15 426.67 381.17 426.67 381.2V388.85C426.67 388.95 426.62 389 426.52 389H425.38C425.28 389 425.23 388.95 425.23 388.85V378.65C425.23 378.55 425.28 378.5 425.38 378.5H426.52C426.6 378.5 426.66 378.53 426.7 378.59L429.325 382.52C429.335 382.53 429.35 382.535 429.37 382.535C429.39 382.535 429.405 382.53 429.415 382.52L432.025 378.59ZM438.563 381.245C439.173 381.245 439.703 381.355 440.153 381.575C440.613 381.785 440.963 382.085 441.203 382.475C441.453 382.855 441.578 383.29 441.578 383.78V388.85C441.578 388.95 441.528 389 441.428 389H440.288C440.188 389 440.138 388.95 440.138 388.85V388.31C440.138 388.26 440.113 388.25 440.063 388.28C439.803 388.55 439.483 388.76 439.103 388.91C438.733 389.05 438.318 389.12 437.858 389.12C437.118 389.12 436.503 388.935 436.013 388.565C435.533 388.185 435.293 387.615 435.293 386.855C435.293 386.075 435.563 385.465 436.103 385.025C436.653 384.575 437.418 384.35 438.398 384.35H440.078C440.118 384.35 440.138 384.33 440.138 384.29V383.885C440.138 383.445 440.008 383.105 439.748 382.865C439.498 382.615 439.113 382.49 438.593 382.49C438.173 382.49 437.828 382.575 437.558 382.745C437.298 382.905 437.138 383.125 437.078 383.405C437.048 383.505 436.988 383.55 436.898 383.54L435.683 383.375C435.583 383.355 435.538 383.315 435.548 383.255C435.628 382.665 435.943 382.185 436.493 381.815C437.043 381.435 437.733 381.245 438.563 381.245ZM438.173 387.905C438.703 387.905 439.163 387.765 439.553 387.485C439.943 387.205 440.138 386.85 440.138 386.42V385.535C440.138 385.495 440.118 385.475 440.078 385.475H438.668C438.078 385.475 437.608 385.59 437.258 385.82C436.908 386.05 436.733 386.37 436.733 386.78C436.733 387.15 436.863 387.43 437.123 387.62C437.393 387.81 437.743 387.905 438.173 387.905ZM443.165 391.985C443.095 391.985 443.06 391.935 443.06 391.835V390.95C443.06 390.85 443.11 390.8 443.21 390.8H443.24C443.64 390.79 443.955 390.74 444.185 390.65C444.415 390.56 444.605 390.39 444.755 390.14C444.905 389.9 445.05 389.535 445.19 389.045C445.2 389.035 445.2 389.02 445.19 389C445.19 388.97 445.19 388.955 445.19 388.955L442.685 381.53L442.67 381.47C442.67 381.4 442.715 381.365 442.805 381.365H444.02C444.11 381.365 444.17 381.405 444.2 381.485L445.895 387.14C445.905 387.16 445.92 387.17 445.94 387.17C445.96 387.17 445.975 387.16 445.985 387.14L447.665 381.485C447.695 381.405 447.755 381.365 447.845 381.365H449.03C449.14 381.365 449.18 381.42 449.15 381.53L446.42 389.525C446.19 390.215 445.96 390.725 445.73 391.055C445.5 391.395 445.2 391.635 444.83 391.775C444.46 391.915 443.94 391.985 443.27 391.985H443.165Z" fill="#A3A3A3"/>
<circle cx="438.5" cy="358.5" r="3.5" stroke="#B9BBBD" stroke-width="2"/>
<path d="M493.915 389.12C493.205 389.12 492.58 388.985 492.04 388.715C491.51 388.445 491.1 388.065 490.81 387.575C490.52 387.085 490.375 386.52 490.375 385.88V384.815C490.375 384.715 490.425 384.665 490.525 384.665H491.665C491.765 384.665 491.815 384.715 491.815 384.815V385.88C491.815 386.48 492.005 386.965 492.385 387.335C492.765 387.695 493.275 387.875 493.915 387.875C494.535 387.875 495.04 387.695 495.43 387.335C495.82 386.965 496.015 386.48 496.015 385.88V378.65C496.015 378.55 496.065 378.5 496.165 378.5H497.305C497.405 378.5 497.455 378.55 497.455 378.65V385.88C497.455 386.52 497.305 387.085 497.005 387.575C496.715 388.065 496.3 388.445 495.76 388.715C495.22 388.985 494.605 389.12 493.915 389.12ZM504.282 381.515C504.282 381.415 504.332 381.365 504.432 381.365H505.557C505.657 381.365 505.707 381.415 505.707 381.515V388.85C505.707 388.95 505.657 389 505.557 389H504.432C504.332 389 504.282 388.95 504.282 388.85V388.295C504.282 388.275 504.272 388.265 504.252 388.265C504.242 388.255 504.227 388.26 504.207 388.28C503.807 388.83 503.192 389.105 502.362 389.105C501.872 389.105 501.417 389.01 500.997 388.82C500.587 388.63 500.257 388.35 500.007 387.98C499.757 387.61 499.632 387.16 499.632 386.63V381.515C499.632 381.415 499.682 381.365 499.782 381.365H500.907C501.007 381.365 501.057 381.415 501.057 381.515V386.18C501.057 386.7 501.192 387.11 501.462 387.41C501.742 387.71 502.132 387.86 502.632 387.86C503.132 387.86 503.532 387.71 503.832 387.41C504.132 387.1 504.282 386.69 504.282 386.18V381.515ZM511.213 381.26C512.033 381.26 512.683 381.5 513.163 381.98C513.643 382.45 513.883 383.09 513.883 383.9V388.85C513.883 388.95 513.833 389 513.733 389H512.593C512.493 389 512.443 388.95 512.443 388.85V384.185C512.443 383.685 512.298 383.28 512.008 382.97C511.718 382.66 511.333 382.505 510.853 382.505C510.383 382.505 509.998 382.66 509.698 382.97C509.398 383.28 509.248 383.68 509.248 384.17V388.85C509.248 388.95 509.198 389 509.098 389H507.958C507.858 389 507.808 388.95 507.808 388.85V381.515C507.808 381.415 507.858 381.365 507.958 381.365H509.098C509.198 381.365 509.248 381.415 509.248 381.515V382.055C509.248 382.075 509.253 382.09 509.263 382.1C509.283 382.11 509.298 382.105 509.308 382.085C509.738 381.535 510.373 381.26 511.213 381.26Z" fill="#A3A3A3"/>
<circle cx="504.5" cy="358.5" r="4.5" fill="#2D9CDB"/>
<path d="M558.915 389.12C558.205 389.12 557.58 388.985 557.04 388.715C556.51 388.445 556.1 388.065 555.81 387.575C555.52 387.085 555.375 386.52 555.375 385.88V384.815C555.375 384.715 555.425 384.665 555.525 384.665H556.665C556.765 384.665 556.815 384.715 556.815 384.815V385.88C556.815 386.48 557.005 386.965 557.385 387.335C557.765 387.695 558.275 387.875 558.915 387.875C559.535 387.875 560.04 387.695 560.43 387.335C560.82 386.965 561.015 386.48 561.015 385.88V378.65C561.015 378.55 561.065 378.5 561.165 378.5H562.305C562.405 378.5 562.455 378.55 562.455 378.65V385.88C562.455 386.52 562.305 387.085 562.005 387.575C561.715 388.065 561.3 388.445 560.76 388.715C560.22 388.985 559.605 389.12 558.915 389.12ZM569.282 381.515C569.282 381.415 569.332 381.365 569.432 381.365H570.557C570.657 381.365 570.707 381.415 570.707 381.515V388.85C570.707 388.95 570.657 389 570.557 389H569.432C569.332 389 569.282 388.95 569.282 388.85V388.295C569.282 388.275 569.272 388.265 569.252 388.265C569.242 388.255 569.227 388.26 569.207 388.28C568.807 388.83 568.192 389.105 567.362 389.105C566.872 389.105 566.417 389.01 565.997 388.82C565.587 388.63 565.257 388.35 565.007 387.98C564.757 387.61 564.632 387.16 564.632 386.63V381.515C564.632 381.415 564.682 381.365 564.782 381.365H565.907C566.007 381.365 566.057 381.415 566.057 381.515V386.18C566.057 386.7 566.192 387.11 566.462 387.41C566.742 387.71 567.132 387.86 567.632 387.86C568.132 387.86 568.532 387.71 568.832 387.41C569.132 387.1 569.282 386.69 569.282 386.18V381.515ZM572.958 389C572.858 389 572.808 388.95 572.808 388.85V378.65C572.808 378.55 572.858 378.5 572.958 378.5H574.098C574.198 378.5 574.248 378.55 574.248 378.65V388.85C574.248 388.95 574.198 389 574.098 389H572.958Z" fill="#A3A3A3"/>
<circle cx="569.5" cy="358.5" r="3.5" stroke="#B9BBBD" stroke-width="2"/>
<path d="M623.605 389C623.515 389 623.455 388.96 623.425 388.88L622.885 387.125C622.875 387.095 622.855 387.08 622.825 387.08H618.61C618.58 387.08 618.56 387.095 618.55 387.125L618.01 388.88C617.98 388.96 617.92 389 617.83 389H616.615C616.505 389 616.465 388.945 616.495 388.835L619.78 378.62C619.81 378.54 619.87 378.5 619.96 378.5H621.46C621.55 378.5 621.61 378.54 621.64 378.62L624.955 388.835L624.97 388.895C624.97 388.965 624.925 389 624.835 389H623.605ZM618.925 385.865C618.915 385.885 618.915 385.905 618.925 385.925C618.945 385.935 618.965 385.94 618.985 385.94H622.435C622.455 385.94 622.47 385.935 622.48 385.925C622.5 385.905 622.505 385.885 622.495 385.865L620.755 380.3C620.745 380.28 620.73 380.27 620.71 380.27C620.69 380.27 620.675 380.28 620.665 380.3L618.925 385.865ZM631.043 381.515C631.043 381.415 631.093 381.365 631.193 381.365H632.318C632.418 381.365 632.468 381.415 632.468 381.515V388.85C632.468 388.95 632.418 389 632.318 389H631.193C631.093 389 631.043 388.95 631.043 388.85V388.295C631.043 388.275 631.033 388.265 631.013 388.265C631.003 388.255 630.988 388.26 630.968 388.28C630.568 388.83 629.953 389.105 629.123 389.105C628.633 389.105 628.178 389.01 627.758 388.82C627.348 388.63 627.018 388.35 626.768 387.98C626.518 387.61 626.393 387.16 626.393 386.63V381.515C626.393 381.415 626.443 381.365 626.543 381.365H627.668C627.768 381.365 627.818 381.415 627.818 381.515V386.18C627.818 386.7 627.953 387.11 628.223 387.41C628.503 387.71 628.893 387.86 629.393 387.86C629.893 387.86 630.293 387.71 630.593 387.41C630.893 387.1 631.043 386.69 631.043 386.18V381.515ZM639.265 381.515C639.265 381.415 639.315 381.365 639.415 381.365H640.555C640.655 381.365 640.705 381.415 640.705 381.515V388.61C640.705 389.82 640.36 390.685 639.67 391.205C638.99 391.725 638.075 391.985 636.925 391.985C636.765 391.985 636.515 391.975 636.175 391.955C636.075 391.945 636.025 391.89 636.025 391.79L636.07 390.755C636.07 390.715 636.085 390.68 636.115 390.65C636.145 390.62 636.185 390.61 636.235 390.62C636.375 390.63 636.58 390.635 636.85 390.635C637.7 390.635 638.315 390.475 638.695 390.155C639.075 389.845 639.265 389.315 639.265 388.565V388.295C639.265 388.275 639.255 388.26 639.235 388.25C639.225 388.24 639.21 388.245 639.19 388.265C638.77 388.755 638.155 389 637.345 389C636.695 389 636.105 388.83 635.575 388.49C635.055 388.15 634.695 387.65 634.495 386.99C634.365 386.55 634.3 385.94 634.3 385.16C634.3 384.33 634.375 383.69 634.525 383.24C634.715 382.64 635.05 382.16 635.53 381.8C636.02 381.43 636.595 381.245 637.255 381.245C638.075 381.245 638.72 381.495 639.19 381.995C639.21 382.015 639.225 382.025 639.235 382.025C639.255 382.015 639.265 382 639.265 381.98V381.515ZM639.175 386.555C639.205 386.395 639.225 386.225 639.235 386.045C639.255 385.865 639.265 385.565 639.265 385.145C639.265 384.725 639.255 384.43 639.235 384.26C639.225 384.08 639.2 383.91 639.16 383.75C639.08 383.38 638.9 383.08 638.62 382.85C638.34 382.61 637.99 382.49 637.57 382.49C637.15 382.49 636.8 382.61 636.52 382.85C636.24 383.08 636.04 383.38 635.92 383.75C635.81 384.05 635.755 384.515 635.755 385.145C635.755 385.835 635.805 386.305 635.905 386.555C636.005 386.925 636.2 387.23 636.49 387.47C636.79 387.7 637.15 387.815 637.57 387.815C638.01 387.815 638.365 387.7 638.635 387.47C638.915 387.23 639.095 386.925 639.175 386.555Z" fill="#A3A3A3"/>
<circle cx="630.5" cy="358.5" r="3.5" stroke="#B9BBBD" stroke-width="2"/>
<path d="M686.47 389.12C685.7 389.12 685.03 389 684.46 388.76C683.9 388.52 683.465 388.18 683.155 387.74C682.855 387.3 682.705 386.785 682.705 386.195V385.76C682.705 385.66 682.755 385.61 682.855 385.61H683.95C684.05 385.61 684.1 385.66 684.1 385.76V386.12C684.1 386.63 684.32 387.05 684.76 387.38C685.2 387.71 685.805 387.875 686.575 387.875C687.265 387.875 687.785 387.73 688.135 387.44C688.485 387.15 688.66 386.77 688.66 386.3C688.66 385.99 688.57 385.725 688.39 385.505C688.21 385.285 687.945 385.085 687.595 384.905C687.255 384.715 686.755 384.49 686.095 384.23C685.365 383.95 684.785 383.695 684.355 383.465C683.935 383.235 683.585 382.935 683.305 382.565C683.025 382.185 682.885 381.71 682.885 381.14C682.885 380.28 683.19 379.605 683.8 379.115C684.42 378.625 685.255 378.38 686.305 378.38C687.045 378.38 687.695 378.505 688.255 378.755C688.815 379.005 689.245 379.355 689.545 379.805C689.855 380.255 690.01 380.775 690.01 381.365V381.665C690.01 381.765 689.96 381.815 689.86 381.815H688.735C688.635 381.815 688.585 381.765 688.585 381.665V381.44C688.585 380.92 688.375 380.49 687.955 380.15C687.545 379.8 686.975 379.625 686.245 379.625C685.625 379.625 685.145 379.755 684.805 380.015C684.465 380.265 684.295 380.63 684.295 381.11C684.295 381.44 684.38 381.71 684.55 381.92C684.72 382.13 684.97 382.32 685.3 382.49C685.64 382.65 686.155 382.86 686.845 383.12C687.555 383.4 688.13 383.66 688.57 383.9C689.01 384.13 689.375 384.44 689.665 384.83C689.955 385.21 690.1 385.685 690.1 386.255C690.1 387.135 689.775 387.835 689.125 388.355C688.485 388.865 687.6 389.12 686.47 389.12ZM698.048 384.23C698.088 384.64 698.103 385.1 698.093 385.61C698.093 385.71 698.043 385.76 697.943 385.76H693.158C693.118 385.76 693.098 385.78 693.098 385.82C693.098 386.16 693.128 386.42 693.188 386.6C693.298 387 693.518 387.315 693.848 387.545C694.188 387.765 694.613 387.875 695.123 387.875C695.863 387.875 696.433 387.57 696.833 386.96C696.883 386.86 696.948 386.845 697.028 386.915L697.883 387.485C697.953 387.545 697.968 387.61 697.928 387.68C697.648 388.13 697.248 388.485 696.728 388.745C696.218 389.005 695.638 389.135 694.988 389.135C694.258 389.135 693.643 388.975 693.143 388.655C692.643 388.335 692.268 387.88 692.018 387.29C691.778 386.7 691.658 385.985 691.658 385.145C691.658 384.415 691.713 383.86 691.823 383.48C692.003 382.79 692.363 382.245 692.903 381.845C693.443 381.445 694.098 381.245 694.868 381.245C695.878 381.245 696.633 381.5 697.133 382.01C697.633 382.51 697.938 383.25 698.048 384.23ZM694.868 382.49C694.438 382.49 694.083 382.6 693.803 382.82C693.523 383.03 693.333 383.315 693.233 383.675C693.163 383.895 693.118 384.175 693.098 384.515C693.098 384.555 693.118 384.575 693.158 384.575H696.593C696.633 384.575 696.653 384.555 696.653 384.515C696.633 384.185 696.603 383.94 696.563 383.78C696.463 383.39 696.263 383.08 695.963 382.85C695.673 382.61 695.308 382.49 694.868 382.49ZM706.105 383.285C706.295 383.825 706.39 384.465 706.39 385.205C706.39 385.905 706.31 386.51 706.15 387.02C705.94 387.69 705.595 388.21 705.115 388.58C704.635 388.94 704.02 389.12 703.27 389.12C702.93 389.12 702.605 389.055 702.295 388.925C701.995 388.785 701.735 388.59 701.515 388.34C701.495 388.32 701.475 388.315 701.455 388.325C701.445 388.335 701.44 388.35 701.44 388.37V391.715C701.44 391.815 701.39 391.865 701.29 391.865H700.15C700.05 391.865 700 391.815 700 391.715V381.515C700 381.415 700.05 381.365 700.15 381.365H701.29C701.39 381.365 701.44 381.415 701.44 381.515V382.01C701.44 382.03 701.445 382.045 701.455 382.055C701.475 382.065 701.495 382.06 701.515 382.04C701.735 381.79 701.995 381.595 702.295 381.455C702.595 381.315 702.92 381.245 703.27 381.245C703.99 381.245 704.585 381.425 705.055 381.785C705.535 382.135 705.885 382.635 706.105 383.285ZM704.455 387.155C704.775 386.675 704.935 386.015 704.935 385.175C704.935 384.405 704.81 383.785 704.56 383.315C704.27 382.765 703.795 382.49 703.135 382.49C702.555 382.49 702.115 382.76 701.815 383.3C701.575 383.73 701.455 384.36 701.455 385.19C701.455 386.03 701.585 386.67 701.845 387.11C702.135 387.62 702.56 387.875 703.12 387.875C703.72 387.875 704.165 387.635 704.455 387.155ZM712.04 382.4C712.04 382.5 711.99 382.55 711.89 382.55H710.27C710.23 382.55 710.21 382.57 710.21 382.61V386.585C710.21 387.005 710.305 387.31 710.495 387.5C710.685 387.68 710.98 387.77 711.38 387.77H711.815C711.915 387.77 711.965 387.82 711.965 387.92V388.85C711.965 388.95 711.915 389 711.815 389C711.495 389.02 711.265 389.03 711.125 389.03C710.365 389.03 709.79 388.895 709.4 388.625C709.02 388.345 708.83 387.835 708.83 387.095V382.61C708.83 382.57 708.81 382.55 708.77 382.55H707.855C707.755 382.55 707.705 382.5 707.705 382.4V381.515C707.705 381.415 707.755 381.365 707.855 381.365H708.77C708.81 381.365 708.83 381.345 708.83 381.305V379.535C708.83 379.435 708.88 379.385 708.98 379.385H710.06C710.16 379.385 710.21 379.435 710.21 379.535V381.305C710.21 381.345 710.23 381.365 710.27 381.365H711.89C711.99 381.365 712.04 381.415 712.04 381.515V382.4Z" fill="#A3A3A3"/>
<circle cx="696.5" cy="358.5" r="3.5" stroke="#B9BBBD" stroke-width="2"/>
<path d="M757.65 389.135C756.92 389.135 756.275 388.985 755.715 388.685C755.155 388.385 754.72 387.965 754.41 387.425C754.1 386.875 753.945 386.245 753.945 385.535V381.965C753.945 381.255 754.1 380.63 754.41 380.09C754.72 379.55 755.155 379.13 755.715 378.83C756.275 378.53 756.92 378.38 757.65 378.38C758.39 378.38 759.04 378.53 759.6 378.83C760.16 379.13 760.595 379.55 760.905 380.09C761.215 380.63 761.37 381.255 761.37 381.965V385.535C761.37 386.245 761.215 386.875 760.905 387.425C760.595 387.965 760.16 388.385 759.6 388.685C759.04 388.985 758.39 389.135 757.65 389.135ZM757.65 387.89C758.33 387.89 758.88 387.68 759.3 387.26C759.72 386.84 759.93 386.285 759.93 385.595V381.95C759.93 381.25 759.72 380.69 759.3 380.27C758.88 379.84 758.33 379.625 757.65 379.625C756.97 379.625 756.42 379.84 756 380.27C755.59 380.69 755.385 381.25 755.385 381.95V385.595C755.385 386.285 755.59 386.84 756 387.26C756.42 387.68 756.97 387.89 757.65 387.89ZM766.426 389.12C765.666 389.12 765.016 388.93 764.476 388.55C763.936 388.16 763.566 387.635 763.366 386.975C763.216 386.515 763.141 385.91 763.141 385.16C763.141 384.47 763.216 383.865 763.366 383.345C763.566 382.705 763.936 382.195 764.476 381.815C765.026 381.435 765.676 381.245 766.426 381.245C767.176 381.245 767.831 381.435 768.391 381.815C768.951 382.195 769.316 382.675 769.486 383.255C769.546 383.415 769.586 383.58 769.606 383.75C769.606 383.83 769.561 383.88 769.471 383.9L768.346 384.065H768.316C768.246 384.065 768.196 384.02 768.166 383.93L768.121 383.69C768.041 383.35 767.846 383.065 767.536 382.835C767.226 382.605 766.851 382.49 766.411 382.49C765.981 382.49 765.616 382.605 765.316 382.835C765.016 383.065 764.821 383.37 764.731 383.75C764.641 384.11 764.596 384.585 764.596 385.175C764.596 385.755 764.641 386.225 764.731 386.585C764.831 386.985 765.026 387.3 765.316 387.53C765.616 387.76 765.981 387.875 766.411 387.875C766.851 387.875 767.226 387.76 767.536 387.53C767.856 387.3 768.056 387 768.136 386.63C768.146 386.62 768.146 386.61 768.136 386.6C768.136 386.58 768.141 386.565 768.151 386.555V386.495C768.181 386.415 768.236 386.385 768.316 386.405L769.441 386.585C769.521 386.605 769.561 386.645 769.561 386.705V386.765C769.561 386.855 769.536 386.965 769.486 387.095C769.316 387.705 768.951 388.195 768.391 388.565C767.831 388.935 767.176 389.12 766.426 389.12ZM775.027 382.4C775.027 382.5 774.977 382.55 774.877 382.55H773.257C773.217 382.55 773.197 382.57 773.197 382.61V386.585C773.197 387.005 773.292 387.31 773.482 387.5C773.672 387.68 773.967 387.77 774.367 387.77H774.802C774.902 387.77 774.952 387.82 774.952 387.92V388.85C774.952 388.95 774.902 389 774.802 389C774.482 389.02 774.252 389.03 774.112 389.03C773.352 389.03 772.777 388.895 772.387 388.625C772.007 388.345 771.817 387.835 771.817 387.095V382.61C771.817 382.57 771.797 382.55 771.757 382.55H770.842C770.742 382.55 770.692 382.5 770.692 382.4V381.515C770.692 381.415 770.742 381.365 770.842 381.365H771.757C771.797 381.365 771.817 381.345 771.817 381.305V379.535C771.817 379.435 771.867 379.385 771.967 379.385H773.047C773.147 379.385 773.197 379.435 773.197 379.535V381.305C773.197 381.345 773.217 381.365 773.257 381.365H774.877C774.977 381.365 775.027 381.415 775.027 381.515V382.4Z" fill="#A3A3A3"/>
<circle cx="767.5" cy="358.5" r="4.5" fill="#FF5B5B"/>
<path d="M823.41 378.65C823.41 378.55 823.46 378.5 823.56 378.5H824.7C824.8 378.5 824.85 378.55 824.85 378.65V388.85C824.85 388.95 824.8 389 824.7 389H823.605C823.535 389 823.475 388.965 823.425 388.895L818.73 381.23C818.72 381.2 818.705 381.19 818.685 381.2C818.665 381.2 818.655 381.215 818.655 381.245L818.67 388.85C818.67 388.95 818.62 389 818.52 389H817.38C817.28 389 817.23 388.95 817.23 388.85V378.65C817.23 378.55 817.28 378.5 817.38 378.5H818.49C818.56 378.5 818.62 378.535 818.67 378.605L823.35 386.27C823.36 386.3 823.375 386.315 823.395 386.315C823.415 386.305 823.425 386.285 823.425 386.255L823.41 378.65ZM830.263 389.12C829.523 389.12 828.878 388.935 828.328 388.565C827.778 388.185 827.393 387.66 827.173 386.99C826.993 386.45 826.903 385.84 826.903 385.16C826.903 384.45 826.988 383.85 827.158 383.36C827.378 382.7 827.763 382.185 828.313 381.815C828.863 381.435 829.518 381.245 830.278 381.245C830.998 381.245 831.623 381.435 832.153 381.815C832.693 382.185 833.078 382.695 833.308 383.345C833.488 383.855 833.578 384.455 833.578 385.145C833.578 385.845 833.488 386.46 833.308 386.99C833.088 387.66 832.708 388.185 832.168 388.565C831.628 388.935 830.993 389.12 830.263 389.12ZM830.263 387.875C830.663 387.875 831.013 387.765 831.313 387.545C831.613 387.315 831.828 386.995 831.958 386.585C832.068 386.205 832.123 385.735 832.123 385.175C832.123 384.615 832.073 384.15 831.973 383.78C831.843 383.37 831.628 383.055 831.328 382.835C831.028 382.605 830.663 382.49 830.233 382.49C829.823 382.49 829.468 382.605 829.168 382.835C828.868 383.055 828.653 383.37 828.523 383.78C828.413 384.13 828.358 384.595 828.358 385.175C828.358 385.755 828.413 386.225 828.523 386.585C828.643 386.995 828.853 387.315 829.153 387.545C829.463 387.765 829.833 387.875 830.263 387.875ZM837.122 389C837.032 389 836.972 388.96 836.942 388.88L834.497 381.53L834.482 381.47C834.482 381.4 834.527 381.365 834.617 381.365H835.877C835.967 381.365 836.027 381.405 836.057 381.485L837.707 386.915C837.717 386.935 837.732 386.945 837.752 386.945C837.772 386.945 837.787 386.935 837.797 386.915L839.432 381.485C839.462 381.405 839.522 381.365 839.612 381.365L840.872 381.38C840.982 381.38 841.022 381.435 840.992 381.545L838.562 388.88C838.532 388.96 838.472 389 838.382 389H837.122Z" fill="#A3A3A3"/>
<circle cx="830.5" cy="358.5" r="3.5" stroke="#B9BBBD" stroke-width="2"/>
<path d="M883.38 389C883.28 389 883.23 388.95 883.23 388.85V378.65C883.23 378.55 883.28 378.5 883.38 378.5H887.01C888.05 378.5 888.88 378.775 889.5 379.325C890.12 379.865 890.43 380.59 890.43 381.5V386C890.43 386.91 890.12 387.64 889.5 388.19C888.88 388.73 888.05 389 887.01 389H883.38ZM884.67 387.695C884.67 387.735 884.69 387.755 884.73 387.755H887.07C887.65 387.755 888.11 387.58 888.45 387.23C888.8 386.87 888.98 386.39 888.99 385.79V381.71C888.99 381.11 888.815 380.635 888.465 380.285C888.125 379.925 887.66 379.745 887.07 379.745H884.73C884.69 379.745 884.67 379.765 884.67 379.805V387.695ZM898.502 384.23C898.542 384.64 898.557 385.1 898.547 385.61C898.547 385.71 898.497 385.76 898.397 385.76H893.612C893.572 385.76 893.552 385.78 893.552 385.82C893.552 386.16 893.582 386.42 893.642 386.6C893.752 387 893.972 387.315 894.302 387.545C894.642 387.765 895.067 387.875 895.577 387.875C896.317 387.875 896.887 387.57 897.287 386.96C897.337 386.86 897.402 386.845 897.482 386.915L898.337 387.485C898.407 387.545 898.422 387.61 898.382 387.68C898.102 388.13 897.702 388.485 897.182 388.745C896.672 389.005 896.092 389.135 895.442 389.135C894.712 389.135 894.097 388.975 893.597 388.655C893.097 388.335 892.722 387.88 892.472 387.29C892.232 386.7 892.112 385.985 892.112 385.145C892.112 384.415 892.167 383.86 892.277 383.48C892.457 382.79 892.817 382.245 893.357 381.845C893.897 381.445 894.552 381.245 895.322 381.245C896.332 381.245 897.087 381.5 897.587 382.01C898.087 382.51 898.392 383.25 898.502 384.23ZM895.322 382.49C894.892 382.49 894.537 382.6 894.257 382.82C893.977 383.03 893.787 383.315 893.687 383.675C893.617 383.895 893.572 384.175 893.552 384.515C893.552 384.555 893.572 384.575 893.612 384.575H897.047C897.087 384.575 897.107 384.555 897.107 384.515C897.087 384.185 897.057 383.94 897.017 383.78C896.917 383.39 896.717 383.08 896.417 382.85C896.127 382.61 895.762 382.49 895.322 382.49ZM902.932 389.09C902.332 389.09 901.802 389 901.342 388.82C900.892 388.64 900.542 388.395 900.292 388.085C900.042 387.765 899.917 387.415 899.917 387.035V386.87C899.917 386.77 899.967 386.72 900.067 386.72H901.147C901.247 386.72 901.297 386.77 901.297 386.87V386.945C901.297 387.225 901.447 387.47 901.747 387.68C902.057 387.89 902.447 387.995 902.917 387.995C903.367 387.995 903.732 387.9 904.012 387.71C904.292 387.51 904.432 387.26 904.432 386.96C904.432 386.67 904.302 386.455 904.042 386.315C903.782 386.165 903.362 386.01 902.782 385.85C902.212 385.69 901.732 385.53 901.342 385.37C900.962 385.2 900.637 384.965 900.367 384.665C900.107 384.355 899.977 383.96 899.977 383.48C899.977 382.81 900.237 382.28 900.757 381.89C901.287 381.49 901.987 381.29 902.857 381.29C903.437 381.29 903.947 381.385 904.387 381.575C904.837 381.755 905.182 382.01 905.422 382.34C905.662 382.67 905.782 383.04 905.782 383.45V383.495C905.782 383.595 905.732 383.645 905.632 383.645H904.582C904.482 383.645 904.432 383.595 904.432 383.495V383.45C904.432 383.16 904.287 382.92 903.997 382.73C903.717 382.53 903.332 382.43 902.842 382.43C902.402 382.43 902.042 382.515 901.762 382.685C901.492 382.855 901.357 383.085 901.357 383.375C901.357 383.665 901.487 383.885 901.747 384.035C902.017 384.185 902.447 384.345 903.037 384.515C903.617 384.675 904.097 384.835 904.477 384.995C904.867 385.145 905.197 385.375 905.467 385.685C905.737 385.985 905.872 386.38 905.872 386.87C905.872 387.55 905.602 388.09 905.062 388.49C904.532 388.89 903.822 389.09 902.932 389.09Z" fill="#A3A3A3"/>
<circle cx="896.5" cy="358.5" r="3.5" stroke="#B9BBBD" stroke-width="2"/>
<rect x="180" y="106" width="1" height="216" rx="0.5" fill="#F3F2F7"/>
<rect x="245" y="106" width="1" height="216" rx="0.5" fill="#F3F2F7"/>
<rect x="310" y="106" width="1" height="216" rx="0.5" fill="#F3F2F7"/>
<rect x="375" y="106" width="1" height="216" rx="0.5" fill="#F3F2F7"/>
<rect x="440" y="106" width="1" height="216" rx="0.5" fill="#F3F2F7"/>
<rect x="570" y="106" width="1" height="216" rx="0.5" fill="#F3F2F7"/>
<rect x="635" y="106" width="1" height="216" rx="0.5" fill="#F3F2F7"/>
<rect x="700" y="106" width="1" height="216" rx="0.5" fill="#F3F2F7"/>
<rect x="830" y="106" width="1" height="216" rx="0.5" fill="#F3F2F7"/>
<rect x="895" y="106" width="1" height="216" rx="0.5" fill="#F3F2F7"/>
<path d="M506.5 322V133.5" stroke="#2D9CDB" stroke-miterlimit="4.62023" stroke-linecap="round" stroke-dasharray="7 7"/>
<path d="M179.5 311C183 289.333 212.1 249.5 300.5 263.5C411 281 426 128 506 133C586 138 585.5 299 711.5 249C812.3 209 877.167 216.666 897 225.5" stroke="#2D9CDB" stroke-width="3"/>
<circle cx="507" cy="133" r="7.5" fill="#2D9CDB" stroke="white" stroke-width="3"/>
<rect x="465" y="88" width="85" height="22" fill="#2D9CDB" fill-opacity="0.15"/>
<path d="M483.276 100.744C483.276 101.376 483.08 101.896 482.688 102.304C482.296 102.712 481.752 102.96 481.056 103.048C481.016 103.064 480.996 103.088 480.996 103.12L481.008 103.912C481.008 103.952 480.992 103.984 480.96 104.008C480.936 104.04 480.904 104.056 480.864 104.056H479.928C479.888 104.056 479.852 104.04 479.82 104.008C479.796 103.984 479.784 103.952 479.784 103.912L479.796 103.108C479.796 103.076 479.776 103.052 479.736 103.036C479.04 102.924 478.492 102.664 478.092 102.256C477.7 101.84 477.504 101.316 477.504 100.684V100.384C477.504 100.344 477.516 100.312 477.54 100.288C477.572 100.256 477.608 100.24 477.648 100.24H478.656C478.696 100.24 478.728 100.256 478.752 100.288C478.784 100.312 478.8 100.344 478.8 100.384V100.612C478.8 100.98 478.956 101.288 479.268 101.536C479.58 101.776 480.004 101.896 480.54 101.896C481.012 101.896 481.364 101.792 481.596 101.584C481.836 101.376 481.956 101.108 481.956 100.78C481.956 100.556 481.892 100.368 481.764 100.216C481.636 100.056 481.448 99.916 481.2 99.796C480.96 99.668 480.6 99.504 480.12 99.304C479.584 99.096 479.148 98.9 478.812 98.716C478.476 98.532 478.196 98.284 477.972 97.972C477.748 97.652 477.636 97.256 477.636 96.784C477.636 96.176 477.82 95.676 478.188 95.284C478.564 94.892 479.072 94.648 479.712 94.552C479.752 94.536 479.772 94.512 479.772 94.48L479.748 93.592C479.748 93.552 479.76 93.52 479.784 93.496C479.816 93.464 479.852 93.448 479.892 93.448H480.828C480.868 93.448 480.9 93.464 480.924 93.496C480.956 93.52 480.972 93.552 480.972 93.592L480.948 94.492C480.948 94.524 480.968 94.548 481.008 94.564C481.688 94.676 482.224 94.948 482.616 95.38C483.016 95.812 483.216 96.344 483.216 96.976V97.18C483.216 97.22 483.2 97.256 483.168 97.288C483.144 97.312 483.112 97.324 483.072 97.324H482.052C482.012 97.324 481.976 97.312 481.944 97.288C481.92 97.256 481.908 97.22 481.908 97.18V97.048C481.908 96.672 481.76 96.356 481.464 96.1C481.176 95.836 480.776 95.704 480.264 95.704C479.84 95.704 479.512 95.796 479.28 95.98C479.048 96.164 478.932 96.424 478.932 96.76C478.932 97 478.992 97.196 479.112 97.348C479.24 97.5 479.424 97.64 479.664 97.768C479.912 97.888 480.288 98.044 480.792 98.236C481.336 98.452 481.768 98.648 482.088 98.824C482.416 99 482.696 99.248 482.928 99.568C483.16 99.88 483.276 100.272 483.276 100.744ZM491.731 99.004C491.891 99.388 491.971 99.828 491.971 100.324C491.971 100.772 491.903 101.168 491.767 101.512C491.583 102.016 491.279 102.408 490.855 102.688C490.431 102.96 489.919 103.096 489.319 103.096C488.727 103.096 488.211 102.948 487.771 102.652C487.339 102.348 487.031 101.94 486.847 101.428C486.751 101.18 486.695 100.856 486.679 100.456C486.679 100.36 486.727 100.312 486.823 100.312H487.939C488.035 100.312 488.083 100.36 488.083 100.456C488.099 100.712 488.139 100.916 488.203 101.068C488.275 101.324 488.407 101.528 488.599 101.68C488.799 101.824 489.039 101.896 489.319 101.896C489.847 101.896 490.211 101.656 490.411 101.176C490.515 100.944 490.567 100.644 490.567 100.276C490.567 99.868 490.507 99.532 490.387 99.268C490.179 98.82 489.819 98.596 489.307 98.596C489.171 98.596 488.987 98.676 488.755 98.836C488.723 98.852 488.695 98.86 488.671 98.86C488.631 98.86 488.591 98.836 488.551 98.788L487.999 98.02C487.975 97.98 487.963 97.948 487.963 97.924C487.963 97.884 487.979 97.848 488.011 97.816L489.991 95.872C490.007 95.856 490.011 95.84 490.003 95.824C489.995 95.808 489.979 95.8 489.955 95.8H486.955C486.915 95.8 486.879 95.788 486.847 95.764C486.823 95.732 486.811 95.696 486.811 95.656V94.744C486.811 94.704 486.823 94.672 486.847 94.648C486.879 94.616 486.915 94.6 486.955 94.6H491.743C491.783 94.6 491.815 94.616 491.839 94.648C491.871 94.672 491.887 94.704 491.887 94.744V95.788C491.887 95.86 491.863 95.92 491.815 95.968L490.099 97.696C490.067 97.728 490.083 97.752 490.147 97.768C490.891 97.872 491.419 98.284 491.731 99.004ZM498.166 99.364C498.342 99.716 498.43 100.12 498.43 100.576C498.43 101.056 498.326 101.492 498.118 101.884C497.91 102.26 497.606 102.556 497.206 102.772C496.806 102.988 496.334 103.096 495.79 103.096C495.254 103.096 494.778 102.992 494.362 102.784C493.946 102.568 493.634 102.256 493.426 101.848C493.218 101.472 493.114 101.044 493.114 100.564C493.114 100.132 493.206 99.724 493.39 99.34C493.55 99.012 493.778 98.764 494.074 98.596C494.114 98.572 494.118 98.544 494.086 98.512C493.886 98.368 493.706 98.168 493.546 97.912C493.338 97.576 493.234 97.204 493.234 96.796C493.234 96.292 493.382 95.84 493.678 95.44C493.894 95.128 494.186 94.888 494.554 94.72C494.922 94.544 495.334 94.456 495.79 94.456C496.262 94.456 496.674 94.544 497.026 94.72C497.386 94.888 497.674 95.128 497.89 95.44C498.17 95.848 498.31 96.3 498.31 96.796C498.31 97.236 498.202 97.62 497.986 97.948C497.834 98.172 497.658 98.356 497.458 98.5C497.426 98.532 497.426 98.56 497.458 98.584C497.762 98.76 497.998 99.02 498.166 99.364ZM494.758 96.268C494.662 96.476 494.614 96.66 494.614 96.82C494.614 97.092 494.682 97.336 494.818 97.552C495.01 97.88 495.33 98.044 495.778 98.044C496.21 98.044 496.538 97.876 496.762 97.54C496.882 97.364 496.942 97.12 496.942 96.808C496.942 96.632 496.898 96.448 496.81 96.256C496.706 96.072 496.566 95.928 496.39 95.824C496.214 95.712 496.006 95.656 495.766 95.656C495.542 95.656 495.342 95.712 495.166 95.824C494.99 95.928 494.854 96.076 494.758 96.268ZM496.774 101.404C496.942 101.172 497.026 100.856 497.026 100.456C497.026 100.088 496.962 99.8 496.834 99.592C496.634 99.224 496.282 99.04 495.778 99.04C495.306 99.04 494.962 99.216 494.746 99.568C494.61 99.784 494.542 100.084 494.542 100.468C494.542 100.836 494.614 101.136 494.758 101.368C494.974 101.72 495.318 101.896 495.79 101.896C496.238 101.896 496.566 101.732 496.774 101.404ZM500.58 103.024C500.332 103.024 500.128 102.944 499.968 102.784C499.808 102.624 499.728 102.42 499.728 102.172C499.728 101.924 499.808 101.72 499.968 101.56C500.128 101.4 500.332 101.32 500.58 101.32C500.828 101.32 501.028 101.4 501.18 101.56C501.34 101.72 501.42 101.924 501.42 102.172C501.42 102.42 501.34 102.624 501.18 102.784C501.02 102.944 500.82 103.024 500.58 103.024ZM503.886 103C503.766 103 503.726 102.944 503.766 102.832L506.418 95.872C506.434 95.824 506.418 95.8 506.37 95.8H503.79C503.75 95.8 503.73 95.82 503.73 95.86V96.4C503.73 96.44 503.714 96.476 503.682 96.508C503.658 96.532 503.626 96.544 503.586 96.544H502.722C502.682 96.544 502.646 96.532 502.614 96.508C502.59 96.476 502.578 96.44 502.578 96.4V94.744C502.578 94.704 502.59 94.672 502.614 94.648C502.646 94.616 502.682 94.6 502.722 94.6H507.774C507.814 94.6 507.846 94.616 507.87 94.648C507.902 94.672 507.918 94.704 507.918 94.744V95.704C507.918 95.752 507.906 95.812 507.882 95.884L505.242 102.88C505.218 102.96 505.162 103 505.074 103H503.886ZM513.861 99.232C513.965 99.592 514.017 99.964 514.017 100.348C514.017 100.724 513.965 101.08 513.861 101.416C513.693 101.928 513.385 102.336 512.937 102.64C512.489 102.936 511.965 103.084 511.365 103.084C510.773 103.084 510.257 102.94 509.817 102.652C509.377 102.356 509.069 101.96 508.893 101.464C508.829 101.288 508.777 101.088 508.737 100.864V100.84C508.737 100.752 508.785 100.708 508.881 100.708H510.021C510.101 100.708 510.153 100.752 510.177 100.84C510.185 100.888 510.205 100.96 510.237 101.056C510.325 101.32 510.465 101.524 510.657 101.668C510.849 101.812 511.081 101.884 511.353 101.884C511.633 101.884 511.873 101.808 512.073 101.656C512.273 101.496 512.413 101.28 512.493 101.008C512.565 100.816 512.601 100.596 512.601 100.348C512.601 100.116 512.569 99.888 512.505 99.664C512.449 99.4 512.321 99.2 512.121 99.064C511.921 98.92 511.677 98.848 511.389 98.848C511.117 98.848 510.869 98.912 510.645 99.04C510.429 99.16 510.289 99.32 510.225 99.52C510.193 99.6 510.137 99.64 510.057 99.64H508.893C508.853 99.64 508.817 99.628 508.785 99.604C508.761 99.572 508.749 99.536 508.749 99.496V94.744C508.749 94.704 508.761 94.672 508.785 94.648C508.817 94.616 508.853 94.6 508.893 94.6H513.561C513.601 94.6 513.633 94.616 513.657 94.648C513.689 94.672 513.705 94.704 513.705 94.744V95.656C513.705 95.696 513.689 95.732 513.657 95.764C513.633 95.788 513.601 95.8 513.561 95.8H510.201C510.161 95.8 510.141 95.82 510.141 95.86L510.129 98.02C510.129 98.052 510.137 98.072 510.153 98.08C510.169 98.08 510.185 98.072 510.201 98.056C510.577 97.776 511.029 97.636 511.557 97.636C512.117 97.636 512.601 97.78 513.009 98.068C513.425 98.348 513.709 98.736 513.861 99.232ZM520.008 99.004C520.168 99.388 520.248 99.828 520.248 100.324C520.248 100.772 520.18 101.168 520.044 101.512C519.86 102.016 519.556 102.408 519.132 102.688C518.708 102.96 518.196 103.096 517.596 103.096C517.004 103.096 516.488 102.948 516.048 102.652C515.616 102.348 515.308 101.94 515.124 101.428C515.028 101.18 514.972 100.856 514.956 100.456C514.956 100.36 515.004 100.312 515.1 100.312H516.216C516.312 100.312 516.36 100.36 516.36 100.456C516.376 100.712 516.416 100.916 516.48 101.068C516.552 101.324 516.684 101.528 516.876 101.68C517.076 101.824 517.316 101.896 517.596 101.896C518.124 101.896 518.488 101.656 518.688 101.176C518.792 100.944 518.844 100.644 518.844 100.276C518.844 99.868 518.784 99.532 518.664 99.268C518.456 98.82 518.096 98.596 517.584 98.596C517.448 98.596 517.264 98.676 517.032 98.836C517 98.852 516.972 98.86 516.948 98.86C516.908 98.86 516.868 98.836 516.828 98.788L516.276 98.02C516.252 97.98 516.24 97.948 516.24 97.924C516.24 97.884 516.256 97.848 516.288 97.816L518.268 95.872C518.284 95.856 518.288 95.84 518.28 95.824C518.272 95.808 518.256 95.8 518.232 95.8H515.232C515.192 95.8 515.156 95.788 515.124 95.764C515.1 95.732 515.088 95.696 515.088 95.656V94.744C515.088 94.704 515.1 94.672 515.124 94.648C515.156 94.616 515.192 94.6 515.232 94.6H520.02C520.06 94.6 520.092 94.616 520.116 94.648C520.148 94.672 520.164 94.704 520.164 94.744V95.788C520.164 95.86 520.14 95.92 520.092 95.968L518.376 97.696C518.344 97.728 518.36 97.752 518.424 97.768C519.168 97.872 519.696 98.284 520.008 99.004ZM521.595 104.092C521.499 104.092 521.455 104.04 521.463 103.936L521.907 101.248C521.915 101.16 521.967 101.116 522.063 101.116H523.023C523.127 101.116 523.167 101.168 523.143 101.272L522.435 103.972C522.411 104.052 522.355 104.092 522.267 104.092H521.595ZM527.084 103.132C526.244 103.132 525.576 102.896 525.08 102.424C524.592 101.944 524.348 101.3 524.348 100.492V97.108C524.348 96.308 524.592 95.676 525.08 95.212C525.576 94.74 526.244 94.504 527.084 94.504C527.924 94.504 528.592 94.74 529.088 95.212C529.592 95.676 529.844 96.308 529.844 97.108V100.492C529.844 101.3 529.592 101.944 529.088 102.424C528.592 102.896 527.924 103.132 527.084 103.132ZM527.084 101.92C527.5 101.92 527.832 101.8 528.08 101.56C528.328 101.312 528.452 100.98 528.452 100.564V97.06C528.452 96.644 528.328 96.316 528.08 96.076C527.832 95.828 527.5 95.704 527.084 95.704C526.676 95.704 526.348 95.828 526.1 96.076C525.86 96.316 525.74 96.644 525.74 97.06V100.564C525.74 100.98 525.86 101.312 526.1 101.56C526.348 101.8 526.676 101.92 527.084 101.92ZM533.904 103.132C533.064 103.132 532.396 102.896 531.9 102.424C531.412 101.944 531.168 101.3 531.168 100.492V97.108C531.168 96.308 531.412 95.676 531.9 95.212C532.396 94.74 533.064 94.504 533.904 94.504C534.744 94.504 535.412 94.74 535.908 95.212C536.412 95.676 536.664 96.308 536.664 97.108V100.492C536.664 101.3 536.412 101.944 535.908 102.424C535.412 102.896 534.744 103.132 533.904 103.132ZM533.904 101.92C534.32 101.92 534.652 101.8 534.9 101.56C535.148 101.312 535.272 100.98 535.272 100.564V97.06C535.272 96.644 535.148 96.316 534.9 96.076C534.652 95.828 534.32 95.704 533.904 95.704C533.496 95.704 533.168 95.828 532.92 96.076C532.68 96.316 532.56 96.644 532.56 97.06V100.564C532.56 100.98 532.68 101.312 532.92 101.56C533.168 101.8 533.496 101.92 533.904 101.92Z" fill="#2D9CDB"/>
<path d="M183 237.5C185.333 218.833 221 149.5 236.5 206.5C255.141 275.049 294.475 322.376 308 299.5C348.5 231 360.691 211.038 378.5 180C448.5 58.0001 464 282 507 237.5C562.751 179.804 627.5 96.0001 676 172C720.855 242.287 754.739 305.598 769.5 264C786 217.5 841.5 129 895.5 142" stroke="#FF5B5B" stroke-width="3"/>
<path d="M767 325V106" stroke="#2D9CDB" stroke-miterlimit="4.62023" stroke-linecap="round" stroke-dasharray="7 7"/>
<path d="M86.056 43.2C86.136 43.2 86.2 43.232 86.248 43.296C86.312 43.344 86.344 43.408 86.344 43.488V45.84C86.344 45.92 86.312 45.992 86.248 46.056C86.2 46.104 86.136 46.128 86.056 46.128H81.76C81.68 46.128 81.64 46.168 81.64 46.248V59.712C81.64 59.792 81.608 59.864 81.544 59.928C81.496 59.976 81.432 60 81.352 60H78.544C78.464 60 78.392 59.976 78.328 59.928C78.28 59.864 78.256 59.792 78.256 59.712V46.248C78.256 46.168 78.216 46.128 78.136 46.128H73.96C73.88 46.128 73.808 46.104 73.744 46.056C73.696 45.992 73.672 45.92 73.672 45.84V43.488C73.672 43.408 73.696 43.344 73.744 43.296C73.808 43.232 73.88 43.2 73.96 43.2H86.056ZM91.7194 60.192C90.3754 60.192 89.2234 59.84 88.2634 59.136C87.3034 58.432 86.6474 57.472 86.2954 56.256C86.0714 55.504 85.9594 54.688 85.9594 53.808C85.9594 52.864 86.0714 52.016 86.2954 51.264C86.6634 50.08 87.3274 49.152 88.2874 48.48C89.2474 47.808 90.3994 47.472 91.7434 47.472C93.0554 47.472 94.1754 47.808 95.1034 48.48C96.0314 49.136 96.6874 50.056 97.0714 51.24C97.3274 52.04 97.4554 52.88 97.4554 53.76C97.4554 54.624 97.3434 55.432 97.1194 56.184C96.7674 57.432 96.1114 58.416 95.1514 59.136C94.2074 59.84 93.0634 60.192 91.7194 60.192ZM91.7194 57.288C92.2474 57.288 92.6954 57.128 93.0634 56.808C93.4314 56.488 93.6954 56.048 93.8554 55.488C93.9834 54.976 94.0474 54.416 94.0474 53.808C94.0474 53.136 93.9834 52.568 93.8554 52.104C93.6794 51.56 93.4074 51.136 93.0394 50.832C92.6714 50.528 92.2234 50.376 91.6954 50.376C91.1514 50.376 90.6954 50.528 90.3274 50.832C89.9754 51.136 89.7194 51.56 89.5594 52.104C89.4314 52.488 89.3674 53.056 89.3674 53.808C89.3674 54.528 89.4234 55.088 89.5354 55.488C89.6954 56.048 89.9594 56.488 90.3274 56.808C90.7114 57.128 91.1754 57.288 91.7194 57.288ZM106.383 50.088C106.383 50.168 106.351 50.24 106.287 50.304C106.239 50.352 106.175 50.376 106.095 50.376H103.791C103.711 50.376 103.671 50.416 103.671 50.496V55.584C103.671 56.112 103.775 56.504 103.983 56.76C104.207 57.016 104.559 57.144 105.039 57.144H105.831C105.911 57.144 105.975 57.176 106.023 57.24C106.087 57.288 106.119 57.352 106.119 57.432V59.712C106.119 59.888 106.023 59.992 105.831 60.024C105.159 60.056 104.679 60.072 104.391 60.072C103.063 60.072 102.071 59.856 101.415 59.424C100.759 58.976 100.423 58.144 100.407 56.928V50.496C100.407 50.416 100.367 50.376 100.287 50.376H98.9187C98.8387 50.376 98.7667 50.352 98.7027 50.304C98.6547 50.24 98.6307 50.168 98.6307 50.088V47.952C98.6307 47.872 98.6547 47.808 98.7027 47.76C98.7667 47.696 98.8387 47.664 98.9187 47.664H100.287C100.367 47.664 100.407 47.624 100.407 47.544V44.688C100.407 44.608 100.431 44.544 100.479 44.496C100.543 44.432 100.615 44.4 100.695 44.4H103.383C103.463 44.4 103.527 44.432 103.575 44.496C103.639 44.544 103.671 44.608 103.671 44.688V47.544C103.671 47.624 103.711 47.664 103.791 47.664H106.095C106.175 47.664 106.239 47.696 106.287 47.76C106.351 47.808 106.383 47.872 106.383 47.952V50.088ZM113.34 47.472C114.38 47.472 115.308 47.656 116.124 48.024C116.94 48.376 117.572 48.864 118.02 49.488C118.484 50.112 118.716 50.808 118.716 51.576V59.712C118.716 59.792 118.684 59.864 118.62 59.928C118.572 59.976 118.508 60 118.428 60H115.62C115.54 60 115.468 59.976 115.404 59.928C115.356 59.864 115.332 59.792 115.332 59.712V58.92C115.332 58.872 115.316 58.84 115.284 58.824C115.252 58.808 115.22 58.824 115.188 58.872C114.516 59.752 113.436 60.192 111.948 60.192C110.7 60.192 109.692 59.888 108.924 59.28C108.156 58.672 107.772 57.776 107.772 56.592C107.772 55.36 108.204 54.408 109.068 53.736C109.932 53.048 111.164 52.704 112.764 52.704H115.212C115.292 52.704 115.332 52.664 115.332 52.584V52.056C115.332 51.528 115.172 51.12 114.852 50.832C114.532 50.528 114.052 50.376 113.412 50.376C112.916 50.376 112.5 50.464 112.164 50.64C111.844 50.816 111.636 51.064 111.54 51.384C111.492 51.56 111.388 51.64 111.228 51.624L108.324 51.24C108.132 51.208 108.044 51.136 108.06 51.024C108.124 50.352 108.388 49.744 108.852 49.2C109.332 48.656 109.956 48.232 110.724 47.928C111.508 47.624 112.38 47.472 113.34 47.472ZM112.86 57.672C113.548 57.672 114.132 57.488 114.612 57.12C115.092 56.752 115.332 56.28 115.332 55.704V54.84C115.332 54.76 115.292 54.72 115.212 54.72H113.484C112.764 54.72 112.196 54.856 111.78 55.128C111.38 55.4 111.18 55.784 111.18 56.28C111.18 56.712 111.332 57.056 111.636 57.312C111.94 57.552 112.348 57.672 112.86 57.672ZM121.388 60C121.308 60 121.236 59.976 121.172 59.928C121.124 59.864 121.1 59.792 121.1 59.712V43.488C121.1 43.408 121.124 43.344 121.172 43.296C121.236 43.232 121.308 43.2 121.388 43.2H124.196C124.276 43.2 124.34 43.232 124.388 43.296C124.452 43.344 124.484 43.408 124.484 43.488V59.712C124.484 59.792 124.452 59.864 124.388 59.928C124.34 59.976 124.276 60 124.196 60H121.388ZM141.196 60C141.036 60 140.924 59.928 140.86 59.784L137.86 53.136C137.828 53.072 137.78 53.04 137.716 53.04H135.484C135.404 53.04 135.364 53.08 135.364 53.16V59.712C135.364 59.792 135.332 59.864 135.268 59.928C135.22 59.976 135.156 60 135.076 60H132.268C132.188 60 132.116 59.976 132.052 59.928C132.004 59.864 131.98 59.792 131.98 59.712V43.488C131.98 43.408 132.004 43.344 132.052 43.296C132.116 43.232 132.188 43.2 132.268 43.2H139.132C140.156 43.2 141.052 43.408 141.82 43.824C142.604 44.24 143.204 44.832 143.62 45.6C144.052 46.368 144.268 47.256 144.268 48.264C144.268 49.352 143.996 50.288 143.452 51.072C142.908 51.84 142.148 52.384 141.172 52.704C141.092 52.736 141.068 52.792 141.1 52.872L144.364 59.664C144.396 59.728 144.412 59.776 144.412 59.808C144.412 59.936 144.324 60 144.148 60H141.196ZM135.484 46.104C135.404 46.104 135.364 46.144 135.364 46.224V50.328C135.364 50.408 135.404 50.448 135.484 50.448H138.628C139.3 50.448 139.844 50.248 140.26 49.848C140.692 49.448 140.908 48.928 140.908 48.288C140.908 47.648 140.692 47.128 140.26 46.728C139.844 46.312 139.3 46.104 138.628 46.104H135.484ZM157.262 52.56C157.358 53.168 157.39 53.848 157.358 54.6C157.342 54.792 157.238 54.888 157.046 54.888H149.63C149.534 54.888 149.502 54.928 149.534 55.008C149.582 55.328 149.67 55.648 149.798 55.968C150.214 56.864 151.062 57.312 152.342 57.312C153.366 57.296 154.174 56.88 154.766 56.064C154.83 55.968 154.902 55.92 154.982 55.92C155.03 55.92 155.086 55.952 155.15 56.016L156.878 57.72C156.958 57.8 156.998 57.872 156.998 57.936C156.998 57.968 156.966 58.032 156.902 58.128C156.374 58.784 155.694 59.296 154.862 59.664C154.03 60.016 153.118 60.192 152.126 60.192C150.75 60.192 149.582 59.88 148.622 59.256C147.678 58.632 146.998 57.76 146.582 56.64C146.246 55.84 146.078 54.792 146.078 53.496C146.078 52.616 146.198 51.84 146.438 51.168C146.806 50.032 147.446 49.128 148.358 48.456C149.286 47.784 150.382 47.448 151.646 47.448C153.246 47.448 154.526 47.912 155.486 48.84C156.462 49.768 157.054 51.008 157.262 52.56ZM151.67 50.376C150.662 50.376 149.998 50.848 149.678 51.792C149.614 52 149.558 52.256 149.51 52.56C149.51 52.64 149.55 52.68 149.63 52.68H153.782C153.878 52.68 153.91 52.64 153.878 52.56C153.798 52.096 153.758 51.872 153.758 51.888C153.614 51.408 153.358 51.04 152.99 50.784C152.638 50.512 152.198 50.376 151.67 50.376ZM162.196 60C162.036 60 161.932 59.92 161.884 59.76L158.044 47.976C158.028 47.944 158.02 47.904 158.02 47.856C158.02 47.712 158.108 47.64 158.284 47.64H161.38C161.556 47.64 161.668 47.72 161.716 47.88L163.684 55.152C163.7 55.2 163.724 55.224 163.756 55.224C163.788 55.224 163.812 55.2 163.828 55.152L165.796 47.88C165.844 47.72 165.956 47.64 166.132 47.64L169.228 47.688C169.324 47.688 169.396 47.72 169.444 47.784C169.492 47.832 169.5 47.912 169.468 48.024L165.652 59.76C165.604 59.92 165.5 60 165.34 60H162.196ZM181.356 52.56C181.452 53.168 181.484 53.848 181.452 54.6C181.436 54.792 181.332 54.888 181.14 54.888H173.724C173.628 54.888 173.596 54.928 173.628 55.008C173.676 55.328 173.764 55.648 173.892 55.968C174.308 56.864 175.156 57.312 176.436 57.312C177.46 57.296 178.268 56.88 178.86 56.064C178.924 55.968 178.996 55.92 179.076 55.92C179.124 55.92 179.18 55.952 179.244 56.016L180.972 57.72C181.052 57.8 181.092 57.872 181.092 57.936C181.092 57.968 181.06 58.032 180.996 58.128C180.468 58.784 179.788 59.296 178.956 59.664C178.124 60.016 177.212 60.192 176.22 60.192C174.844 60.192 173.676 59.88 172.715 59.256C171.772 58.632 171.092 57.76 170.676 56.64C170.34 55.84 170.172 54.792 170.172 53.496C170.172 52.616 170.292 51.84 170.532 51.168C170.9 50.032 171.54 49.128 172.452 48.456C173.38 47.784 174.476 47.448 175.74 47.448C177.34 47.448 178.62 47.912 179.58 48.84C180.556 49.768 181.148 51.008 181.356 52.56ZM175.764 50.376C174.756 50.376 174.092 50.848 173.772 51.792C173.708 52 173.652 52.256 173.604 52.56C173.604 52.64 173.644 52.68 173.724 52.68H177.876C177.972 52.68 178.004 52.64 177.972 52.56C177.892 52.096 177.852 51.872 177.852 51.888C177.708 51.408 177.452 51.04 177.084 50.784C176.732 50.512 176.292 50.376 175.764 50.376ZM189.969 47.472C191.249 47.472 192.281 47.864 193.065 48.648C193.849 49.432 194.241 50.496 194.241 51.84V59.712C194.241 59.792 194.209 59.864 194.145 59.928C194.097 59.976 194.033 60 193.953 60H191.145C191.065 60 190.993 59.976 190.929 59.928C190.881 59.864 190.857 59.792 190.857 59.712V52.536C190.857 51.896 190.673 51.376 190.305 50.976C189.953 50.576 189.481 50.376 188.889 50.376C188.297 50.376 187.817 50.576 187.449 50.976C187.097 51.376 186.921 51.896 186.921 52.536V59.712C186.921 59.792 186.889 59.864 186.825 59.928C186.777 59.976 186.713 60 186.633 60H183.825C183.745 60 183.673 59.976 183.609 59.928C183.561 59.864 183.537 59.792 183.537 59.712V47.952C183.537 47.872 183.561 47.808 183.609 47.76C183.673 47.696 183.745 47.664 183.825 47.664H186.633C186.713 47.664 186.777 47.696 186.825 47.76C186.889 47.808 186.921 47.872 186.921 47.952V48.792C186.921 48.84 186.937 48.872 186.969 48.888C187.001 48.904 187.025 48.896 187.041 48.864C187.697 47.936 188.673 47.472 189.969 47.472ZM203.862 47.952C203.862 47.872 203.886 47.808 203.934 47.76C203.998 47.696 204.07 47.664 204.15 47.664H206.958C207.038 47.664 207.102 47.696 207.15 47.76C207.214 47.808 207.246 47.872 207.246 47.952V59.712C207.246 59.792 207.214 59.864 207.15 59.928C207.102 59.976 207.038 60 206.958 60H204.15C204.07 60 203.998 59.976 203.934 59.928C203.886 59.864 203.862 59.792 203.862 59.712V58.896C203.862 58.848 203.846 58.824 203.814 58.824C203.782 58.808 203.75 58.824 203.718 58.872C203.078 59.736 202.086 60.168 200.742 60.168C199.526 60.168 198.526 59.8 197.742 59.064C196.958 58.328 196.566 57.296 196.566 55.968V47.952C196.566 47.872 196.59 47.808 196.638 47.76C196.702 47.696 196.774 47.664 196.854 47.664H199.638C199.718 47.664 199.782 47.696 199.83 47.76C199.894 47.808 199.926 47.872 199.926 47.952V55.128C199.926 55.768 200.094 56.288 200.43 56.688C200.782 57.088 201.262 57.288 201.87 57.288C202.414 57.288 202.862 57.128 203.214 56.808C203.566 56.472 203.782 56.04 203.862 55.512V47.952ZM220.66 52.56C220.756 53.168 220.788 53.848 220.756 54.6C220.74 54.792 220.636 54.888 220.444 54.888H213.028C212.932 54.888 212.9 54.928 212.932 55.008C212.98 55.328 213.068 55.648 213.196 55.968C213.612 56.864 214.46 57.312 215.74 57.312C216.764 57.296 217.572 56.88 218.164 56.064C218.228 55.968 218.3 55.92 218.38 55.92C218.428 55.92 218.484 55.952 218.548 56.016L220.276 57.72C220.356 57.8 220.396 57.872 220.396 57.936C220.396 57.968 220.364 58.032 220.3 58.128C219.772 58.784 219.092 59.296 218.26 59.664C217.428 60.016 216.516 60.192 215.524 60.192C214.148 60.192 212.98 59.88 212.02 59.256C211.076 58.632 210.396 57.76 209.98 56.64C209.644 55.84 209.476 54.792 209.476 53.496C209.476 52.616 209.596 51.84 209.836 51.168C210.204 50.032 210.844 49.128 211.756 48.456C212.684 47.784 213.78 47.448 215.044 47.448C216.644 47.448 217.924 47.912 218.884 48.84C219.86 49.768 220.452 51.008 220.66 52.56ZM215.068 50.376C214.06 50.376 213.396 50.848 213.076 51.792C213.012 52 212.956 52.256 212.908 52.56C212.908 52.64 212.948 52.68 213.028 52.68H217.18C217.276 52.68 217.308 52.64 217.276 52.56C217.196 52.096 217.156 51.872 217.156 51.888C217.012 51.408 216.756 51.04 216.388 50.784C216.036 50.512 215.596 50.376 215.068 50.376Z" fill="#464255"/>
<path d="M798.506 54.768C798.497 54.7867 798.497 54.8053 798.506 54.824C798.515 54.8333 798.529 54.838 798.548 54.838H802.762C802.855 54.838 802.902 54.8847 802.902 54.978V55.86C802.902 55.9533 802.855 56 802.762 56H796.896C796.803 56 796.756 55.9533 796.756 55.86V55.006C796.756 54.9407 796.779 54.8847 796.826 54.838C797.143 54.474 797.871 53.62 799.01 52.276L799.976 51.114C800.844 50.078 801.278 49.2753 801.278 48.706C801.278 48.2673 801.129 47.9173 800.83 47.656C800.541 47.3853 800.153 47.25 799.668 47.25C799.183 47.25 798.795 47.3853 798.506 47.656C798.217 47.9267 798.077 48.2813 798.086 48.72V49.14C798.086 49.2333 798.039 49.28 797.946 49.28H796.868C796.775 49.28 796.728 49.2333 796.728 49.14V48.538C796.747 48.0527 796.882 47.6233 797.134 47.25C797.395 46.8767 797.745 46.592 798.184 46.396C798.623 46.1907 799.117 46.088 799.668 46.088C800.265 46.088 800.788 46.2 801.236 46.424C801.684 46.648 802.029 46.956 802.272 47.348C802.515 47.74 802.636 48.1833 802.636 48.678C802.636 49.4527 802.216 50.3673 801.376 51.422C801.003 51.898 800.559 52.4347 800.046 53.032C799.533 53.62 799.019 54.1987 798.506 54.768ZM807.563 56.14C806.621 56.14 805.869 55.874 805.309 55.342C804.759 54.8007 804.483 54.0773 804.483 53.172V49.028C804.483 48.1227 804.759 47.404 805.309 46.872C805.869 46.34 806.621 46.074 807.563 46.074C808.506 46.074 809.257 46.34 809.817 46.872C810.387 47.404 810.671 48.1227 810.671 49.028V53.172C810.671 54.0773 810.387 54.8007 809.817 55.342C809.257 55.874 808.506 56.14 807.563 56.14ZM807.563 54.978C808.105 54.978 808.534 54.824 808.851 54.516C809.169 54.1987 809.327 53.7787 809.327 53.256V48.972C809.327 48.4493 809.169 48.034 808.851 47.726C808.534 47.4087 808.105 47.25 807.563 47.25C807.041 47.25 806.621 47.4087 806.303 47.726C805.986 48.034 805.827 48.4493 805.827 48.972V53.256C805.827 53.7787 805.986 54.1987 806.303 54.516C806.621 54.824 807.041 54.978 807.563 54.978ZM814.051 54.768C814.042 54.7867 814.042 54.8053 814.051 54.824C814.06 54.8333 814.074 54.838 814.093 54.838H818.307C818.4 54.838 818.447 54.8847 818.447 54.978V55.86C818.447 55.9533 818.4 56 818.307 56H812.441C812.348 56 812.301 55.9533 812.301 55.86V55.006C812.301 54.9407 812.324 54.8847 812.371 54.838C812.688 54.474 813.416 53.62 814.555 52.276L815.521 51.114C816.389 50.078 816.823 49.2753 816.823 48.706C816.823 48.2673 816.674 47.9173 816.375 47.656C816.086 47.3853 815.698 47.25 815.213 47.25C814.728 47.25 814.34 47.3853 814.051 47.656C813.762 47.9267 813.622 48.2813 813.631 48.72V49.14C813.631 49.2333 813.584 49.28 813.491 49.28H812.413C812.32 49.28 812.273 49.2333 812.273 49.14V48.538C812.292 48.0527 812.427 47.6233 812.679 47.25C812.94 46.8767 813.29 46.592 813.729 46.396C814.168 46.1907 814.662 46.088 815.213 46.088C815.81 46.088 816.333 46.2 816.781 46.424C817.229 46.648 817.574 46.956 817.817 47.348C818.06 47.74 818.181 48.1833 818.181 48.678C818.181 49.4527 817.761 50.3673 816.921 51.422C816.548 51.898 816.104 52.4347 815.591 53.032C815.078 53.62 814.564 54.1987 814.051 54.768ZM823.108 56.14C822.165 56.14 821.414 55.874 820.854 55.342C820.303 54.8007 820.028 54.0773 820.028 53.172V49.028C820.028 48.1227 820.303 47.404 820.854 46.872C821.414 46.34 822.165 46.074 823.108 46.074C824.051 46.074 824.802 46.34 825.362 46.872C825.931 47.404 826.216 48.1227 826.216 49.028V53.172C826.216 54.0773 825.931 54.8007 825.362 55.342C824.802 55.874 824.051 56.14 823.108 56.14ZM823.108 54.978C823.649 54.978 824.079 54.824 824.396 54.516C824.713 54.1987 824.872 53.7787 824.872 53.256V48.972C824.872 48.4493 824.713 48.034 824.396 47.726C824.079 47.4087 823.649 47.25 823.108 47.25C822.585 47.25 822.165 47.4087 821.848 47.726C821.531 48.034 821.372 48.4493 821.372 48.972V53.256C821.372 53.7787 821.531 54.1987 821.848 54.516C822.165 54.824 822.585 54.978 823.108 54.978Z" fill="#A3A3A3"/>
<circle cx="777" cy="51" r="8" fill="#2D9CDB"/>
<path d="M870.506 54.768C870.497 54.7867 870.497 54.8053 870.506 54.824C870.515 54.8333 870.529 54.838 870.548 54.838H874.762C874.855 54.838 874.902 54.8847 874.902 54.978V55.86C874.902 55.9533 874.855 56 874.762 56H868.896C868.803 56 868.756 55.9533 868.756 55.86V55.006C868.756 54.9407 868.779 54.8847 868.826 54.838C869.143 54.474 869.871 53.62 871.01 52.276L871.976 51.114C872.844 50.078 873.278 49.2753 873.278 48.706C873.278 48.2673 873.129 47.9173 872.83 47.656C872.541 47.3853 872.153 47.25 871.668 47.25C871.183 47.25 870.795 47.3853 870.506 47.656C870.217 47.9267 870.077 48.2813 870.086 48.72V49.14C870.086 49.2333 870.039 49.28 869.946 49.28H868.868C868.775 49.28 868.728 49.2333 868.728 49.14V48.538C868.747 48.0527 868.882 47.6233 869.134 47.25C869.395 46.8767 869.745 46.592 870.184 46.396C870.623 46.1907 871.117 46.088 871.668 46.088C872.265 46.088 872.788 46.2 873.236 46.424C873.684 46.648 874.029 46.956 874.272 47.348C874.515 47.74 874.636 48.1833 874.636 48.678C874.636 49.4527 874.216 50.3673 873.376 51.422C873.003 51.898 872.559 52.4347 872.046 53.032C871.533 53.62 871.019 54.1987 870.506 54.768ZM879.563 56.14C878.621 56.14 877.869 55.874 877.309 55.342C876.759 54.8007 876.483 54.0773 876.483 53.172V49.028C876.483 48.1227 876.759 47.404 877.309 46.872C877.869 46.34 878.621 46.074 879.563 46.074C880.506 46.074 881.257 46.34 881.817 46.872C882.387 47.404 882.671 48.1227 882.671 49.028V53.172C882.671 54.0773 882.387 54.8007 881.817 55.342C881.257 55.874 880.506 56.14 879.563 56.14ZM879.563 54.978C880.105 54.978 880.534 54.824 880.851 54.516C881.169 54.1987 881.327 53.7787 881.327 53.256V48.972C881.327 48.4493 881.169 48.034 880.851 47.726C880.534 47.4087 880.105 47.25 879.563 47.25C879.041 47.25 878.621 47.4087 878.303 47.726C877.986 48.034 877.827 48.4493 877.827 48.972V53.256C877.827 53.7787 877.986 54.1987 878.303 54.516C878.621 54.824 879.041 54.978 879.563 54.978ZM886.051 54.768C886.042 54.7867 886.042 54.8053 886.051 54.824C886.06 54.8333 886.074 54.838 886.093 54.838H890.307C890.4 54.838 890.447 54.8847 890.447 54.978V55.86C890.447 55.9533 890.4 56 890.307 56H884.441C884.348 56 884.301 55.9533 884.301 55.86V55.006C884.301 54.9407 884.324 54.8847 884.371 54.838C884.688 54.474 885.416 53.62 886.555 52.276L887.521 51.114C888.389 50.078 888.823 49.2753 888.823 48.706C888.823 48.2673 888.674 47.9173 888.375 47.656C888.086 47.3853 887.698 47.25 887.213 47.25C886.728 47.25 886.34 47.3853 886.051 47.656C885.762 47.9267 885.622 48.2813 885.631 48.72V49.14C885.631 49.2333 885.584 49.28 885.491 49.28H884.413C884.32 49.28 884.273 49.2333 884.273 49.14V48.538C884.292 48.0527 884.427 47.6233 884.679 47.25C884.94 46.8767 885.29 46.592 885.729 46.396C886.168 46.1907 886.662 46.088 887.213 46.088C887.81 46.088 888.333 46.2 888.781 46.424C889.229 46.648 889.574 46.956 889.817 47.348C890.06 47.74 890.181 48.1833 890.181 48.678C890.181 49.4527 889.761 50.3673 888.921 51.422C888.548 51.898 888.104 52.4347 887.591 53.032C887.078 53.62 886.564 54.1987 886.051 54.768ZM893.39 46.242C893.446 46.214 893.506 46.2 893.572 46.2H894.678C894.771 46.2 894.818 46.2467 894.818 46.34V55.86C894.818 55.9533 894.771 56 894.678 56H893.614C893.52 56 893.474 55.9533 893.474 55.86V47.642C893.474 47.6233 893.464 47.6093 893.446 47.6C893.436 47.5907 893.422 47.5907 893.404 47.6L891.934 48.104C891.915 48.1133 891.892 48.118 891.864 48.118C891.808 48.118 891.775 48.0807 891.766 48.006L891.71 47.208C891.71 47.1147 891.738 47.0587 891.794 47.04L893.39 46.242Z" fill="#A3A3A3"/>
<circle cx="852" cy="50" r="8" fill="#FF5B5B"/>
<rect x="780" y="255" width="85" height="22" fill="#FF5B5B" fill-opacity="0.15"/>
<path d="M798.276 267.744C798.276 268.376 798.08 268.896 797.688 269.304C797.296 269.712 796.752 269.96 796.056 270.048C796.016 270.064 795.996 270.088 795.996 270.12L796.008 270.912C796.008 270.952 795.992 270.984 795.96 271.008C795.936 271.04 795.904 271.056 795.864 271.056H794.928C794.888 271.056 794.852 271.04 794.82 271.008C794.796 270.984 794.784 270.952 794.784 270.912L794.796 270.108C794.796 270.076 794.776 270.052 794.736 270.036C794.04 269.924 793.492 269.664 793.092 269.256C792.7 268.84 792.504 268.316 792.504 267.684V267.384C792.504 267.344 792.516 267.312 792.54 267.288C792.572 267.256 792.608 267.24 792.648 267.24H793.656C793.696 267.24 793.728 267.256 793.752 267.288C793.784 267.312 793.8 267.344 793.8 267.384V267.612C793.8 267.98 793.956 268.288 794.268 268.536C794.58 268.776 795.004 268.896 795.54 268.896C796.012 268.896 796.364 268.792 796.596 268.584C796.836 268.376 796.956 268.108 796.956 267.78C796.956 267.556 796.892 267.368 796.764 267.216C796.636 267.056 796.448 266.916 796.2 266.796C795.96 266.668 795.6 266.504 795.12 266.304C794.584 266.096 794.148 265.9 793.812 265.716C793.476 265.532 793.196 265.284 792.972 264.972C792.748 264.652 792.636 264.256 792.636 263.784C792.636 263.176 792.82 262.676 793.188 262.284C793.564 261.892 794.072 261.648 794.712 261.552C794.752 261.536 794.772 261.512 794.772 261.48L794.748 260.592C794.748 260.552 794.76 260.52 794.784 260.496C794.816 260.464 794.852 260.448 794.892 260.448H795.828C795.868 260.448 795.9 260.464 795.924 260.496C795.956 260.52 795.972 260.552 795.972 260.592L795.948 261.492C795.948 261.524 795.968 261.548 796.008 261.564C796.688 261.676 797.224 261.948 797.616 262.38C798.016 262.812 798.216 263.344 798.216 263.976V264.18C798.216 264.22 798.2 264.256 798.168 264.288C798.144 264.312 798.112 264.324 798.072 264.324H797.052C797.012 264.324 796.976 264.312 796.944 264.288C796.92 264.256 796.908 264.22 796.908 264.18V264.048C796.908 263.672 796.76 263.356 796.464 263.1C796.176 262.836 795.776 262.704 795.264 262.704C794.84 262.704 794.512 262.796 794.28 262.98C794.048 263.164 793.932 263.424 793.932 263.76C793.932 264 793.992 264.196 794.112 264.348C794.24 264.5 794.424 264.64 794.664 264.768C794.912 264.888 795.288 265.044 795.792 265.236C796.336 265.452 796.768 265.648 797.088 265.824C797.416 266 797.696 266.248 797.928 266.568C798.16 266.88 798.276 267.272 798.276 267.744ZM803.131 261.636C803.195 261.612 803.255 261.6 803.311 261.6H804.463C804.503 261.6 804.535 261.616 804.559 261.648C804.591 261.672 804.607 261.704 804.607 261.744V269.856C804.607 269.896 804.591 269.932 804.559 269.964C804.535 269.988 804.503 270 804.463 270H803.359C803.319 270 803.283 269.988 803.251 269.964C803.227 269.932 803.215 269.896 803.215 269.856V263.04C803.215 263.024 803.207 263.012 803.191 263.004C803.175 262.988 803.159 262.984 803.143 262.992L801.943 263.364C801.927 263.372 801.907 263.376 801.883 263.376C801.851 263.376 801.823 263.364 801.799 263.34C801.783 263.316 801.775 263.284 801.775 263.244L801.739 262.452C801.739 262.372 801.771 262.316 801.835 262.284L803.131 261.636ZM807.901 268.728C807.885 268.744 807.877 268.76 807.877 268.776C807.885 268.792 807.901 268.8 807.925 268.8H811.345C811.385 268.8 811.417 268.816 811.441 268.848C811.473 268.872 811.489 268.904 811.489 268.944V269.856C811.489 269.896 811.473 269.932 811.441 269.964C811.417 269.988 811.385 270 811.345 270H806.185C806.145 270 806.109 269.988 806.077 269.964C806.053 269.932 806.041 269.896 806.041 269.856V268.992C806.041 268.92 806.065 268.86 806.113 268.812C806.721 268.164 807.425 267.368 808.225 266.424L808.789 265.764C809.525 264.908 809.893 264.26 809.893 263.82C809.893 263.492 809.777 263.224 809.545 263.016C809.313 262.808 809.013 262.704 808.645 262.704C808.277 262.704 807.977 262.808 807.745 263.016C807.521 263.224 807.409 263.5 807.409 263.844V264.156C807.409 264.196 807.393 264.232 807.361 264.264C807.337 264.288 807.305 264.3 807.265 264.3H806.149C806.109 264.3 806.073 264.288 806.041 264.264C806.017 264.232 806.005 264.196 806.005 264.156V263.64C806.021 263.208 806.145 262.832 806.377 262.512C806.609 262.192 806.921 261.944 807.313 261.768C807.713 261.592 808.157 261.504 808.645 261.504C809.181 261.504 809.649 261.604 810.049 261.804C810.449 262.004 810.757 262.28 810.973 262.632C811.189 262.976 811.297 263.364 811.297 263.796C811.297 264.452 810.949 265.208 810.253 266.064C809.869 266.544 809.237 267.264 808.357 268.224L807.901 268.728ZM813.647 270.024C813.399 270.024 813.195 269.944 813.035 269.784C812.875 269.624 812.795 269.42 812.795 269.172C812.795 268.924 812.875 268.72 813.035 268.56C813.195 268.4 813.399 268.32 813.647 268.32C813.895 268.32 814.095 268.4 814.247 268.56C814.407 268.72 814.487 268.924 814.487 269.172C814.487 269.42 814.407 269.624 814.247 269.784C814.087 269.944 813.887 270.024 813.647 270.024ZM820.888 265.86C821.104 266.268 821.212 266.764 821.212 267.348C821.212 267.836 821.132 268.264 820.972 268.632C820.78 269.096 820.476 269.456 820.06 269.712C819.652 269.96 819.16 270.084 818.584 270.084C817.984 270.084 817.472 269.948 817.048 269.676C816.624 269.396 816.32 269.008 816.136 268.512C816.008 268.176 815.944 267.784 815.944 267.336V263.676C815.944 263.244 816.052 262.864 816.268 262.536C816.484 262.208 816.784 261.956 817.168 261.78C817.56 261.596 818.008 261.504 818.512 261.504C819 261.504 819.432 261.592 819.808 261.768C820.192 261.944 820.488 262.192 820.696 262.512C820.912 262.832 821.02 263.2 821.02 263.616V263.88C821.02 263.92 821.004 263.956 820.972 263.988C820.948 264.012 820.916 264.024 820.876 264.024H819.772C819.732 264.024 819.696 264.012 819.664 263.988C819.64 263.956 819.628 263.92 819.628 263.88V263.796C819.628 263.476 819.52 263.216 819.304 263.016C819.096 262.808 818.828 262.704 818.5 262.704C818.164 262.704 817.884 262.812 817.66 263.028C817.444 263.236 817.336 263.508 817.336 263.844V265.152C817.336 265.176 817.344 265.192 817.36 265.2C817.376 265.208 817.392 265.204 817.408 265.188C817.744 264.86 818.208 264.696 818.8 264.696C819.272 264.696 819.684 264.796 820.036 264.996C820.396 265.196 820.68 265.484 820.888 265.86ZM819.64 268.224C819.76 267.984 819.82 267.7 819.82 267.372C819.82 267.012 819.752 266.704 819.616 266.448C819.392 266.064 819.044 265.872 818.572 265.872C818.076 265.872 817.724 266.072 817.516 266.472C817.396 266.712 817.336 267.024 817.336 267.408C817.336 267.736 817.388 268.004 817.492 268.212C817.684 268.652 818.044 268.872 818.572 268.872C819.076 268.872 819.432 268.656 819.64 268.224ZM827.42 266.232C827.524 266.592 827.576 266.964 827.576 267.348C827.576 267.724 827.524 268.08 827.42 268.416C827.252 268.928 826.944 269.336 826.496 269.64C826.048 269.936 825.524 270.084 824.924 270.084C824.332 270.084 823.816 269.94 823.376 269.652C822.936 269.356 822.628 268.96 822.452 268.464C822.388 268.288 822.336 268.088 822.296 267.864V267.84C822.296 267.752 822.344 267.708 822.44 267.708H823.58C823.66 267.708 823.712 267.752 823.736 267.84C823.744 267.888 823.764 267.96 823.796 268.056C823.884 268.32 824.024 268.524 824.216 268.668C824.408 268.812 824.64 268.884 824.912 268.884C825.192 268.884 825.432 268.808 825.632 268.656C825.832 268.496 825.972 268.28 826.052 268.008C826.124 267.816 826.16 267.596 826.16 267.348C826.16 267.116 826.128 266.888 826.064 266.664C826.008 266.4 825.88 266.2 825.68 266.064C825.48 265.92 825.236 265.848 824.948 265.848C824.676 265.848 824.428 265.912 824.204 266.04C823.988 266.16 823.848 266.32 823.784 266.52C823.752 266.6 823.696 266.64 823.616 266.64H822.452C822.412 266.64 822.376 266.628 822.344 266.604C822.32 266.572 822.308 266.536 822.308 266.496V261.744C822.308 261.704 822.32 261.672 822.344 261.648C822.376 261.616 822.412 261.6 822.452 261.6H827.12C827.16 261.6 827.192 261.616 827.216 261.648C827.248 261.672 827.264 261.704 827.264 261.744V262.656C827.264 262.696 827.248 262.732 827.216 262.764C827.192 262.788 827.16 262.8 827.12 262.8H823.76C823.72 262.8 823.7 262.82 823.7 262.86L823.688 265.02C823.688 265.052 823.696 265.072 823.712 265.08C823.728 265.08 823.744 265.072 823.76 265.056C824.136 264.776 824.588 264.636 825.116 264.636C825.676 264.636 826.16 264.78 826.568 265.068C826.984 265.348 827.268 265.736 827.42 266.232ZM829.667 270C829.547 270 829.507 269.944 829.547 269.832L832.199 262.872C832.215 262.824 832.199 262.8 832.151 262.8H829.571C829.531 262.8 829.511 262.82 829.511 262.86V263.4C829.511 263.44 829.495 263.476 829.463 263.508C829.439 263.532 829.407 263.544 829.367 263.544H828.503C828.463 263.544 828.427 263.532 828.395 263.508C828.371 263.476 828.359 263.44 828.359 263.4V261.744C828.359 261.704 828.371 261.672 828.395 261.648C828.427 261.616 828.463 261.6 828.503 261.6H833.555C833.595 261.6 833.627 261.616 833.651 261.648C833.683 261.672 833.699 261.704 833.699 261.744V262.704C833.699 262.752 833.687 262.812 833.663 262.884L831.023 269.88C830.999 269.96 830.943 270 830.855 270H829.667ZM833.947 271.092C833.851 271.092 833.807 271.04 833.815 270.936L834.259 268.248C834.267 268.16 834.319 268.116 834.415 268.116H835.375C835.479 268.116 835.519 268.168 835.495 268.272L834.787 270.972C834.763 271.052 834.707 271.092 834.619 271.092H833.947ZM839.435 270.132C838.595 270.132 837.927 269.896 837.431 269.424C836.943 268.944 836.699 268.3 836.699 267.492V264.108C836.699 263.308 836.943 262.676 837.431 262.212C837.927 261.74 838.595 261.504 839.435 261.504C840.275 261.504 840.943 261.74 841.439 262.212C841.943 262.676 842.195 263.308 842.195 264.108V267.492C842.195 268.3 841.943 268.944 841.439 269.424C840.943 269.896 840.275 270.132 839.435 270.132ZM839.435 268.92C839.851 268.92 840.183 268.8 840.431 268.56C840.679 268.312 840.803 267.98 840.803 267.564V264.06C840.803 263.644 840.679 263.316 840.431 263.076C840.183 262.828 839.851 262.704 839.435 262.704C839.027 262.704 838.699 262.828 838.451 263.076C838.211 263.316 838.091 263.644 838.091 264.06V267.564C838.091 267.98 838.211 268.312 838.451 268.56C838.699 268.8 839.027 268.92 839.435 268.92ZM846.255 270.132C845.415 270.132 844.747 269.896 844.251 269.424C843.763 268.944 843.519 268.3 843.519 267.492V264.108C843.519 263.308 843.763 262.676 844.251 262.212C844.747 261.74 845.415 261.504 846.255 261.504C847.095 261.504 847.763 261.74 848.259 262.212C848.763 262.676 849.015 263.308 849.015 264.108V267.492C849.015 268.3 848.763 268.944 848.259 269.424C847.763 269.896 847.095 270.132 846.255 270.132ZM846.255 268.92C846.671 268.92 847.003 268.8 847.251 268.56C847.499 268.312 847.623 267.98 847.623 267.564V264.06C847.623 263.644 847.499 263.316 847.251 263.076C847.003 262.828 846.671 262.704 846.255 262.704C845.847 262.704 845.519 262.828 845.271 263.076C845.031 263.316 844.911 263.644 844.911 264.06V267.564C844.911 267.98 845.031 268.312 845.271 268.56C845.519 268.8 845.847 268.92 846.255 268.92Z" fill="#FF5B5B"/>
<circle cx="768" cy="266" r="7.5" fill="#FF5B5B" stroke="white" stroke-width="3"/>
<defs>
<filter id="filter0_d_126_1167" x="0" y="0" width="980" height="438" filterUnits="userSpaceOnUse" color-interpolation-filters="sRGB">
<feFlood flood-opacity="0" result="BackgroundImageFix"/>
<feColorMatrix in="SourceAlpha" type="matrix" values="0 0 0 0 0 0 0 0 0 0 0 0 0 0 0 0 0 0 127 0" result="hardAlpha"/>
<feOffset dy="4"/>
<feGaussianBlur stdDeviation="2"/>
<feColorMatrix type="matrix" values="0 0 0 0 0 0 0 0 0 0 0 0 0 0 0 0 0 0 0.04 0"/>
<feBlend mode="normal" in2="BackgroundImageFix" result="effect1_dropShadow_126_1167"/>
<feBlend mode="normal" in="SourceGraphic" in2="effect1_dropShadow_126_1167" result="shape"/>
</filter>
</defs>
</svg>
