<svg width="346" height="180" viewBox="0 0 346 180" fill="none" xmlns="http://www.w3.org/2000/svg">
<g filter="url(#filter0_d_126_918)">
<rect x="4" width="337.243" height="172" rx="14" fill="white"/>
</g>
<ellipse cx="116.155" cy="79.5" rx="42.1554" ry="42.5" fill="#00B074" fill-opacity="0.15"/>
<path d="M92.6518 101.275C95.8187 101.275 98.4062 98.6627 98.4062 95.466V58.041H132.006V95.466C132.006 98.6627 129.418 101.275 126.252 101.275" fill="#00B074"/>
<path d="M120.497 95.4659V91.0606H86.8974V95.4659C86.8974 98.6626 89.485 101.275 92.6518 101.275H126.252C123.085 101.275 120.497 98.6626 120.497 95.4659Z" fill="#0A5239"/>
<path d="M108.718 65.4868H104.431V67.3581H108.718V65.4868Z" fill="white"/>
<path d="M125.209 65.4868H112.039V67.3581H125.209V65.4868Z" fill="#F7C604"/>
<path d="M108.718 72.1142H104.431V73.9854H108.718V72.1142Z" fill="white"/>
<path d="M125.209 72.1142H112.039V73.9854H125.209V72.1142Z" fill="#F7C604"/>
<path d="M108.718 78.7417H104.431V80.6129H108.718V78.7417Z" fill="white"/>
<path d="M125.209 78.7417H112.039V80.6129H125.209V78.7417Z" fill="#F7C604"/>
<path d="M108.718 85.369H104.431V87.2403H108.718V85.369Z" fill="white"/>
<path d="M125.209 85.369H112.039V87.2403H125.209V85.369Z" fill="#F7C604"/>
<path opacity="0.1" d="M132.006 85.681V63.4209C131.543 63.3429 131.041 63.3039 130.538 63.3039C124.398 63.3039 119.416 68.3329 119.416 74.5314C119.416 80.73 124.398 85.7589 130.538 85.7589C131.041 85.7979 131.543 85.7589 132.006 85.681Z" fill="#0C1E5B"/>
<path d="M134.44 83.537C140.583 83.537 145.563 78.5103 145.563 72.3094C145.563 66.1086 140.583 61.0818 134.44 61.0818C128.297 61.0818 123.317 66.1086 123.317 72.3094C123.317 78.5103 128.297 83.537 134.44 83.537Z" fill="#FF5B5B"/>
<path d="M136.409 73.0889V66.1107H132.47V73.0889H129.843L134.439 78.5077L139.035 73.0889H136.409Z" fill="white"/>
<path d="M192.356 94.8C192.463 94.8 192.516 94.8533 192.516 94.96V95.648C192.516 95.7547 192.463 95.808 192.356 95.808H189.22C189.177 95.808 189.156 95.8293 189.156 95.872V105.84C189.156 105.947 189.103 106 188.996 106H188.18C188.073 106 188.02 105.947 188.02 105.84V95.872C188.02 95.8293 187.999 95.808 187.956 95.808H184.948C184.841 95.808 184.788 95.7547 184.788 95.648V94.96C184.788 94.8533 184.841 94.8 184.948 94.8H192.356ZM196.452 106.128C195.684 106.128 195.023 105.931 194.468 105.536C193.914 105.141 193.53 104.597 193.316 103.904C193.167 103.413 193.092 102.757 193.092 101.936C193.092 101.115 193.167 100.464 193.316 99.984C193.519 99.3013 193.898 98.7627 194.452 98.368C195.007 97.9733 195.679 97.776 196.468 97.776C197.226 97.776 197.876 97.9733 198.42 98.368C198.975 98.7627 199.354 99.296 199.556 99.968C199.706 100.427 199.78 101.083 199.78 101.936C199.78 102.8 199.706 103.456 199.556 103.904C199.354 104.597 198.975 105.141 198.42 105.536C197.876 105.931 197.22 106.128 196.452 106.128ZM196.452 105.136C196.964 105.136 197.402 104.997 197.764 104.72C198.127 104.432 198.372 104.048 198.5 103.568C198.596 103.184 198.644 102.645 198.644 101.952C198.644 101.248 198.602 100.709 198.516 100.336C198.388 99.856 198.138 99.4773 197.764 99.2C197.402 98.912 196.959 98.768 196.436 98.768C195.914 98.768 195.471 98.912 195.108 99.2C194.746 99.4773 194.5 99.856 194.372 100.336C194.287 100.709 194.244 101.248 194.244 101.952C194.244 102.656 194.287 103.195 194.372 103.568C194.49 104.048 194.73 104.432 195.092 104.72C195.466 104.997 195.919 105.136 196.452 105.136ZM205.621 98.688C205.621 98.7947 205.568 98.848 205.461 98.848H203.653C203.611 98.848 203.589 98.8693 203.589 98.912V103.632C203.589 104.144 203.701 104.507 203.925 104.72C204.16 104.923 204.523 105.024 205.013 105.024H205.413C205.52 105.024 205.573 105.077 205.573 105.184V105.84C205.573 105.947 205.52 106 205.413 106C205.285 106.011 205.088 106.016 204.821 106.016C204.053 106.016 203.472 105.872 203.077 105.584C202.683 105.296 202.485 104.763 202.485 103.984V98.912C202.485 98.8693 202.464 98.848 202.421 98.848H201.445C201.339 98.848 201.285 98.7947 201.285 98.688V98.064C201.285 97.9573 201.339 97.904 201.445 97.904H202.421C202.464 97.904 202.485 97.8827 202.485 97.84V95.984C202.485 95.8773 202.539 95.824 202.645 95.824H203.429C203.536 95.824 203.589 95.8773 203.589 95.984V97.84C203.589 97.8827 203.611 97.904 203.653 97.904H205.461C205.568 97.904 205.621 97.9573 205.621 98.064V98.688ZM210.617 97.776C211.577 97.776 212.319 98.0213 212.841 98.512C213.364 99.0027 213.625 99.6533 213.625 100.464V105.84C213.625 105.947 213.572 106 213.465 106H212.649C212.543 106 212.489 105.947 212.489 105.84V105.184C212.489 105.163 212.479 105.147 212.457 105.136C212.447 105.125 212.431 105.131 212.409 105.152C212.143 105.472 211.796 105.717 211.369 105.888C210.943 106.048 210.468 106.128 209.945 106.128C209.188 106.128 208.553 105.936 208.041 105.552C207.529 105.168 207.273 104.581 207.273 103.792C207.273 102.992 207.561 102.363 208.137 101.904C208.724 101.435 209.535 101.2 210.569 101.2H212.425C212.468 101.2 212.489 101.179 212.489 101.136V100.528C212.489 99.984 212.335 99.5573 212.025 99.248C211.727 98.928 211.257 98.768 210.617 98.768C210.105 98.768 209.689 98.8693 209.369 99.072C209.049 99.264 208.852 99.536 208.777 99.888C208.745 99.9947 208.681 100.043 208.585 100.032L207.721 99.92C207.604 99.8987 207.556 99.856 207.577 99.792C207.663 99.1947 207.983 98.7093 208.537 98.336C209.092 97.9627 209.785 97.776 210.617 97.776ZM210.169 105.152C210.799 105.152 211.343 104.997 211.801 104.688C212.26 104.368 212.489 103.941 212.489 103.408V102.16C212.489 102.117 212.468 102.096 212.425 102.096H210.745C210.041 102.096 209.476 102.24 209.049 102.528C208.623 102.816 208.409 103.216 208.409 103.728C208.409 104.197 208.569 104.555 208.889 104.8C209.22 105.035 209.647 105.152 210.169 105.152ZM216.149 106C216.043 106 215.989 105.947 215.989 105.84V94.96C215.989 94.8533 216.043 94.8 216.149 94.8H216.965C217.072 94.8 217.125 94.8533 217.125 94.96V105.84C217.125 105.947 217.072 106 216.965 106H216.149ZM226.56 106.128C225.803 106.128 225.136 105.973 224.56 105.664C223.984 105.355 223.536 104.923 223.216 104.368C222.907 103.803 222.752 103.152 222.752 102.416V98.384C222.752 97.648 222.907 97.0027 223.216 96.448C223.536 95.8827 223.984 95.4453 224.56 95.136C225.136 94.8267 225.803 94.672 226.56 94.672C227.317 94.672 227.984 94.8267 228.56 95.136C229.147 95.4453 229.595 95.8827 229.904 96.448C230.224 97.0027 230.384 97.648 230.384 98.384V102.416C230.384 103.152 230.224 103.803 229.904 104.368C229.595 104.923 229.147 105.355 228.56 105.664C227.984 105.973 227.317 106.128 226.56 106.128ZM226.56 105.152C227.371 105.152 228.021 104.907 228.512 104.416C229.003 103.925 229.248 103.275 229.248 102.464V98.368C229.248 97.5573 229.003 96.9067 228.512 96.416C228.021 95.9147 227.371 95.664 226.56 95.664C225.76 95.664 225.115 95.9147 224.624 96.416C224.133 96.9067 223.888 97.5573 223.888 98.368V102.464C223.888 103.275 224.133 103.925 224.624 104.416C225.115 104.907 225.76 105.152 226.56 105.152ZM236.097 97.824C236.449 97.824 236.753 97.8933 237.009 98.032C237.094 98.0747 237.126 98.144 237.105 98.24L236.929 99.024C236.897 99.1307 236.828 99.1627 236.721 99.12C236.54 99.0453 236.332 99.008 236.097 99.008L235.889 99.024C235.334 99.0453 234.876 99.2533 234.513 99.648C234.15 100.032 233.969 100.523 233.969 101.12V105.84C233.969 105.947 233.916 106 233.809 106H232.993C232.886 106 232.833 105.947 232.833 105.84V98.064C232.833 97.9573 232.886 97.904 232.993 97.904H233.809C233.916 97.904 233.969 97.9573 233.969 98.064V99.04C233.969 99.072 233.974 99.0933 233.985 99.104C234.006 99.104 234.022 99.0933 234.033 99.072C234.257 98.6773 234.54 98.3733 234.881 98.16C235.233 97.936 235.638 97.824 236.097 97.824ZM243.607 94.96C243.607 94.8533 243.66 94.8 243.767 94.8H244.583C244.69 94.8 244.743 94.8533 244.743 94.96V105.84C244.743 105.947 244.69 106 244.583 106H243.767C243.66 106 243.607 105.947 243.607 105.84V105.168C243.607 105.147 243.596 105.136 243.575 105.136C243.564 105.125 243.548 105.131 243.527 105.152C243.292 105.461 242.999 105.701 242.647 105.872C242.306 106.043 241.922 106.128 241.495 106.128C240.748 106.128 240.119 105.936 239.607 105.552C239.106 105.168 238.759 104.645 238.567 103.984C238.418 103.504 238.343 102.827 238.343 101.952C238.343 101.067 238.407 100.405 238.535 99.968C238.727 99.2853 239.079 98.752 239.591 98.368C240.103 97.9733 240.738 97.776 241.495 97.776C241.911 97.776 242.295 97.8613 242.647 98.032C242.999 98.192 243.292 98.4267 243.527 98.736C243.548 98.7573 243.564 98.768 243.575 98.768C243.596 98.7573 243.607 98.7413 243.607 98.72V94.96ZM243.319 103.904C243.415 103.691 243.484 103.44 243.527 103.152C243.57 102.864 243.591 102.464 243.591 101.952C243.591 101.44 243.57 101.04 243.527 100.752C243.484 100.453 243.41 100.192 243.303 99.968C243.175 99.6053 242.962 99.3173 242.663 99.104C242.375 98.88 242.028 98.768 241.623 98.768C241.196 98.768 240.828 98.8747 240.519 99.088C240.21 99.3013 239.986 99.584 239.847 99.936C239.719 100.171 239.623 100.437 239.559 100.736C239.506 101.024 239.479 101.429 239.479 101.952C239.479 102.453 239.5 102.848 239.543 103.136C239.586 103.413 239.66 103.664 239.767 103.888C239.895 104.272 240.119 104.576 240.439 104.8C240.77 105.024 241.159 105.136 241.607 105.136C242.034 105.136 242.391 105.024 242.679 104.8C242.967 104.576 243.18 104.277 243.319 103.904ZM253.525 100.592C253.568 100.891 253.589 101.264 253.589 101.712V102.224C253.589 102.331 253.536 102.384 253.429 102.384H248.261C248.219 102.384 248.197 102.405 248.197 102.448C248.219 103.035 248.251 103.413 248.293 103.584C248.411 104.064 248.661 104.443 249.045 104.72C249.429 104.997 249.92 105.136 250.517 105.136C250.965 105.136 251.36 105.035 251.701 104.832C252.043 104.629 252.309 104.341 252.501 103.968C252.565 103.872 252.64 103.851 252.725 103.904L253.349 104.272C253.435 104.325 253.456 104.4 253.413 104.496C253.147 105.008 252.747 105.413 252.213 105.712C251.68 106 251.067 106.144 250.373 106.144C249.616 106.133 248.981 105.952 248.469 105.6C247.957 105.248 247.589 104.757 247.365 104.128C247.173 103.616 247.077 102.88 247.077 101.92C247.077 101.472 247.083 101.109 247.093 100.832C247.115 100.544 247.157 100.288 247.221 100.064C247.403 99.3707 247.765 98.816 248.309 98.4C248.864 97.984 249.531 97.776 250.309 97.776C251.28 97.776 252.027 98.0213 252.549 98.512C253.072 99.0027 253.397 99.696 253.525 100.592ZM250.309 98.768C249.787 98.768 249.349 98.9067 248.997 99.184C248.656 99.4507 248.432 99.8133 248.325 100.272C248.261 100.496 248.219 100.859 248.197 101.36C248.197 101.403 248.219 101.424 248.261 101.424H252.405C252.448 101.424 252.469 101.403 252.469 101.36C252.448 100.88 252.416 100.539 252.373 100.336C252.256 99.856 252.016 99.4773 251.653 99.2C251.301 98.912 250.853 98.768 250.309 98.768ZM259.113 97.824C259.465 97.824 259.769 97.8933 260.025 98.032C260.11 98.0747 260.142 98.144 260.121 98.24L259.945 99.024C259.913 99.1307 259.843 99.1627 259.737 99.12C259.555 99.0453 259.347 99.008 259.113 99.008L258.905 99.024C258.35 99.0453 257.891 99.2533 257.529 99.648C257.166 100.032 256.985 100.523 256.985 101.12V105.84C256.985 105.947 256.931 106 256.825 106H256.009C255.902 106 255.849 105.947 255.849 105.84V98.064C255.849 97.9573 255.902 97.904 256.009 97.904H256.825C256.931 97.904 256.985 97.9573 256.985 98.064V99.04C256.985 99.072 256.99 99.0933 257.001 99.104C257.022 99.104 257.038 99.0933 257.049 99.072C257.273 98.6773 257.555 98.3733 257.897 98.16C258.249 97.936 258.654 97.824 259.113 97.824ZM264.286 106.08C263.689 106.08 263.155 105.984 262.686 105.792C262.227 105.6 261.87 105.344 261.614 105.024C261.369 104.704 261.246 104.347 261.246 103.952V103.76C261.246 103.653 261.299 103.6 261.406 103.6H262.174C262.281 103.6 262.334 103.653 262.334 103.76V103.888C262.334 104.24 262.515 104.549 262.878 104.816C263.251 105.072 263.715 105.2 264.27 105.2C264.825 105.2 265.273 105.077 265.614 104.832C265.955 104.576 266.126 104.256 266.126 103.872C266.126 103.605 266.035 103.387 265.854 103.216C265.683 103.045 265.475 102.912 265.23 102.816C264.995 102.72 264.627 102.597 264.126 102.448C263.529 102.277 263.038 102.107 262.654 101.936C262.27 101.765 261.945 101.531 261.678 101.232C261.422 100.923 261.294 100.533 261.294 100.064C261.294 99.3813 261.561 98.8373 262.094 98.432C262.627 98.0267 263.331 97.824 264.206 97.824C264.793 97.824 265.31 97.92 265.758 98.112C266.217 98.304 266.569 98.5707 266.814 98.912C267.059 99.2427 267.182 99.616 267.182 100.032V100.08C267.182 100.187 267.129 100.24 267.022 100.24H266.27C266.163 100.24 266.11 100.187 266.11 100.08V100.032C266.11 99.6693 265.934 99.3653 265.582 99.12C265.241 98.8747 264.777 98.752 264.19 98.752C263.646 98.752 263.209 98.864 262.878 99.088C262.547 99.3013 262.382 99.6 262.382 99.984C262.382 100.347 262.542 100.624 262.862 100.816C263.182 101.008 263.678 101.2 264.35 101.392C264.969 101.573 265.47 101.744 265.854 101.904C266.238 102.064 266.569 102.299 266.846 102.608C267.123 102.907 267.262 103.301 267.262 103.792C267.262 104.485 266.99 105.04 266.446 105.456C265.902 105.872 265.182 106.08 264.286 106.08Z" fill="#464255"/>
<path d="M190.077 78C189.617 78 189.464 77.7853 189.617 77.356L199.599 51.642C199.66 51.458 199.599 51.366 199.415 51.366H190.813C190.66 51.366 190.583 51.4427 190.583 51.596V53.712C190.583 53.8653 190.522 54.0033 190.399 54.126C190.307 54.218 190.184 54.264 190.031 54.264H185.845C185.692 54.264 185.554 54.218 185.431 54.126C185.339 54.0033 185.293 53.8653 185.293 53.712L185.339 46.352C185.339 46.1987 185.385 46.076 185.477 45.984C185.6 45.8613 185.738 45.8 185.891 45.8H205.993C206.146 45.8 206.269 45.8613 206.361 45.984C206.484 46.076 206.545 46.1987 206.545 46.352V50.998C206.545 51.182 206.499 51.412 206.407 51.688L196.471 77.586C196.379 77.862 196.164 78 195.827 78H190.077ZM229.779 63.326C230.239 64.8287 230.469 66.2853 230.469 67.696C230.469 69.26 230.224 70.6707 229.733 71.928C229.028 73.8907 227.786 75.4547 226.007 76.62C224.229 77.7547 222.143 78.322 219.751 78.322C217.421 78.322 215.366 77.77 213.587 76.666C211.839 75.5313 210.597 73.998 209.861 72.066C209.555 71.2687 209.325 70.4253 209.171 69.536V69.444C209.171 69.1067 209.355 68.938 209.723 68.938H215.289C215.596 68.938 215.795 69.1067 215.887 69.444C215.918 69.628 215.964 69.7813 216.025 69.904C216.087 70.0267 216.133 70.134 216.163 70.226C216.47 71.0233 216.93 71.6367 217.543 72.066C218.157 72.4953 218.877 72.71 219.705 72.71C220.564 72.71 221.315 72.48 221.959 72.02C222.603 71.56 223.079 70.916 223.385 70.088C223.692 69.4747 223.845 68.6773 223.845 67.696C223.845 66.8067 223.707 66.0093 223.431 65.304C223.217 64.5067 222.787 63.8933 222.143 63.464C221.499 63.0347 220.748 62.82 219.889 62.82C219.031 62.82 218.233 63.0193 217.497 63.418C216.761 63.8167 216.271 64.338 216.025 64.982C215.933 65.2887 215.734 65.442 215.427 65.442H209.769C209.616 65.442 209.478 65.396 209.355 65.304C209.263 65.1813 209.217 65.0433 209.217 64.89V46.352C209.217 46.1987 209.263 46.076 209.355 45.984C209.478 45.8613 209.616 45.8 209.769 45.8H228.767C228.921 45.8 229.043 45.8613 229.135 45.984C229.258 46.076 229.319 46.1987 229.319 46.352V50.814C229.319 50.9673 229.258 51.1053 229.135 51.228C229.043 51.32 228.921 51.366 228.767 51.366H215.933C215.78 51.366 215.703 51.4427 215.703 51.596L215.657 58.404C215.657 58.6187 215.749 58.6647 215.933 58.542C217.313 57.6527 218.908 57.208 220.717 57.208C222.864 57.208 224.735 57.76 226.329 58.864C227.955 59.9373 229.105 61.4247 229.779 63.326Z" fill="#464255"/>
<path d="M212.133 128.916C212.213 128.916 212.253 128.956 212.253 129.036V129.564C212.253 129.644 212.213 129.684 212.133 129.684H211.617C211.585 129.684 211.569 129.7 211.569 129.732V131.88C211.569 131.96 211.529 132 211.449 132H210.837C210.757 132 210.717 131.96 210.717 131.88V129.732C210.717 129.7 210.701 129.684 210.669 129.684H207.081C207.001 129.684 206.961 129.644 206.961 129.564V129.12C206.961 129.08 206.973 129.032 206.997 128.976L209.457 123.684C209.481 123.628 209.525 123.6 209.589 123.6H210.225C210.265 123.6 210.293 123.616 210.309 123.648C210.333 123.672 210.337 123.704 210.321 123.744L207.933 128.856C207.925 128.872 207.925 128.888 207.933 128.904C207.941 128.912 207.953 128.916 207.969 128.916H210.669C210.701 128.916 210.717 128.9 210.717 128.868V126.936C210.717 126.856 210.757 126.816 210.837 126.816H211.449C211.529 126.816 211.569 126.856 211.569 126.936V128.868C211.569 128.9 211.585 128.916 211.617 128.916H212.133ZM215.838 126.9C215.526 126.9 215.238 126.824 214.974 126.672C214.71 126.52 214.498 126.316 214.338 126.06C214.186 125.796 214.11 125.508 214.11 125.196C214.11 124.884 214.186 124.6 214.338 124.344C214.498 124.08 214.71 123.872 214.974 123.72C215.238 123.568 215.526 123.492 215.838 123.492C216.15 123.492 216.438 123.568 216.702 123.72C216.966 123.872 217.174 124.08 217.326 124.344C217.478 124.6 217.554 124.884 217.554 125.196C217.554 125.508 217.478 125.796 217.326 126.06C217.174 126.316 216.966 126.52 216.702 126.672C216.438 126.824 216.15 126.9 215.838 126.9ZM215.562 132C215.514 132 215.482 131.988 215.466 131.964C215.45 131.932 215.454 131.896 215.478 131.856L220.026 123.684C220.066 123.628 220.114 123.6 220.17 123.6H220.554C220.602 123.6 220.634 123.616 220.65 123.648C220.666 123.672 220.662 123.704 220.638 123.744L216.102 131.916C216.078 131.972 216.03 132 215.958 132H215.562ZM215.838 126.348C216.158 126.348 216.426 126.236 216.642 126.012C216.866 125.788 216.978 125.516 216.978 125.196C216.978 124.876 216.866 124.604 216.642 124.38C216.426 124.156 216.158 124.044 215.838 124.044C215.518 124.044 215.246 124.156 215.022 124.38C214.798 124.596 214.686 124.868 214.686 125.196C214.686 125.516 214.798 125.788 215.022 126.012C215.246 126.236 215.518 126.348 215.838 126.348ZM220.35 132.108C220.038 132.108 219.75 132.032 219.486 131.88C219.222 131.728 219.01 131.52 218.85 131.256C218.698 130.992 218.622 130.704 218.622 130.392C218.622 130.088 218.698 129.808 218.85 129.552C219.01 129.288 219.222 129.08 219.486 128.928C219.75 128.776 220.038 128.7 220.35 128.7C220.654 128.7 220.938 128.776 221.202 128.928C221.466 129.08 221.674 129.288 221.826 129.552C221.978 129.808 222.054 130.088 222.054 130.392C222.054 130.704 221.978 130.992 221.826 131.256C221.674 131.52 221.466 131.728 221.202 131.88C220.946 132.032 220.662 132.108 220.35 132.108ZM220.35 131.556C220.67 131.556 220.938 131.444 221.154 131.22C221.378 130.996 221.49 130.72 221.49 130.392C221.49 130.072 221.378 129.804 221.154 129.588C220.93 129.364 220.662 129.252 220.35 129.252C220.022 129.252 219.746 129.364 219.522 129.588C219.298 129.804 219.186 130.072 219.186 130.392C219.186 130.72 219.298 130.996 219.522 131.22C219.746 131.444 220.022 131.556 220.35 131.556ZM226.949 133.248C226.893 133.248 226.845 133.224 226.805 133.176C226.413 132.576 226.097 131.828 225.857 130.932C225.617 130.036 225.497 129.092 225.497 128.1C225.497 127.092 225.617 126.128 225.857 125.208C226.105 124.288 226.429 123.524 226.829 122.916C226.861 122.868 226.909 122.844 226.973 122.844H227.549C227.597 122.844 227.629 122.86 227.645 122.892C227.661 122.916 227.657 122.948 227.633 122.988C227.289 123.604 227.009 124.364 226.793 125.268C226.577 126.164 226.469 127.104 226.469 128.088C226.469 129.056 226.577 129.984 226.793 130.872C227.009 131.752 227.289 132.496 227.633 133.104C227.649 133.136 227.657 133.16 227.657 133.176C227.657 133.224 227.621 133.248 227.549 133.248H226.949ZM233.845 128.028C234.005 128.42 234.085 128.888 234.085 129.432C234.085 129.872 234.025 130.26 233.905 130.596C233.745 131.076 233.473 131.448 233.089 131.712C232.713 131.968 232.245 132.096 231.685 132.096C231.125 132.096 230.645 131.952 230.245 131.664C229.845 131.368 229.569 130.972 229.417 130.476C229.345 130.252 229.301 129.948 229.285 129.564C229.285 129.484 229.325 129.444 229.405 129.444H230.017C230.097 129.444 230.137 129.484 230.137 129.564C230.153 129.796 230.181 130.012 230.221 130.212C230.309 130.564 230.477 130.844 230.725 131.052C230.981 131.252 231.297 131.352 231.673 131.352C232.393 131.352 232.861 131.032 233.077 130.392C233.173 130.128 233.221 129.8 233.221 129.408C233.221 128.928 233.157 128.536 233.029 128.232C232.773 127.656 232.321 127.368 231.673 127.368C231.553 127.368 231.405 127.412 231.229 127.5C231.197 127.516 231.173 127.524 231.157 127.524C231.125 127.524 231.097 127.504 231.073 127.464L230.761 127.044C230.721 126.98 230.725 126.924 230.773 126.876L232.885 124.404C232.909 124.364 232.901 124.344 232.861 124.344H229.477C229.397 124.344 229.357 124.304 229.357 124.224V123.72C229.357 123.64 229.397 123.6 229.477 123.6H233.917C233.997 123.6 234.037 123.64 234.037 123.72V124.308C234.037 124.348 234.017 124.396 233.977 124.452L232.057 126.756C232.041 126.772 232.037 126.788 232.045 126.804C232.053 126.812 232.069 126.816 232.093 126.816C232.949 126.872 233.533 127.276 233.845 128.028ZM238.233 132.12C237.465 132.12 236.853 131.9 236.397 131.46C235.941 131.02 235.713 130.432 235.713 129.696V125.904C235.713 125.168 235.941 124.584 236.397 124.152C236.853 123.712 237.465 123.492 238.233 123.492C239.009 123.492 239.629 123.712 240.093 124.152C240.557 124.592 240.789 125.176 240.789 125.904V129.696C240.789 130.432 240.557 131.02 240.093 131.46C239.629 131.9 239.009 132.12 238.233 132.12ZM238.233 131.376C238.745 131.376 239.157 131.228 239.469 130.932C239.781 130.636 239.937 130.24 239.937 129.744V125.868C239.937 125.38 239.781 124.988 239.469 124.692C239.165 124.396 238.753 124.248 238.233 124.248C237.729 124.248 237.325 124.396 237.021 124.692C236.717 124.988 236.565 125.38 236.565 125.868V129.744C236.565 130.24 236.717 130.636 237.021 130.932C237.325 131.228 237.729 131.376 238.233 131.376ZM248.777 123.72C248.777 123.64 248.817 123.6 248.897 123.6H249.509C249.589 123.6 249.629 123.64 249.629 123.72V131.88C249.629 131.96 249.589 132 249.509 132H248.897C248.817 132 248.777 131.96 248.777 131.88V131.376C248.777 131.36 248.769 131.352 248.753 131.352C248.745 131.344 248.733 131.348 248.717 131.364C248.541 131.596 248.321 131.776 248.057 131.904C247.801 132.032 247.513 132.096 247.193 132.096C246.633 132.096 246.161 131.952 245.777 131.664C245.401 131.376 245.141 130.984 244.997 130.488C244.885 130.128 244.829 129.62 244.829 128.964C244.829 128.3 244.877 127.804 244.973 127.476C245.117 126.964 245.381 126.564 245.765 126.276C246.149 125.98 246.625 125.832 247.193 125.832C247.505 125.832 247.793 125.896 248.057 126.024C248.321 126.144 248.541 126.32 248.717 126.552C248.733 126.568 248.745 126.576 248.753 126.576C248.769 126.568 248.777 126.556 248.777 126.54V123.72ZM248.561 130.428C248.633 130.268 248.685 130.08 248.717 129.864C248.749 129.648 248.765 129.348 248.765 128.964C248.765 128.58 248.749 128.28 248.717 128.064C248.685 127.84 248.629 127.644 248.549 127.476C248.453 127.204 248.293 126.988 248.069 126.828C247.853 126.66 247.593 126.576 247.289 126.576C246.969 126.576 246.693 126.656 246.461 126.816C246.229 126.976 246.061 127.188 245.957 127.452C245.861 127.628 245.789 127.828 245.741 128.052C245.701 128.268 245.681 128.572 245.681 128.964C245.681 129.34 245.697 129.636 245.729 129.852C245.761 130.06 245.817 130.248 245.897 130.416C245.993 130.704 246.161 130.932 246.401 131.1C246.649 131.268 246.941 131.352 247.277 131.352C247.597 131.352 247.865 131.268 248.081 131.1C248.297 130.932 248.457 130.708 248.561 130.428ZM253.659 125.832C254.379 125.832 254.935 126.016 255.327 126.384C255.719 126.752 255.915 127.24 255.915 127.848V131.88C255.915 131.96 255.875 132 255.795 132H255.183C255.103 132 255.063 131.96 255.063 131.88V131.388C255.063 131.372 255.055 131.36 255.039 131.352C255.031 131.344 255.019 131.348 255.003 131.364C254.803 131.604 254.543 131.788 254.223 131.916C253.903 132.036 253.547 132.096 253.155 132.096C252.587 132.096 252.111 131.952 251.727 131.664C251.343 131.376 251.151 130.936 251.151 130.344C251.151 129.744 251.367 129.272 251.799 128.928C252.239 128.576 252.847 128.4 253.623 128.4H255.015C255.047 128.4 255.063 128.384 255.063 128.352V127.896C255.063 127.488 254.947 127.168 254.715 126.936C254.491 126.696 254.139 126.576 253.659 126.576C253.275 126.576 252.963 126.652 252.723 126.804C252.483 126.948 252.335 127.152 252.279 127.416C252.255 127.496 252.207 127.532 252.135 127.524L251.487 127.44C251.399 127.424 251.363 127.392 251.379 127.344C251.443 126.896 251.683 126.532 252.099 126.252C252.515 125.972 253.035 125.832 253.659 125.832ZM253.323 131.364C253.795 131.364 254.203 131.248 254.547 131.016C254.891 130.776 255.063 130.456 255.063 130.056V129.12C255.063 129.088 255.047 129.072 255.015 129.072H253.755C253.227 129.072 252.803 129.18 252.483 129.396C252.163 129.612 252.003 129.912 252.003 130.296C252.003 130.648 252.123 130.916 252.363 131.1C252.611 131.276 252.931 131.364 253.323 131.364ZM257.342 134.4C257.286 134.4 257.258 134.36 257.258 134.28V133.8C257.258 133.72 257.298 133.68 257.378 133.68H257.426C257.738 133.672 257.978 133.624 258.146 133.536C258.322 133.456 258.47 133.3 258.59 133.068C258.718 132.844 258.854 132.5 258.998 132.036C259.014 132.004 259.014 131.98 258.998 131.964L256.97 126.06L256.958 126.012C256.958 125.956 256.994 125.928 257.066 125.928H257.702C257.774 125.928 257.822 125.96 257.846 126.024L259.406 130.872C259.414 130.888 259.426 130.896 259.442 130.896C259.458 130.896 259.47 130.888 259.478 130.872L261.014 126.024C261.038 125.96 261.086 125.928 261.158 125.928H261.782C261.87 125.928 261.902 125.972 261.878 126.06L259.658 132.528C259.466 133.064 259.286 133.46 259.118 133.716C258.95 133.972 258.738 134.148 258.482 134.244C258.234 134.348 257.882 134.4 257.426 134.4H257.342ZM264.766 132.06C264.318 132.06 263.918 131.988 263.566 131.844C263.222 131.7 262.954 131.508 262.762 131.268C262.578 131.028 262.486 130.76 262.486 130.464V130.32C262.486 130.24 262.526 130.2 262.606 130.2H263.182C263.262 130.2 263.302 130.24 263.302 130.32V130.416C263.302 130.68 263.438 130.912 263.71 131.112C263.99 131.304 264.338 131.4 264.754 131.4C265.17 131.4 265.506 131.308 265.762 131.124C266.018 130.932 266.146 130.692 266.146 130.404C266.146 130.204 266.078 130.04 265.942 129.912C265.814 129.784 265.658 129.684 265.474 129.612C265.298 129.54 265.022 129.448 264.646 129.336C264.198 129.208 263.83 129.08 263.542 128.952C263.254 128.824 263.01 128.648 262.81 128.424C262.618 128.192 262.522 127.9 262.522 127.548C262.522 127.036 262.722 126.628 263.122 126.324C263.522 126.02 264.05 125.868 264.706 125.868C265.146 125.868 265.534 125.94 265.87 126.084C266.214 126.228 266.478 126.428 266.662 126.684C266.846 126.932 266.938 127.212 266.938 127.524V127.56C266.938 127.64 266.898 127.68 266.818 127.68H266.254C266.174 127.68 266.134 127.64 266.134 127.56V127.524C266.134 127.252 266.002 127.024 265.738 126.84C265.482 126.656 265.134 126.564 264.694 126.564C264.286 126.564 263.958 126.648 263.71 126.816C263.462 126.976 263.338 127.2 263.338 127.488C263.338 127.76 263.458 127.968 263.698 128.112C263.938 128.256 264.31 128.4 264.814 128.544C265.278 128.68 265.654 128.808 265.942 128.928C266.23 129.048 266.478 129.224 266.686 129.456C266.894 129.68 266.998 129.976 266.998 130.344C266.998 130.864 266.794 131.28 266.386 131.592C265.978 131.904 265.438 132.06 264.766 132.06ZM269.332 122.844C269.388 122.844 269.436 122.868 269.476 122.916C269.86 123.516 270.172 124.264 270.412 125.16C270.652 126.056 270.772 127 270.772 127.992C270.772 129.008 270.648 129.976 270.4 130.896C270.16 131.816 269.84 132.576 269.44 133.176C269.408 133.224 269.36 133.248 269.296 133.248H268.732C268.684 133.248 268.652 133.232 268.636 133.2C268.62 133.176 268.624 133.144 268.648 133.104C268.992 132.488 269.272 131.732 269.488 130.836C269.704 129.932 269.812 128.992 269.812 128.016C269.812 127.048 269.704 126.12 269.488 125.232C269.272 124.344 268.992 123.596 268.648 122.988C268.632 122.956 268.624 122.932 268.624 122.916C268.624 122.868 268.66 122.844 268.732 122.844H269.332Z" fill="#A3A3A3"/>
<rect x="200.373" y="135" width="16" height="16.1308" rx="8" transform="rotate(-180 200.373 135)" fill="#2ED6A3" fill-opacity="0.15"/>
<g clip-path="url(#clip0_126_918)">
<path d="M190.393 126.796C190.481 126.885 190.601 126.935 190.726 126.935C190.85 126.935 190.97 126.885 191.058 126.796L191.902 125.945L191.902 129.07C191.902 129.195 191.952 129.316 192.04 129.405C192.128 129.494 192.248 129.544 192.373 129.544C192.498 129.544 192.617 129.494 192.706 129.405C192.794 129.316 192.843 129.195 192.843 129.07L192.843 125.945L193.687 126.796C193.776 126.882 193.895 126.93 194.018 126.929C194.142 126.928 194.26 126.878 194.347 126.79C194.434 126.702 194.484 126.583 194.485 126.458C194.486 126.334 194.438 126.214 194.353 126.125L192.705 124.464C192.617 124.375 192.498 124.325 192.373 124.325C192.248 124.325 192.128 124.375 192.04 124.464L190.393 126.125C190.305 126.214 190.255 126.334 190.255 126.46C190.255 126.586 190.305 126.707 190.393 126.796Z" fill="#00A389"/>
</g>
<defs>
<filter id="filter0_d_126_918" x="0" y="0" width="345.243" height="180" filterUnits="userSpaceOnUse" color-interpolation-filters="sRGB">
<feFlood flood-opacity="0" result="BackgroundImageFix"/>
<feColorMatrix in="SourceAlpha" type="matrix" values="0 0 0 0 0 0 0 0 0 0 0 0 0 0 0 0 0 0 127 0" result="hardAlpha"/>
<feOffset dy="4"/>
<feGaussianBlur stdDeviation="2"/>
<feColorMatrix type="matrix" values="0 0 0 0 0 0 0 0 0 0 0 0 0 0 0 0 0 0 0.04 0"/>
<feBlend mode="normal" in2="BackgroundImageFix" result="effect1_dropShadow_126_918"/>
<feBlend mode="normal" in="SourceGraphic" in2="effect1_dropShadow_126_918" result="shape"/>
</filter>
<clipPath id="clip0_126_918">
<rect width="5.64706" height="5.69322" fill="white" transform="translate(195.196 129.781) rotate(-180)"/>
</clipPath>
</defs>
</svg>
