<svg width="726" height="335" viewBox="0 0 726 335" fill="none" xmlns="http://www.w3.org/2000/svg">
<g filter="url(#filter0_d_142_10379)">
<path d="M4 14C4 6.26802 10.268 0 18 0H708C715.732 0 722 6.26801 722 14V313C722 320.732 715.732 327 708 327H18C10.268 327 4 320.732 4 313V14Z" fill="white"/>
</g>
<path d="M205 158.5C205 200.75 170.75 235 128.5 235C86.2502 235 52 200.75 52 158.5C52 116.25 86.2502 82 128.5 82C170.75 82 205 116.25 205 158.5ZM113.2 158.5C113.2 166.95 120.05 173.8 128.5 173.8C136.95 173.8 143.8 166.95 143.8 158.5C143.8 150.05 136.95 143.2 128.5 143.2C120.05 143.2 113.2 150.05 113.2 158.5Z" fill="#FF5B5B" fill-opacity="0.15"/>
<path d="M128.5 84C128.5 82.8954 129.396 81.9973 130.5 82.0261C146.214 82.4369 161.439 87.6805 174.088 97.0675C187.274 106.852 196.961 120.62 201.718 136.335C206.476 152.05 206.051 168.878 200.506 184.333C194.962 199.788 184.592 213.049 170.929 222.155C157.267 231.262 141.037 235.731 124.638 234.902C108.24 234.074 92.5433 227.991 79.8687 217.553C67.1941 207.115 58.214 192.876 54.256 176.941C50.4588 161.654 51.4769 145.584 57.1441 130.921C57.5423 129.891 58.716 129.41 59.7356 129.835L112.532 151.843C113.551 152.268 114.019 153.438 113.731 154.504C113.054 157.006 113.021 159.651 113.651 162.188C114.443 165.375 116.239 168.223 118.774 170.311C121.309 172.398 124.448 173.615 127.728 173.78C131.007 173.946 134.253 173.052 136.986 171.231C139.718 169.41 141.792 166.758 142.901 163.667C144.01 160.576 144.095 157.21 143.144 154.067C142.192 150.924 140.255 148.17 137.618 146.213C135.518 144.656 133.065 143.668 130.494 143.331C129.399 143.187 128.5 142.305 128.5 141.2V84Z" fill="#FF5B5B"/>
<g filter="url(#filter1_d_142_10379)">
<circle cx="128.451" cy="158.451" r="41.1429" fill="white"/>
</g>
<path d="M120.146 159.935C120.439 160.522 120.586 161.195 120.586 161.955C120.586 162.755 120.413 163.482 120.066 164.135C119.719 164.762 119.213 165.255 118.546 165.615C117.879 165.975 117.093 166.155 116.186 166.155C115.293 166.155 114.499 165.982 113.806 165.635C113.113 165.275 112.593 164.755 112.246 164.075C111.899 163.449 111.726 162.735 111.726 161.935C111.726 161.215 111.879 160.535 112.186 159.895C112.453 159.349 112.833 158.935 113.326 158.655C113.393 158.615 113.399 158.569 113.346 158.515C113.013 158.275 112.713 157.942 112.446 157.515C112.099 156.955 111.926 156.335 111.926 155.655C111.926 154.815 112.173 154.062 112.666 153.395C113.026 152.875 113.513 152.475 114.126 152.195C114.739 151.902 115.426 151.755 116.186 151.755C116.973 151.755 117.659 151.902 118.246 152.195C118.846 152.475 119.326 152.875 119.686 153.395C120.153 154.075 120.386 154.829 120.386 155.655C120.386 156.389 120.206 157.029 119.846 157.575C119.593 157.949 119.299 158.255 118.966 158.495C118.913 158.549 118.913 158.595 118.966 158.635C119.473 158.929 119.866 159.362 120.146 159.935ZM114.466 154.775C114.306 155.122 114.226 155.429 114.226 155.695C114.226 156.149 114.339 156.555 114.566 156.915C114.886 157.462 115.419 157.735 116.166 157.735C116.886 157.735 117.433 157.455 117.806 156.895C118.006 156.602 118.106 156.195 118.106 155.675C118.106 155.382 118.033 155.075 117.886 154.755C117.713 154.449 117.479 154.209 117.186 154.035C116.893 153.849 116.546 153.755 116.146 153.755C115.773 153.755 115.439 153.849 115.146 154.035C114.853 154.209 114.626 154.455 114.466 154.775ZM117.826 163.335C118.106 162.949 118.246 162.422 118.246 161.755C118.246 161.142 118.139 160.662 117.926 160.315C117.593 159.702 117.006 159.395 116.166 159.395C115.379 159.395 114.806 159.689 114.446 160.275C114.219 160.635 114.106 161.135 114.106 161.775C114.106 162.389 114.226 162.889 114.466 163.275C114.826 163.862 115.399 164.155 116.186 164.155C116.933 164.155 117.479 163.882 117.826 163.335ZM124.378 152.055C124.485 152.015 124.585 151.995 124.678 151.995H126.598C126.665 151.995 126.718 152.022 126.758 152.075C126.811 152.115 126.838 152.169 126.838 152.235V165.755C126.838 165.822 126.811 165.882 126.758 165.935C126.718 165.975 126.665 165.995 126.598 165.995H124.758C124.691 165.995 124.631 165.975 124.578 165.935C124.538 165.882 124.518 165.822 124.518 165.755V154.395C124.518 154.369 124.505 154.349 124.478 154.335C124.451 154.309 124.425 154.302 124.398 154.315L122.398 154.935C122.371 154.949 122.338 154.955 122.298 154.955C122.245 154.955 122.198 154.935 122.158 154.895C122.131 154.855 122.118 154.802 122.118 154.735L122.058 153.415C122.058 153.282 122.111 153.189 122.218 153.135L124.378 152.055ZM132.769 157.915C132.209 157.915 131.689 157.782 131.209 157.515C130.742 157.235 130.369 156.862 130.089 156.395C129.822 155.929 129.689 155.415 129.689 154.855C129.689 154.309 129.822 153.802 130.089 153.335C130.369 152.869 130.742 152.502 131.209 152.235C131.689 151.955 132.209 151.815 132.769 151.815C133.316 151.815 133.822 151.955 134.289 152.235C134.769 152.502 135.142 152.869 135.409 153.335C135.689 153.802 135.829 154.309 135.829 154.855C135.829 155.415 135.689 155.929 135.409 156.395C135.142 156.862 134.776 157.235 134.309 157.515C133.842 157.782 133.329 157.915 132.769 157.915ZM132.109 165.995C132.016 165.995 131.956 165.969 131.929 165.915C131.902 165.862 131.909 165.795 131.949 165.715L139.489 152.155C139.556 152.049 139.656 151.995 139.789 151.995H140.949C141.042 151.995 141.102 152.022 141.129 152.075C141.156 152.129 141.149 152.195 141.109 152.275L133.589 165.835C133.522 165.942 133.422 165.995 133.289 165.995H132.109ZM132.769 156.515C133.222 156.515 133.602 156.355 133.909 156.035C134.229 155.715 134.389 155.322 134.389 154.855C134.389 154.402 134.229 154.015 133.909 153.695C133.602 153.375 133.222 153.215 132.769 153.215C132.302 153.215 131.909 153.375 131.589 153.695C131.269 154.015 131.109 154.402 131.109 154.855C131.109 155.322 131.269 155.715 131.589 156.035C131.909 156.355 132.302 156.515 132.769 156.515ZM140.469 166.175C139.909 166.175 139.389 166.042 138.909 165.775C138.442 165.495 138.069 165.122 137.789 164.655C137.522 164.189 137.389 163.675 137.389 163.115C137.389 162.569 137.522 162.062 137.789 161.595C138.069 161.129 138.442 160.762 138.909 160.495C139.389 160.215 139.909 160.075 140.469 160.075C141.016 160.075 141.522 160.215 141.989 160.495C142.469 160.762 142.842 161.129 143.109 161.595C143.389 162.062 143.529 162.569 143.529 163.115C143.529 163.675 143.389 164.189 143.109 164.655C142.842 165.122 142.476 165.495 142.009 165.775C141.542 166.042 141.029 166.175 140.469 166.175ZM140.469 164.775C140.922 164.775 141.309 164.615 141.629 164.295C141.949 163.975 142.109 163.582 142.109 163.115C142.109 162.662 141.949 162.275 141.629 161.955C141.309 161.635 140.922 161.475 140.469 161.475C140.002 161.475 139.609 161.635 139.289 161.955C138.969 162.275 138.809 162.662 138.809 163.115C138.809 163.582 138.969 163.975 139.289 164.295C139.609 164.615 140.002 164.775 140.469 164.775Z" fill="black"/>
<path d="M94.0003 265.4C94.0603 265.4 94.1083 265.424 94.1443 265.472C94.1923 265.508 94.2163 265.556 94.2163 265.616V267.002C94.2163 267.062 94.1923 267.116 94.1443 267.164C94.1083 267.2 94.0603 267.218 94.0003 267.218H90.6883C90.6283 267.218 90.5983 267.248 90.5983 267.308V277.784C90.5983 277.844 90.5743 277.898 90.5263 277.946C90.4903 277.982 90.4423 278 90.3823 278H88.7263C88.6663 278 88.6123 277.982 88.5643 277.946C88.5283 277.898 88.5103 277.844 88.5103 277.784V267.308C88.5103 267.248 88.4803 267.218 88.4203 267.218H85.2343C85.1743 267.218 85.1203 267.2 85.0723 267.164C85.0363 267.116 85.0183 267.062 85.0183 267.002V265.616C85.0183 265.556 85.0363 265.508 85.0723 265.472C85.1203 265.424 85.1743 265.4 85.2343 265.4H94.0003ZM98.4283 278.144C97.4803 278.144 96.6643 277.904 95.9803 277.424C95.3083 276.944 94.8343 276.278 94.5583 275.426C94.3543 274.778 94.2523 274.094 94.2523 273.374C94.2523 272.606 94.3483 271.922 94.5403 271.322C94.8163 270.482 95.2963 269.828 95.9803 269.36C96.6643 268.892 97.4863 268.658 98.4463 268.658C99.3583 268.658 100.144 268.892 100.804 269.36C101.476 269.828 101.95 270.476 102.226 271.304C102.442 271.88 102.55 272.564 102.55 273.356C102.55 274.112 102.448 274.796 102.244 275.408C101.968 276.26 101.494 276.932 100.822 277.424C100.15 277.904 99.3523 278.144 98.4283 278.144ZM98.4283 276.344C98.8723 276.344 99.2503 276.218 99.5623 275.966C99.8863 275.714 100.12 275.36 100.264 274.904C100.384 274.508 100.444 274.004 100.444 273.392C100.444 272.744 100.384 272.24 100.264 271.88C100.132 271.424 99.9043 271.076 99.5803 270.836C99.2563 270.584 98.8603 270.458 98.3923 270.458C97.9483 270.458 97.5643 270.584 97.2403 270.836C96.9163 271.076 96.6823 271.424 96.5383 271.88C96.4183 272.3 96.3583 272.804 96.3583 273.392C96.3583 273.98 96.4183 274.484 96.5383 274.904C96.6703 275.36 96.8983 275.714 97.2223 275.966C97.5583 276.218 97.9603 276.344 98.4283 276.344ZM109.209 270.278C109.209 270.338 109.185 270.392 109.137 270.44C109.101 270.476 109.053 270.494 108.993 270.494H107.157C107.097 270.494 107.067 270.524 107.067 270.584V274.922C107.067 275.378 107.163 275.708 107.355 275.912C107.559 276.116 107.877 276.218 108.309 276.218H108.849C108.909 276.218 108.957 276.242 108.993 276.29C109.041 276.326 109.065 276.374 109.065 276.434V277.784C109.065 277.916 108.993 277.994 108.849 278.018L107.913 278.036C106.965 278.036 106.257 277.874 105.789 277.55C105.321 277.226 105.081 276.614 105.069 275.714V270.584C105.069 270.524 105.039 270.494 104.979 270.494H103.953C103.893 270.494 103.839 270.476 103.791 270.44C103.755 270.392 103.737 270.338 103.737 270.278V269.018C103.737 268.958 103.755 268.91 103.791 268.874C103.839 268.826 103.893 268.802 103.953 268.802H104.979C105.039 268.802 105.069 268.772 105.069 268.712V266.606C105.069 266.546 105.087 266.498 105.123 266.462C105.171 266.414 105.225 266.39 105.285 266.39H106.851C106.911 266.39 106.959 266.414 106.995 266.462C107.043 266.498 107.067 266.546 107.067 266.606V268.712C107.067 268.772 107.097 268.802 107.157 268.802H108.993C109.053 268.802 109.101 268.826 109.137 268.874C109.185 268.91 109.209 268.958 109.209 269.018V270.278ZM114.573 268.658C115.329 268.658 115.995 268.79 116.571 269.054C117.147 269.318 117.591 269.684 117.903 270.152C118.215 270.608 118.371 271.13 118.371 271.718V277.784C118.371 277.844 118.347 277.898 118.299 277.946C118.263 277.982 118.215 278 118.155 278H116.499C116.439 278 116.385 277.982 116.337 277.946C116.301 277.898 116.283 277.844 116.283 277.784V277.208C116.283 277.172 116.271 277.154 116.247 277.154C116.223 277.142 116.199 277.148 116.175 277.172C115.587 277.82 114.735 278.144 113.619 278.144C112.719 278.144 111.975 277.916 111.387 277.46C110.811 277.004 110.523 276.326 110.523 275.426C110.523 274.49 110.847 273.764 111.495 273.248C112.155 272.72 113.079 272.456 114.267 272.456H116.193C116.253 272.456 116.283 272.426 116.283 272.366V271.934C116.283 271.466 116.145 271.106 115.869 270.854C115.593 270.59 115.179 270.458 114.627 270.458C114.171 270.458 113.799 270.542 113.511 270.71C113.235 270.866 113.061 271.088 112.989 271.376C112.953 271.52 112.869 271.58 112.737 271.556L110.991 271.34C110.931 271.328 110.877 271.31 110.829 271.286C110.793 271.25 110.781 271.208 110.793 271.16C110.889 270.428 111.279 269.828 111.963 269.36C112.659 268.892 113.529 268.658 114.573 268.658ZM114.141 276.488C114.729 276.488 115.233 276.332 115.653 276.02C116.073 275.708 116.283 275.312 116.283 274.832V273.986C116.283 273.926 116.253 273.896 116.193 273.896H114.681C114.045 273.896 113.541 274.016 113.169 274.256C112.809 274.496 112.629 274.838 112.629 275.282C112.629 275.666 112.767 275.966 113.043 276.182C113.331 276.386 113.697 276.488 114.141 276.488ZM120.684 278C120.624 278 120.57 277.982 120.522 277.946C120.486 277.898 120.468 277.844 120.468 277.784V265.616C120.468 265.556 120.486 265.508 120.522 265.472C120.57 265.424 120.624 265.4 120.684 265.4H122.34C122.4 265.4 122.448 265.424 122.484 265.472C122.532 265.508 122.556 265.556 122.556 265.616V277.784C122.556 277.844 122.532 277.898 122.484 277.946C122.448 277.982 122.4 278 122.34 278H120.684ZM132.842 278.18C131.942 278.18 131.144 278 130.448 277.64C129.752 277.268 129.212 276.746 128.828 276.074C128.456 275.402 128.27 274.628 128.27 273.752V269.648C128.27 268.784 128.462 268.022 128.846 267.362C129.23 266.69 129.764 266.174 130.448 265.814C131.144 265.442 131.942 265.256 132.842 265.256C133.754 265.256 134.552 265.442 135.236 265.814C135.932 266.174 136.472 266.69 136.856 267.362C137.24 268.022 137.432 268.784 137.432 269.648V273.752C137.432 274.628 137.24 275.402 136.856 276.074C136.472 276.746 135.932 277.268 135.236 277.64C134.552 278 133.754 278.18 132.842 278.18ZM132.842 276.38C133.598 276.38 134.204 276.146 134.66 275.678C135.116 275.21 135.344 274.592 135.344 273.824V269.63C135.344 268.85 135.116 268.226 134.66 267.758C134.204 267.29 133.598 267.056 132.842 267.056C132.098 267.056 131.498 267.29 131.042 267.758C130.586 268.226 130.358 268.85 130.358 269.63V273.824C130.358 274.592 130.586 275.21 131.042 275.678C131.498 276.146 132.098 276.38 132.842 276.38ZM143.841 268.694C144.225 268.694 144.561 268.772 144.849 268.928C144.945 268.976 144.981 269.066 144.957 269.198L144.651 270.818C144.639 270.962 144.555 271.004 144.399 270.944C144.219 270.884 144.009 270.854 143.769 270.854C143.613 270.854 143.493 270.86 143.409 270.872C142.905 270.896 142.485 271.076 142.149 271.412C141.813 271.736 141.645 272.162 141.645 272.69V277.784C141.645 277.844 141.621 277.898 141.573 277.946C141.537 277.982 141.489 278 141.429 278H139.773C139.713 278 139.659 277.982 139.611 277.946C139.575 277.898 139.557 277.844 139.557 277.784V269.018C139.557 268.958 139.575 268.91 139.611 268.874C139.659 268.826 139.713 268.802 139.773 268.802H141.429C141.489 268.802 141.537 268.826 141.573 268.874C141.621 268.91 141.645 268.958 141.645 269.018V269.828C141.645 269.876 141.651 269.906 141.663 269.918C141.687 269.918 141.711 269.9 141.735 269.864C142.239 269.084 142.941 268.694 143.841 268.694ZM151.855 265.616C151.855 265.556 151.873 265.508 151.909 265.472C151.957 265.424 152.011 265.4 152.071 265.4H153.727C153.787 265.4 153.835 265.424 153.871 265.472C153.919 265.508 153.943 265.556 153.943 265.616V277.784C153.943 277.844 153.919 277.898 153.871 277.946C153.835 277.982 153.787 278 153.727 278H152.071C152.011 278 151.957 277.982 151.909 277.946C151.873 277.898 151.855 277.844 151.855 277.784V277.244C151.855 277.208 151.843 277.184 151.819 277.172C151.795 277.16 151.771 277.172 151.747 277.208C151.219 277.832 150.529 278.144 149.677 278.144C148.825 278.144 148.105 277.922 147.517 277.478C146.929 277.034 146.503 276.416 146.239 275.624C146.023 274.952 145.915 274.202 145.915 273.374C145.915 272.522 146.017 271.79 146.221 271.178C146.485 270.386 146.911 269.768 147.499 269.324C148.087 268.88 148.825 268.658 149.713 268.658C150.541 268.658 151.219 268.958 151.747 269.558C151.771 269.582 151.795 269.594 151.819 269.594C151.843 269.582 151.855 269.558 151.855 269.522V265.616ZM151.423 275.48C151.699 274.988 151.837 274.292 151.837 273.392C151.837 272.456 151.687 271.742 151.387 271.25C151.063 270.722 150.607 270.458 150.019 270.458C149.407 270.458 148.927 270.71 148.579 271.214C148.219 271.742 148.039 272.474 148.039 273.41C148.039 274.25 148.183 274.94 148.471 275.48C148.807 276.056 149.317 276.344 150.001 276.344C150.613 276.344 151.087 276.056 151.423 275.48ZM163.962 272.366C164.01 272.666 164.034 273.002 164.034 273.374L164.016 273.932C164.016 274.076 163.944 274.148 163.8 274.148H158.166C158.106 274.148 158.076 274.178 158.076 274.238C158.112 274.634 158.166 274.904 158.238 275.048C158.526 275.912 159.228 276.35 160.344 276.362C161.16 276.362 161.808 276.026 162.288 275.354C162.336 275.282 162.396 275.246 162.468 275.246C162.516 275.246 162.558 275.264 162.594 275.3L163.71 276.218C163.818 276.302 163.836 276.398 163.764 276.506C163.392 277.034 162.894 277.442 162.27 277.73C161.658 278.018 160.974 278.162 160.218 278.162C159.282 278.162 158.484 277.952 157.824 277.532C157.176 277.112 156.702 276.524 156.402 275.768C156.126 275.12 155.988 274.22 155.988 273.068C155.988 272.372 156.06 271.808 156.204 271.376C156.444 270.536 156.894 269.876 157.554 269.396C158.226 268.904 159.03 268.658 159.966 268.658C162.33 268.658 163.662 269.894 163.962 272.366ZM159.966 270.458C159.522 270.458 159.15 270.572 158.85 270.8C158.562 271.016 158.358 271.322 158.238 271.718C158.166 271.922 158.118 272.186 158.094 272.51C158.07 272.57 158.094 272.6 158.166 272.6H161.82C161.88 272.6 161.91 272.57 161.91 272.51C161.886 272.21 161.85 271.982 161.802 271.826C161.694 271.394 161.478 271.058 161.154 270.818C160.842 270.578 160.446 270.458 159.966 270.458ZM170.226 268.694C170.61 268.694 170.946 268.772 171.234 268.928C171.33 268.976 171.366 269.066 171.342 269.198L171.036 270.818C171.024 270.962 170.94 271.004 170.784 270.944C170.604 270.884 170.394 270.854 170.154 270.854C169.998 270.854 169.878 270.86 169.794 270.872C169.29 270.896 168.87 271.076 168.534 271.412C168.198 271.736 168.03 272.162 168.03 272.69V277.784C168.03 277.844 168.006 277.898 167.958 277.946C167.922 277.982 167.874 278 167.814 278H166.158C166.098 278 166.044 277.982 165.996 277.946C165.96 277.898 165.942 277.844 165.942 277.784V269.018C165.942 268.958 165.96 268.91 165.996 268.874C166.044 268.826 166.098 268.802 166.158 268.802H167.814C167.874 268.802 167.922 268.826 167.958 268.874C168.006 268.91 168.03 268.958 168.03 269.018V269.828C168.03 269.876 168.036 269.906 168.048 269.918C168.072 269.918 168.096 269.9 168.12 269.864C168.624 269.084 169.326 268.694 170.226 268.694Z" fill="#464255"/>
<path d="M436 158.5C436 200.75 401.75 235 359.5 235C317.25 235 283 200.75 283 158.5C283 116.25 317.25 82 359.5 82C401.75 82 436 116.25 436 158.5ZM344.2 158.5C344.2 166.95 351.05 173.8 359.5 173.8C367.95 173.8 374.8 166.95 374.8 158.5C374.8 150.05 367.95 143.2 359.5 143.2C351.05 143.2 344.2 150.05 344.2 158.5Z" fill="#00B074" fill-opacity="0.15"/>
<path d="M359.5 84C359.5 82.8954 360.396 81.9973 361.5 82.0261C379.073 82.4854 395.975 88.9856 409.342 100.465C422.708 111.945 431.687 127.672 434.795 144.973C434.99 146.061 434.237 147.082 433.145 147.249L376.602 155.887C375.51 156.054 374.502 155.298 374.194 154.238C373.37 151.396 371.735 148.839 369.468 146.893C367.202 144.947 364.428 143.716 361.494 143.331C360.399 143.187 359.5 142.305 359.5 141.2L359.5 84Z" fill="#00B074"/>
<g filter="url(#filter2_d_142_10379)">
<circle cx="359.451" cy="158.451" r="41.1429" fill="white"/>
</g>
<path d="M345.946 163.875C345.92 163.902 345.906 163.929 345.906 163.955C345.92 163.982 345.946 163.995 345.986 163.995H351.686C351.753 163.995 351.806 164.022 351.846 164.075C351.9 164.115 351.926 164.169 351.926 164.235V165.755C351.926 165.822 351.9 165.882 351.846 165.935C351.806 165.975 351.753 165.995 351.686 165.995H343.086C343.02 165.995 342.96 165.975 342.906 165.935C342.866 165.882 342.846 165.822 342.846 165.755V164.315C342.846 164.195 342.886 164.095 342.966 164.015C343.98 162.935 345.153 161.609 346.486 160.035L347.426 158.935C348.653 157.509 349.266 156.429 349.266 155.695C349.266 155.149 349.073 154.702 348.686 154.355C348.3 154.009 347.8 153.835 347.186 153.835C346.573 153.835 346.073 154.009 345.686 154.355C345.313 154.702 345.126 155.162 345.126 155.735V156.255C345.126 156.322 345.1 156.382 345.046 156.435C345.006 156.475 344.953 156.495 344.886 156.495H343.026C342.96 156.495 342.9 156.475 342.846 156.435C342.806 156.382 342.786 156.322 342.786 156.255V155.395C342.813 154.675 343.02 154.049 343.406 153.515C343.793 152.982 344.313 152.569 344.966 152.275C345.633 151.982 346.373 151.835 347.186 151.835C348.08 151.835 348.86 152.002 349.526 152.335C350.193 152.669 350.706 153.129 351.066 153.715C351.426 154.289 351.606 154.935 351.606 155.655C351.606 156.749 351.026 158.009 349.866 159.435C349.226 160.235 348.173 161.435 346.706 163.035L345.946 163.875ZM356.962 163.875C356.935 163.902 356.922 163.929 356.922 163.955C356.935 163.982 356.962 163.995 357.002 163.995H362.702C362.768 163.995 362.822 164.022 362.862 164.075C362.915 164.115 362.942 164.169 362.942 164.235V165.755C362.942 165.822 362.915 165.882 362.862 165.935C362.822 165.975 362.768 165.995 362.702 165.995H354.102C354.035 165.995 353.975 165.975 353.922 165.935C353.882 165.882 353.862 165.822 353.862 165.755V164.315C353.862 164.195 353.902 164.095 353.982 164.015C354.995 162.935 356.168 161.609 357.502 160.035L358.442 158.935C359.668 157.509 360.282 156.429 360.282 155.695C360.282 155.149 360.088 154.702 359.702 154.355C359.315 154.009 358.815 153.835 358.202 153.835C357.588 153.835 357.088 154.009 356.702 154.355C356.328 154.702 356.142 155.162 356.142 155.735V156.255C356.142 156.322 356.115 156.382 356.062 156.435C356.022 156.475 355.968 156.495 355.902 156.495H354.042C353.975 156.495 353.915 156.475 353.862 156.435C353.822 156.382 353.802 156.322 353.802 156.255V155.395C353.828 154.675 354.035 154.049 354.422 153.515C354.808 152.982 355.328 152.569 355.982 152.275C356.648 151.982 357.388 151.835 358.202 151.835C359.095 151.835 359.875 152.002 360.542 152.335C361.208 152.669 361.722 153.129 362.082 153.715C362.442 154.289 362.622 154.935 362.622 155.655C362.622 156.749 362.042 158.009 360.882 159.435C360.242 160.235 359.188 161.435 357.722 163.035L356.962 163.875ZM368.417 157.915C367.857 157.915 367.337 157.782 366.857 157.515C366.391 157.235 366.017 156.862 365.737 156.395C365.471 155.929 365.337 155.415 365.337 154.855C365.337 154.309 365.471 153.802 365.737 153.335C366.017 152.869 366.391 152.502 366.857 152.235C367.337 151.955 367.857 151.815 368.417 151.815C368.964 151.815 369.471 151.955 369.937 152.235C370.417 152.502 370.791 152.869 371.057 153.335C371.337 153.802 371.477 154.309 371.477 154.855C371.477 155.415 371.337 155.929 371.057 156.395C370.791 156.862 370.424 157.235 369.957 157.515C369.491 157.782 368.977 157.915 368.417 157.915ZM367.757 165.995C367.664 165.995 367.604 165.969 367.577 165.915C367.551 165.862 367.557 165.795 367.597 165.715L375.137 152.155C375.204 152.049 375.304 151.995 375.437 151.995H376.597C376.691 151.995 376.751 152.022 376.777 152.075C376.804 152.129 376.797 152.195 376.757 152.275L369.237 165.835C369.171 165.942 369.071 165.995 368.937 165.995H367.757ZM368.417 156.515C368.871 156.515 369.251 156.355 369.557 156.035C369.877 155.715 370.037 155.322 370.037 154.855C370.037 154.402 369.877 154.015 369.557 153.695C369.251 153.375 368.871 153.215 368.417 153.215C367.951 153.215 367.557 153.375 367.237 153.695C366.917 154.015 366.757 154.402 366.757 154.855C366.757 155.322 366.917 155.715 367.237 156.035C367.557 156.355 367.951 156.515 368.417 156.515ZM376.117 166.175C375.557 166.175 375.037 166.042 374.557 165.775C374.091 165.495 373.717 165.122 373.437 164.655C373.171 164.189 373.037 163.675 373.037 163.115C373.037 162.569 373.171 162.062 373.437 161.595C373.717 161.129 374.091 160.762 374.557 160.495C375.037 160.215 375.557 160.075 376.117 160.075C376.664 160.075 377.171 160.215 377.637 160.495C378.117 160.762 378.491 161.129 378.757 161.595C379.037 162.062 379.177 162.569 379.177 163.115C379.177 163.675 379.037 164.189 378.757 164.655C378.491 165.122 378.124 165.495 377.657 165.775C377.191 166.042 376.677 166.175 376.117 166.175ZM376.117 164.775C376.571 164.775 376.957 164.615 377.277 164.295C377.597 163.975 377.757 163.582 377.757 163.115C377.757 162.662 377.597 162.275 377.277 161.955C376.957 161.635 376.571 161.475 376.117 161.475C375.651 161.475 375.257 161.635 374.937 161.955C374.617 162.275 374.457 162.662 374.457 163.115C374.457 163.582 374.617 163.975 374.937 164.295C375.257 164.615 375.651 164.775 376.117 164.775Z" fill="black"/>
<path d="M295.795 278.144C294.895 278.144 294.103 277.97 293.419 277.622C292.735 277.262 292.207 276.764 291.835 276.128C291.463 275.492 291.277 274.754 291.277 273.914V269.468C291.277 268.628 291.463 267.89 291.835 267.254C292.207 266.618 292.735 266.126 293.419 265.778C294.103 265.43 294.895 265.256 295.795 265.256C296.683 265.256 297.469 265.424 298.153 265.76C298.837 266.096 299.365 266.57 299.737 267.182C300.109 267.794 300.295 268.502 300.295 269.306C300.295 269.366 300.271 269.42 300.223 269.468C300.187 269.504 300.139 269.522 300.079 269.522L298.423 269.612C298.279 269.612 298.207 269.546 298.207 269.414C298.207 268.706 297.985 268.136 297.541 267.704C297.109 267.272 296.527 267.056 295.795 267.056C295.063 267.056 294.475 267.272 294.031 267.704C293.587 268.136 293.365 268.706 293.365 269.414V274.004C293.365 274.7 293.587 275.264 294.031 275.696C294.475 276.128 295.063 276.344 295.795 276.344C296.527 276.344 297.109 276.134 297.541 275.714C297.985 275.282 298.207 274.712 298.207 274.004C298.207 273.872 298.279 273.806 298.423 273.806L300.079 273.878C300.139 273.878 300.187 273.896 300.223 273.932C300.271 273.968 300.295 274.01 300.295 274.058C300.295 274.874 300.109 275.594 299.737 276.218C299.365 276.83 298.837 277.304 298.153 277.64C297.469 277.976 296.683 278.144 295.795 278.144ZM307.772 269.018C307.772 268.958 307.79 268.91 307.826 268.874C307.874 268.826 307.928 268.802 307.988 268.802H309.626C309.686 268.802 309.734 268.826 309.77 268.874C309.818 268.91 309.842 268.958 309.842 269.018V277.784C309.842 277.844 309.818 277.898 309.77 277.946C309.734 277.982 309.686 278 309.626 278H307.988C307.928 278 307.874 277.982 307.826 277.946C307.79 277.898 307.772 277.844 307.772 277.784V277.208C307.772 277.172 307.76 277.148 307.736 277.136C307.712 277.124 307.688 277.136 307.664 277.172C307.172 277.808 306.434 278.126 305.45 278.126C304.538 278.126 303.77 277.862 303.146 277.334C302.534 276.806 302.228 276.056 302.228 275.084V269.018C302.228 268.958 302.246 268.91 302.282 268.874C302.33 268.826 302.384 268.802 302.444 268.802H304.1C304.16 268.802 304.208 268.826 304.244 268.874C304.292 268.91 304.316 268.958 304.316 269.018V274.49C304.316 275.054 304.46 275.504 304.748 275.84C305.048 276.176 305.462 276.344 305.99 276.344C306.53 276.344 306.962 276.176 307.286 275.84C307.61 275.504 307.772 275.054 307.772 274.49V269.018ZM315.494 278.108C314.738 278.108 314.072 278 313.496 277.784C312.932 277.556 312.494 277.25 312.182 276.866C311.87 276.47 311.714 276.032 311.714 275.552V275.39C311.714 275.33 311.732 275.282 311.768 275.246C311.816 275.198 311.87 275.174 311.93 275.174H313.514C313.574 275.174 313.622 275.198 313.658 275.246C313.706 275.282 313.73 275.33 313.73 275.39V275.426C313.73 275.726 313.892 275.99 314.216 276.218C314.552 276.434 314.972 276.542 315.476 276.542C315.956 276.542 316.346 276.446 316.646 276.254C316.946 276.05 317.096 275.798 317.096 275.498C317.096 275.222 316.97 275.018 316.718 274.886C316.478 274.742 316.082 274.592 315.53 274.436L314.846 274.22C314.234 274.04 313.718 273.848 313.298 273.644C312.878 273.44 312.524 273.164 312.236 272.816C311.948 272.456 311.804 272 311.804 271.448C311.804 270.608 312.134 269.942 312.794 269.45C313.454 268.946 314.324 268.694 315.404 268.694C316.136 268.694 316.778 268.814 317.33 269.054C317.882 269.282 318.308 269.606 318.608 270.026C318.908 270.434 319.058 270.902 319.058 271.43C319.058 271.49 319.034 271.544 318.986 271.592C318.95 271.628 318.902 271.646 318.842 271.646H317.312C317.252 271.646 317.198 271.628 317.15 271.592C317.114 271.544 317.096 271.49 317.096 271.43C317.096 271.118 316.94 270.86 316.628 270.656C316.328 270.44 315.914 270.332 315.386 270.332C314.918 270.332 314.534 270.422 314.234 270.602C313.946 270.77 313.802 271.01 313.802 271.322C313.802 271.61 313.94 271.832 314.216 271.988C314.504 272.132 314.978 272.294 315.638 272.474L316.034 272.582C316.67 272.774 317.204 272.972 317.636 273.176C318.068 273.368 318.434 273.644 318.734 274.004C319.034 274.352 319.184 274.808 319.184 275.372C319.184 276.224 318.848 276.896 318.176 277.388C317.504 277.868 316.61 278.108 315.494 278.108ZM325.811 270.278C325.811 270.338 325.787 270.392 325.739 270.44C325.703 270.476 325.655 270.494 325.595 270.494H323.759C323.699 270.494 323.669 270.524 323.669 270.584V274.922C323.669 275.378 323.765 275.708 323.957 275.912C324.161 276.116 324.479 276.218 324.911 276.218H325.451C325.511 276.218 325.559 276.242 325.595 276.29C325.643 276.326 325.667 276.374 325.667 276.434V277.784C325.667 277.916 325.595 277.994 325.451 278.018L324.515 278.036C323.567 278.036 322.859 277.874 322.391 277.55C321.923 277.226 321.683 276.614 321.671 275.714V270.584C321.671 270.524 321.641 270.494 321.581 270.494H320.555C320.495 270.494 320.441 270.476 320.393 270.44C320.357 270.392 320.339 270.338 320.339 270.278V269.018C320.339 268.958 320.357 268.91 320.393 268.874C320.441 268.826 320.495 268.802 320.555 268.802H321.581C321.641 268.802 321.671 268.772 321.671 268.712V266.606C321.671 266.546 321.689 266.498 321.725 266.462C321.773 266.414 321.827 266.39 321.887 266.39H323.453C323.513 266.39 323.561 266.414 323.597 266.462C323.645 266.498 323.669 266.546 323.669 266.606V268.712C323.669 268.772 323.699 268.802 323.759 268.802H325.595C325.655 268.802 325.703 268.826 325.739 268.874C325.787 268.91 325.811 268.958 325.811 269.018V270.278ZM331.396 278.144C330.448 278.144 329.632 277.904 328.948 277.424C328.276 276.944 327.802 276.278 327.526 275.426C327.322 274.778 327.22 274.094 327.22 273.374C327.22 272.606 327.316 271.922 327.508 271.322C327.784 270.482 328.264 269.828 328.948 269.36C329.632 268.892 330.454 268.658 331.414 268.658C332.326 268.658 333.112 268.892 333.772 269.36C334.444 269.828 334.918 270.476 335.194 271.304C335.41 271.88 335.518 272.564 335.518 273.356C335.518 274.112 335.416 274.796 335.212 275.408C334.936 276.26 334.462 276.932 333.79 277.424C333.118 277.904 332.32 278.144 331.396 278.144ZM331.396 276.344C331.84 276.344 332.218 276.218 332.53 275.966C332.854 275.714 333.088 275.36 333.232 274.904C333.352 274.508 333.412 274.004 333.412 273.392C333.412 272.744 333.352 272.24 333.232 271.88C333.1 271.424 332.872 271.076 332.548 270.836C332.224 270.584 331.828 270.458 331.36 270.458C330.916 270.458 330.532 270.584 330.208 270.836C329.884 271.076 329.65 271.424 329.506 271.88C329.386 272.3 329.326 272.804 329.326 273.392C329.326 273.98 329.386 274.484 329.506 274.904C329.638 275.36 329.866 275.714 330.19 275.966C330.526 276.218 330.928 276.344 331.396 276.344ZM347.338 268.658C348.262 268.658 348.982 268.94 349.498 269.504C350.026 270.056 350.29 270.83 350.29 271.826V277.784C350.29 277.844 350.266 277.898 350.218 277.946C350.182 277.982 350.134 278 350.074 278H348.436C348.376 278 348.322 277.982 348.274 277.946C348.238 277.898 348.22 277.844 348.22 277.784V272.258C348.22 271.706 348.07 271.268 347.77 270.944C347.482 270.62 347.092 270.458 346.6 270.458C346.108 270.458 345.706 270.62 345.394 270.944C345.082 271.268 344.926 271.7 344.926 272.24V277.784C344.926 277.844 344.902 277.898 344.854 277.946C344.818 277.982 344.77 278 344.71 278H343.072C343.012 278 342.958 277.982 342.91 277.946C342.874 277.898 342.856 277.844 342.856 277.784V272.258C342.856 271.706 342.706 271.268 342.406 270.944C342.106 270.62 341.71 270.458 341.218 270.458C340.762 270.458 340.384 270.59 340.084 270.854C339.796 271.118 339.628 271.478 339.58 271.934V277.784C339.58 277.844 339.556 277.898 339.508 277.946C339.472 277.982 339.424 278 339.364 278H337.708C337.648 278 337.594 277.982 337.546 277.946C337.51 277.898 337.492 277.844 337.492 277.784V269.018C337.492 268.958 337.51 268.91 337.546 268.874C337.594 268.826 337.648 268.802 337.708 268.802H339.364C339.424 268.802 339.472 268.826 339.508 268.874C339.556 268.91 339.58 268.958 339.58 269.018V269.612C339.58 269.648 339.592 269.672 339.616 269.684C339.64 269.696 339.664 269.684 339.688 269.648C339.952 269.312 340.276 269.066 340.66 268.91C341.056 268.742 341.494 268.658 341.974 268.658C342.562 268.658 343.078 268.778 343.522 269.018C343.966 269.258 344.308 269.606 344.548 270.062C344.584 270.11 344.626 270.11 344.674 270.062C344.938 269.582 345.304 269.228 345.772 269C346.24 268.772 346.762 268.658 347.338 268.658ZM360.103 272.366C360.151 272.666 360.175 273.002 360.175 273.374L360.157 273.932C360.157 274.076 360.085 274.148 359.941 274.148H354.307C354.247 274.148 354.217 274.178 354.217 274.238C354.253 274.634 354.307 274.904 354.379 275.048C354.667 275.912 355.369 276.35 356.485 276.362C357.301 276.362 357.949 276.026 358.429 275.354C358.477 275.282 358.537 275.246 358.609 275.246C358.657 275.246 358.699 275.264 358.735 275.3L359.851 276.218C359.959 276.302 359.977 276.398 359.905 276.506C359.533 277.034 359.035 277.442 358.411 277.73C357.799 278.018 357.115 278.162 356.359 278.162C355.423 278.162 354.625 277.952 353.965 277.532C353.317 277.112 352.843 276.524 352.543 275.768C352.267 275.12 352.129 274.22 352.129 273.068C352.129 272.372 352.201 271.808 352.345 271.376C352.585 270.536 353.035 269.876 353.695 269.396C354.367 268.904 355.171 268.658 356.107 268.658C358.471 268.658 359.803 269.894 360.103 272.366ZM356.107 270.458C355.663 270.458 355.291 270.572 354.991 270.8C354.703 271.016 354.499 271.322 354.379 271.718C354.307 271.922 354.259 272.186 354.235 272.51C354.211 272.57 354.235 272.6 354.307 272.6H357.961C358.021 272.6 358.051 272.57 358.051 272.51C358.027 272.21 357.991 271.982 357.943 271.826C357.835 271.394 357.619 271.058 357.295 270.818C356.983 270.578 356.587 270.458 356.107 270.458ZM366.368 268.694C366.752 268.694 367.088 268.772 367.376 268.928C367.472 268.976 367.508 269.066 367.484 269.198L367.178 270.818C367.166 270.962 367.082 271.004 366.926 270.944C366.746 270.884 366.536 270.854 366.296 270.854C366.14 270.854 366.02 270.86 365.936 270.872C365.432 270.896 365.012 271.076 364.676 271.412C364.34 271.736 364.172 272.162 364.172 272.69V277.784C364.172 277.844 364.148 277.898 364.1 277.946C364.064 277.982 364.016 278 363.956 278H362.3C362.24 278 362.186 277.982 362.138 277.946C362.102 277.898 362.084 277.844 362.084 277.784V269.018C362.084 268.958 362.102 268.91 362.138 268.874C362.186 268.826 362.24 268.802 362.3 268.802H363.956C364.016 268.802 364.064 268.826 364.1 268.874C364.148 268.91 364.172 268.958 364.172 269.018V269.828C364.172 269.876 364.178 269.906 364.19 269.918C364.214 269.918 364.238 269.9 364.262 269.864C364.766 269.084 365.468 268.694 366.368 268.694ZM376.865 278.144C375.965 278.144 375.173 277.97 374.489 277.622C373.805 277.262 373.277 276.758 372.905 276.11C372.533 275.462 372.347 274.718 372.347 273.878V269.522C372.347 268.67 372.533 267.926 372.905 267.29C373.277 266.642 373.805 266.144 374.489 265.796C375.173 265.436 375.965 265.256 376.865 265.256C377.753 265.256 378.533 265.43 379.205 265.778C379.889 266.126 380.417 266.6 380.789 267.2C381.161 267.8 381.347 268.478 381.347 269.234V269.378C381.347 269.438 381.323 269.492 381.275 269.54C381.239 269.576 381.191 269.594 381.131 269.594H379.493C379.433 269.594 379.379 269.576 379.331 269.54C379.295 269.492 379.277 269.438 379.277 269.378V269.288C379.277 268.64 379.055 268.106 378.611 267.686C378.179 267.266 377.597 267.056 376.865 267.056C376.133 267.056 375.545 267.278 375.101 267.722C374.657 268.154 374.435 268.73 374.435 269.45V273.95C374.435 274.67 374.669 275.252 375.137 275.696C375.605 276.128 376.211 276.344 376.955 276.344C377.675 276.344 378.239 276.158 378.647 275.786C379.067 275.402 379.277 274.88 379.277 274.22V273.104C379.277 273.044 379.247 273.014 379.187 273.014H376.973C376.913 273.014 376.859 272.996 376.811 272.96C376.775 272.912 376.757 272.858 376.757 272.798V271.466C376.757 271.406 376.775 271.358 376.811 271.322C376.859 271.274 376.913 271.25 376.973 271.25H381.131C381.191 271.25 381.239 271.274 381.275 271.322C381.323 271.358 381.347 271.406 381.347 271.466V273.77C381.347 275.15 380.939 276.224 380.123 276.992C379.319 277.76 378.233 278.144 376.865 278.144ZM387.778 268.694C388.162 268.694 388.498 268.772 388.786 268.928C388.882 268.976 388.918 269.066 388.894 269.198L388.588 270.818C388.576 270.962 388.492 271.004 388.336 270.944C388.156 270.884 387.946 270.854 387.706 270.854C387.55 270.854 387.43 270.86 387.346 270.872C386.842 270.896 386.422 271.076 386.086 271.412C385.75 271.736 385.582 272.162 385.582 272.69V277.784C385.582 277.844 385.558 277.898 385.51 277.946C385.474 277.982 385.426 278 385.366 278H383.71C383.65 278 383.596 277.982 383.548 277.946C383.512 277.898 383.494 277.844 383.494 277.784V269.018C383.494 268.958 383.512 268.91 383.548 268.874C383.596 268.826 383.65 268.802 383.71 268.802H385.366C385.426 268.802 385.474 268.826 385.51 268.874C385.558 268.91 385.582 268.958 385.582 269.018V269.828C385.582 269.876 385.588 269.906 385.6 269.918C385.624 269.918 385.648 269.9 385.672 269.864C386.176 269.084 386.878 268.694 387.778 268.694ZM393.992 278.144C393.044 278.144 392.228 277.904 391.544 277.424C390.872 276.944 390.398 276.278 390.122 275.426C389.918 274.778 389.816 274.094 389.816 273.374C389.816 272.606 389.912 271.922 390.104 271.322C390.38 270.482 390.86 269.828 391.544 269.36C392.228 268.892 393.05 268.658 394.01 268.658C394.922 268.658 395.708 268.892 396.368 269.36C397.04 269.828 397.514 270.476 397.79 271.304C398.006 271.88 398.114 272.564 398.114 273.356C398.114 274.112 398.012 274.796 397.808 275.408C397.532 276.26 397.058 276.932 396.386 277.424C395.714 277.904 394.916 278.144 393.992 278.144ZM393.992 276.344C394.436 276.344 394.814 276.218 395.126 275.966C395.45 275.714 395.684 275.36 395.828 274.904C395.948 274.508 396.008 274.004 396.008 273.392C396.008 272.744 395.948 272.24 395.828 271.88C395.696 271.424 395.468 271.076 395.144 270.836C394.82 270.584 394.424 270.458 393.956 270.458C393.512 270.458 393.128 270.584 392.804 270.836C392.48 271.076 392.246 271.424 392.102 271.88C391.982 272.3 391.922 272.804 391.922 273.392C391.922 273.98 391.982 274.484 392.102 274.904C392.234 275.36 392.462 275.714 392.786 275.966C393.122 276.218 393.524 276.344 393.992 276.344ZM401.809 278C401.677 278 401.593 277.94 401.557 277.82L398.983 269.036L398.965 268.964C398.965 268.844 399.031 268.784 399.163 268.784H400.873C401.005 268.784 401.089 268.844 401.125 268.964L402.619 274.976C402.631 275.012 402.649 275.03 402.673 275.03C402.697 275.03 402.715 275.012 402.727 274.976L404.293 268.964C404.329 268.844 404.413 268.784 404.545 268.784H406.039C406.171 268.784 406.255 268.844 406.291 268.964L407.893 274.976C407.905 275.012 407.923 275.03 407.947 275.03C407.971 275.03 407.989 275.012 408.001 274.976L409.603 268.964C409.639 268.844 409.723 268.784 409.855 268.784L411.547 268.82C411.619 268.82 411.667 268.844 411.691 268.892C411.727 268.928 411.739 268.982 411.727 269.054L409.135 277.82C409.099 277.94 409.021 278 408.901 278H407.173C407.041 278 406.957 277.94 406.921 277.82L405.337 272.33C405.325 272.294 405.307 272.276 405.283 272.276C405.259 272.276 405.241 272.294 405.229 272.33L403.771 277.82C403.735 277.94 403.651 278 403.519 278H401.809ZM418.202 270.278C418.202 270.338 418.178 270.392 418.13 270.44C418.094 270.476 418.046 270.494 417.986 270.494H416.15C416.09 270.494 416.06 270.524 416.06 270.584V274.922C416.06 275.378 416.156 275.708 416.348 275.912C416.552 276.116 416.87 276.218 417.302 276.218H417.842C417.902 276.218 417.95 276.242 417.986 276.29C418.034 276.326 418.058 276.374 418.058 276.434V277.784C418.058 277.916 417.986 277.994 417.842 278.018L416.906 278.036C415.958 278.036 415.25 277.874 414.782 277.55C414.314 277.226 414.074 276.614 414.062 275.714V270.584C414.062 270.524 414.032 270.494 413.972 270.494H412.946C412.886 270.494 412.832 270.476 412.784 270.44C412.748 270.392 412.73 270.338 412.73 270.278V269.018C412.73 268.958 412.748 268.91 412.784 268.874C412.832 268.826 412.886 268.802 412.946 268.802H413.972C414.032 268.802 414.062 268.772 414.062 268.712V266.606C414.062 266.546 414.08 266.498 414.116 266.462C414.164 266.414 414.218 266.39 414.278 266.39H415.844C415.904 266.39 415.952 266.414 415.988 266.462C416.036 266.498 416.06 266.546 416.06 266.606V268.712C416.06 268.772 416.09 268.802 416.15 268.802H417.986C418.046 268.802 418.094 268.826 418.13 268.874C418.178 268.91 418.202 268.958 418.202 269.018V270.278ZM424.466 268.658C425.438 268.658 426.212 268.946 426.788 269.522C427.376 270.098 427.67 270.884 427.67 271.88V277.784C427.67 277.844 427.646 277.898 427.598 277.946C427.562 277.982 427.514 278 427.454 278H425.798C425.738 278 425.684 277.982 425.636 277.946C425.6 277.898 425.582 277.844 425.582 277.784V272.312C425.582 271.76 425.426 271.316 425.114 270.98C424.802 270.632 424.388 270.458 423.872 270.458C423.356 270.458 422.936 270.626 422.612 270.962C422.3 271.298 422.144 271.742 422.144 272.294V277.784C422.144 277.844 422.12 277.898 422.072 277.946C422.036 277.982 421.988 278 421.928 278H420.272C420.212 278 420.158 277.982 420.11 277.946C420.074 277.898 420.056 277.844 420.056 277.784V265.616C420.056 265.556 420.074 265.508 420.11 265.472C420.158 265.424 420.212 265.4 420.272 265.4H421.928C421.988 265.4 422.036 265.424 422.072 265.472C422.12 265.508 422.144 265.556 422.144 265.616V269.594C422.144 269.63 422.156 269.654 422.18 269.666C422.204 269.678 422.222 269.666 422.234 269.63C422.726 268.982 423.47 268.658 424.466 268.658Z" fill="#464255"/>
<path d="M667 158.5C667 200.75 632.75 235 590.5 235C548.25 235 514 200.75 514 158.5C514 116.25 548.25 82 590.5 82C632.75 82 667 116.25 667 158.5ZM575.2 158.5C575.2 166.95 582.05 173.8 590.5 173.8C598.95 173.8 605.8 166.95 605.8 158.5C605.8 150.05 598.95 143.2 590.5 143.2C582.05 143.2 575.2 150.05 575.2 158.5Z" fill="#2D9CDB" fill-opacity="0.15"/>
<path d="M590.5 84C590.5 82.8954 591.396 81.9973 592.5 82.0261C604.391 82.337 616.055 85.4171 626.562 91.033C637.657 96.9634 647.118 105.539 654.107 115.999C661.097 126.459 665.399 138.482 666.632 151.002C667.865 163.522 665.991 176.152 661.177 187.775C656.362 199.398 648.756 209.654 639.031 217.635C629.306 225.616 617.763 231.076 605.424 233.53C593.086 235.984 580.332 235.358 568.293 231.706C556.893 228.248 546.467 222.178 537.839 213.989C537.038 213.229 537.04 211.961 537.821 211.179L578.267 170.733C579.048 169.952 580.308 169.964 581.184 170.637C582.64 171.755 584.291 172.605 586.059 173.141C588.466 173.872 591.017 173.997 593.485 173.506C595.953 173.015 598.261 171.923 600.206 170.327C602.151 168.731 603.673 166.68 604.635 164.355C605.598 162.03 605.973 159.504 605.726 157C605.48 154.496 604.619 152.092 603.222 150C601.824 147.908 599.931 146.193 597.712 145.007C596.083 144.136 594.315 143.57 592.494 143.331C591.399 143.187 590.5 142.305 590.5 141.2V84Z" fill="#2D9CDB"/>
<g filter="url(#filter3_d_142_10379)">
<circle cx="590.451" cy="158.451" r="41.1429" fill="white"/>
</g>
<path d="M582.106 159.095C582.466 159.775 582.646 160.602 582.646 161.575C582.646 162.389 582.513 163.102 582.246 163.715C581.926 164.489 581.42 165.089 580.726 165.515C580.046 165.929 579.226 166.135 578.266 166.135C577.266 166.135 576.413 165.909 575.706 165.455C575 164.989 574.493 164.342 574.186 163.515C573.973 162.955 573.866 162.302 573.866 161.555V155.455C573.866 154.735 574.046 154.102 574.406 153.555C574.766 153.009 575.266 152.589 575.906 152.295C576.56 151.989 577.306 151.835 578.146 151.835C578.96 151.835 579.68 151.982 580.306 152.275C580.946 152.569 581.44 152.982 581.786 153.515C582.146 154.049 582.326 154.662 582.326 155.355V155.795C582.326 155.862 582.3 155.922 582.246 155.975C582.206 156.015 582.153 156.035 582.086 156.035H580.246C580.18 156.035 580.12 156.015 580.066 155.975C580.026 155.922 580.006 155.862 580.006 155.795V155.655C580.006 155.122 579.826 154.689 579.466 154.355C579.12 154.009 578.673 153.835 578.126 153.835C577.566 153.835 577.1 154.015 576.726 154.375C576.366 154.722 576.186 155.175 576.186 155.735V157.915C576.186 157.955 576.2 157.982 576.226 157.995C576.253 158.009 576.28 158.002 576.306 157.975C576.866 157.429 577.64 157.155 578.626 157.155C579.413 157.155 580.1 157.322 580.686 157.655C581.286 157.989 581.76 158.469 582.106 159.095ZM580.026 163.035C580.226 162.635 580.326 162.162 580.326 161.615C580.326 161.015 580.213 160.502 579.986 160.075C579.613 159.435 579.033 159.115 578.246 159.115C577.42 159.115 576.833 159.449 576.486 160.115C576.286 160.515 576.186 161.035 576.186 161.675C576.186 162.222 576.273 162.669 576.446 163.015C576.766 163.749 577.366 164.115 578.246 164.115C579.086 164.115 579.68 163.755 580.026 163.035ZM587.532 163.875C587.505 163.902 587.492 163.929 587.492 163.955C587.505 163.982 587.532 163.995 587.572 163.995H593.272C593.339 163.995 593.392 164.022 593.432 164.075C593.485 164.115 593.512 164.169 593.512 164.235V165.755C593.512 165.822 593.485 165.882 593.432 165.935C593.392 165.975 593.339 165.995 593.272 165.995H584.672C584.605 165.995 584.545 165.975 584.492 165.935C584.452 165.882 584.432 165.822 584.432 165.755V164.315C584.432 164.195 584.472 164.095 584.552 164.015C585.565 162.935 586.739 161.609 588.072 160.035L589.012 158.935C590.239 157.509 590.852 156.429 590.852 155.695C590.852 155.149 590.659 154.702 590.272 154.355C589.885 154.009 589.385 153.835 588.772 153.835C588.159 153.835 587.659 154.009 587.272 154.355C586.899 154.702 586.712 155.162 586.712 155.735V156.255C586.712 156.322 586.685 156.382 586.632 156.435C586.592 156.475 586.539 156.495 586.472 156.495H584.612C584.545 156.495 584.485 156.475 584.432 156.435C584.392 156.382 584.372 156.322 584.372 156.255V155.395C584.399 154.675 584.605 154.049 584.992 153.515C585.379 152.982 585.899 152.569 586.552 152.275C587.219 151.982 587.959 151.835 588.772 151.835C589.665 151.835 590.445 152.002 591.112 152.335C591.779 152.669 592.292 153.129 592.652 153.715C593.012 154.289 593.192 154.935 593.192 155.655C593.192 156.749 592.612 158.009 591.452 159.435C590.812 160.235 589.759 161.435 588.292 163.035L587.532 163.875ZM598.988 157.915C598.428 157.915 597.908 157.782 597.428 157.515C596.961 157.235 596.588 156.862 596.308 156.395C596.041 155.929 595.908 155.415 595.908 154.855C595.908 154.309 596.041 153.802 596.308 153.335C596.588 152.869 596.961 152.502 597.428 152.235C597.908 151.955 598.428 151.815 598.988 151.815C599.534 151.815 600.041 151.955 600.508 152.235C600.988 152.502 601.361 152.869 601.628 153.335C601.908 153.802 602.048 154.309 602.048 154.855C602.048 155.415 601.908 155.929 601.628 156.395C601.361 156.862 600.994 157.235 600.528 157.515C600.061 157.782 599.548 157.915 598.988 157.915ZM598.328 165.995C598.234 165.995 598.174 165.969 598.148 165.915C598.121 165.862 598.128 165.795 598.168 165.715L605.708 152.155C605.774 152.049 605.874 151.995 606.008 151.995H607.168C607.261 151.995 607.321 152.022 607.348 152.075C607.374 152.129 607.368 152.195 607.328 152.275L599.808 165.835C599.741 165.942 599.641 165.995 599.508 165.995H598.328ZM598.988 156.515C599.441 156.515 599.821 156.355 600.128 156.035C600.448 155.715 600.608 155.322 600.608 154.855C600.608 154.402 600.448 154.015 600.128 153.695C599.821 153.375 599.441 153.215 598.988 153.215C598.521 153.215 598.128 153.375 597.808 153.695C597.488 154.015 597.328 154.402 597.328 154.855C597.328 155.322 597.488 155.715 597.808 156.035C598.128 156.355 598.521 156.515 598.988 156.515ZM606.688 166.175C606.128 166.175 605.608 166.042 605.128 165.775C604.661 165.495 604.288 165.122 604.008 164.655C603.741 164.189 603.608 163.675 603.608 163.115C603.608 162.569 603.741 162.062 604.008 161.595C604.288 161.129 604.661 160.762 605.128 160.495C605.608 160.215 606.128 160.075 606.688 160.075C607.234 160.075 607.741 160.215 608.208 160.495C608.688 160.762 609.061 161.129 609.328 161.595C609.608 162.062 609.748 162.569 609.748 163.115C609.748 163.675 609.608 164.189 609.328 164.655C609.061 165.122 608.694 165.495 608.228 165.775C607.761 166.042 607.248 166.175 606.688 166.175ZM606.688 164.775C607.141 164.775 607.528 164.615 607.848 164.295C608.168 163.975 608.328 163.582 608.328 163.115C608.328 162.662 608.168 162.275 607.848 161.955C607.528 161.635 607.141 161.475 606.688 161.475C606.221 161.475 605.828 161.635 605.508 161.955C605.188 162.275 605.028 162.662 605.028 163.115C605.028 163.582 605.188 163.975 605.508 164.295C605.828 164.615 606.221 164.775 606.688 164.775Z" fill="black"/>
<path d="M544.74 265.4C544.8 265.4 544.848 265.424 544.884 265.472C544.932 265.508 544.956 265.556 544.956 265.616V267.002C544.956 267.062 544.932 267.116 544.884 267.164C544.848 267.2 544.8 267.218 544.74 267.218H541.428C541.368 267.218 541.338 267.248 541.338 267.308V277.784C541.338 277.844 541.314 277.898 541.266 277.946C541.23 277.982 541.182 278 541.122 278H539.466C539.406 278 539.352 277.982 539.304 277.946C539.268 277.898 539.25 277.844 539.25 277.784V267.308C539.25 267.248 539.22 267.218 539.16 267.218H535.974C535.914 267.218 535.86 267.2 535.812 267.164C535.776 267.116 535.758 267.062 535.758 267.002V265.616C535.758 265.556 535.776 265.508 535.812 265.472C535.86 265.424 535.914 265.4 535.974 265.4H544.74ZM549.168 278.144C548.22 278.144 547.404 277.904 546.72 277.424C546.048 276.944 545.574 276.278 545.298 275.426C545.094 274.778 544.992 274.094 544.992 273.374C544.992 272.606 545.088 271.922 545.28 271.322C545.556 270.482 546.036 269.828 546.72 269.36C547.404 268.892 548.226 268.658 549.186 268.658C550.098 268.658 550.884 268.892 551.544 269.36C552.216 269.828 552.69 270.476 552.966 271.304C553.182 271.88 553.29 272.564 553.29 273.356C553.29 274.112 553.188 274.796 552.984 275.408C552.708 276.26 552.234 276.932 551.562 277.424C550.89 277.904 550.092 278.144 549.168 278.144ZM549.168 276.344C549.612 276.344 549.99 276.218 550.302 275.966C550.626 275.714 550.86 275.36 551.004 274.904C551.124 274.508 551.184 274.004 551.184 273.392C551.184 272.744 551.124 272.24 551.004 271.88C550.872 271.424 550.644 271.076 550.32 270.836C549.996 270.584 549.6 270.458 549.132 270.458C548.688 270.458 548.304 270.584 547.98 270.836C547.656 271.076 547.422 271.424 547.278 271.88C547.158 272.3 547.098 272.804 547.098 273.392C547.098 273.98 547.158 274.484 547.278 274.904C547.41 275.36 547.638 275.714 547.962 275.966C548.298 276.218 548.7 276.344 549.168 276.344ZM559.949 270.278C559.949 270.338 559.925 270.392 559.877 270.44C559.841 270.476 559.793 270.494 559.733 270.494H557.897C557.837 270.494 557.807 270.524 557.807 270.584V274.922C557.807 275.378 557.903 275.708 558.095 275.912C558.299 276.116 558.617 276.218 559.049 276.218H559.589C559.649 276.218 559.697 276.242 559.733 276.29C559.781 276.326 559.805 276.374 559.805 276.434V277.784C559.805 277.916 559.733 277.994 559.589 278.018L558.653 278.036C557.705 278.036 556.997 277.874 556.529 277.55C556.061 277.226 555.821 276.614 555.809 275.714V270.584C555.809 270.524 555.779 270.494 555.719 270.494H554.693C554.633 270.494 554.579 270.476 554.531 270.44C554.495 270.392 554.477 270.338 554.477 270.278V269.018C554.477 268.958 554.495 268.91 554.531 268.874C554.579 268.826 554.633 268.802 554.693 268.802H555.719C555.779 268.802 555.809 268.772 555.809 268.712V266.606C555.809 266.546 555.827 266.498 555.863 266.462C555.911 266.414 555.965 266.39 556.025 266.39H557.591C557.651 266.39 557.699 266.414 557.735 266.462C557.783 266.498 557.807 266.546 557.807 266.606V268.712C557.807 268.772 557.837 268.802 557.897 268.802H559.733C559.793 268.802 559.841 268.826 559.877 268.874C559.925 268.91 559.949 268.958 559.949 269.018V270.278ZM565.313 268.658C566.07 268.658 566.736 268.79 567.312 269.054C567.888 269.318 568.332 269.684 568.644 270.152C568.956 270.608 569.112 271.13 569.112 271.718V277.784C569.112 277.844 569.088 277.898 569.04 277.946C569.004 277.982 568.956 278 568.896 278H567.24C567.18 278 567.126 277.982 567.078 277.946C567.042 277.898 567.024 277.844 567.024 277.784V277.208C567.024 277.172 567.012 277.154 566.988 277.154C566.964 277.142 566.94 277.148 566.916 277.172C566.328 277.82 565.476 278.144 564.36 278.144C563.46 278.144 562.716 277.916 562.128 277.46C561.552 277.004 561.264 276.326 561.264 275.426C561.264 274.49 561.588 273.764 562.236 273.248C562.896 272.72 563.82 272.456 565.008 272.456H566.934C566.994 272.456 567.024 272.426 567.024 272.366V271.934C567.024 271.466 566.886 271.106 566.61 270.854C566.334 270.59 565.92 270.458 565.368 270.458C564.912 270.458 564.54 270.542 564.252 270.71C563.976 270.866 563.802 271.088 563.73 271.376C563.694 271.52 563.61 271.58 563.478 271.556L561.732 271.34C561.672 271.328 561.618 271.31 561.57 271.286C561.534 271.25 561.522 271.208 561.534 271.16C561.63 270.428 562.02 269.828 562.704 269.36C563.4 268.892 564.27 268.658 565.313 268.658ZM564.882 276.488C565.47 276.488 565.974 276.332 566.394 276.02C566.814 275.708 567.024 275.312 567.024 274.832V273.986C567.024 273.926 566.994 273.896 566.934 273.896H565.422C564.786 273.896 564.282 274.016 563.91 274.256C563.55 274.496 563.37 274.838 563.37 275.282C563.37 275.666 563.508 275.966 563.784 276.182C564.072 276.386 564.438 276.488 564.882 276.488ZM571.424 278C571.364 278 571.31 277.982 571.262 277.946C571.226 277.898 571.208 277.844 571.208 277.784V265.616C571.208 265.556 571.226 265.508 571.262 265.472C571.31 265.424 571.364 265.4 571.424 265.4H573.08C573.14 265.4 573.188 265.424 573.224 265.472C573.272 265.508 573.296 265.556 573.296 265.616V277.784C573.296 277.844 573.272 277.898 573.224 277.946C573.188 277.982 573.14 278 573.08 278H571.424ZM586.39 278C586.27 278 586.186 277.946 586.138 277.838L583.762 272.654C583.738 272.606 583.702 272.582 583.654 272.582H581.494C581.434 272.582 581.404 272.612 581.404 272.672V277.784C581.404 277.844 581.38 277.898 581.332 277.946C581.296 277.982 581.248 278 581.188 278H579.532C579.472 278 579.418 277.982 579.37 277.946C579.334 277.898 579.316 277.844 579.316 277.784V265.616C579.316 265.556 579.334 265.508 579.37 265.472C579.418 265.424 579.472 265.4 579.532 265.4H584.482C585.214 265.4 585.862 265.556 586.426 265.868C586.99 266.168 587.428 266.6 587.74 267.164C588.052 267.716 588.208 268.352 588.208 269.072C588.208 269.9 587.992 270.608 587.56 271.196C587.14 271.772 586.552 272.174 585.796 272.402C585.772 272.402 585.754 272.414 585.742 272.438C585.73 272.462 585.73 272.486 585.742 272.51L588.28 277.748C588.304 277.796 588.316 277.832 588.316 277.856C588.316 277.952 588.25 278 588.118 278H586.39ZM581.494 267.2C581.434 267.2 581.404 267.23 581.404 267.29V270.872C581.404 270.932 581.434 270.962 581.494 270.962H584.194C584.77 270.962 585.232 270.794 585.58 270.458C585.94 270.11 586.12 269.654 586.12 269.09C586.12 268.526 585.94 268.07 585.58 267.722C585.232 267.374 584.77 267.2 584.194 267.2H581.494ZM597.81 272.366C597.858 272.666 597.882 273.002 597.882 273.374L597.864 273.932C597.864 274.076 597.792 274.148 597.648 274.148H592.014C591.954 274.148 591.924 274.178 591.924 274.238C591.96 274.634 592.014 274.904 592.086 275.048C592.374 275.912 593.076 276.35 594.192 276.362C595.008 276.362 595.656 276.026 596.136 275.354C596.184 275.282 596.244 275.246 596.316 275.246C596.364 275.246 596.406 275.264 596.442 275.3L597.558 276.218C597.666 276.302 597.684 276.398 597.612 276.506C597.24 277.034 596.742 277.442 596.118 277.73C595.506 278.018 594.822 278.162 594.066 278.162C593.13 278.162 592.332 277.952 591.672 277.532C591.024 277.112 590.55 276.524 590.25 275.768C589.974 275.12 589.836 274.22 589.836 273.068C589.836 272.372 589.908 271.808 590.052 271.376C590.292 270.536 590.742 269.876 591.402 269.396C592.074 268.904 592.878 268.658 593.814 268.658C596.178 268.658 597.51 269.894 597.81 272.366ZM593.814 270.458C593.37 270.458 592.998 270.572 592.698 270.8C592.41 271.016 592.206 271.322 592.086 271.718C592.014 271.922 591.966 272.186 591.942 272.51C591.918 272.57 591.942 272.6 592.014 272.6H595.668C595.728 272.6 595.758 272.57 595.758 272.51C595.734 272.21 595.698 271.982 595.65 271.826C595.542 271.394 595.326 271.058 595.002 270.818C594.69 270.578 594.294 270.458 593.814 270.458ZM601.87 278C601.75 278 601.672 277.94 601.636 277.82L598.738 269.036C598.726 269.012 598.72 268.982 598.72 268.946C598.72 268.838 598.786 268.784 598.918 268.784H600.754C600.886 268.784 600.97 268.844 601.006 268.964L602.752 274.976C602.764 275.012 602.782 275.03 602.806 275.03C602.83 275.03 602.848 275.012 602.86 274.976L604.606 268.964C604.642 268.844 604.726 268.784 604.858 268.784L606.694 268.82C606.766 268.82 606.82 268.844 606.856 268.892C606.892 268.928 606.898 268.988 606.874 269.072L603.994 277.82C603.958 277.94 603.88 278 603.76 278H601.87ZM615.722 272.366C615.77 272.666 615.794 273.002 615.794 273.374L615.776 273.932C615.776 274.076 615.704 274.148 615.56 274.148H609.926C609.866 274.148 609.836 274.178 609.836 274.238C609.872 274.634 609.926 274.904 609.998 275.048C610.286 275.912 610.988 276.35 612.104 276.362C612.92 276.362 613.568 276.026 614.048 275.354C614.096 275.282 614.156 275.246 614.228 275.246C614.276 275.246 614.318 275.264 614.354 275.3L615.47 276.218C615.578 276.302 615.596 276.398 615.524 276.506C615.152 277.034 614.654 277.442 614.03 277.73C613.418 278.018 612.734 278.162 611.978 278.162C611.042 278.162 610.244 277.952 609.584 277.532C608.936 277.112 608.462 276.524 608.162 275.768C607.886 275.12 607.748 274.22 607.748 273.068C607.748 272.372 607.82 271.808 607.964 271.376C608.204 270.536 608.654 269.876 609.314 269.396C609.986 268.904 610.79 268.658 611.726 268.658C614.09 268.658 615.422 269.894 615.722 272.366ZM611.726 270.458C611.282 270.458 610.91 270.572 610.61 270.8C610.322 271.016 610.118 271.322 609.998 271.718C609.926 271.922 609.878 272.186 609.854 272.51C609.83 272.57 609.854 272.6 609.926 272.6H613.58C613.64 272.6 613.67 272.57 613.67 272.51C613.646 272.21 613.61 271.982 613.562 271.826C613.454 271.394 613.238 271.058 612.914 270.818C612.602 270.578 612.206 270.458 611.726 270.458ZM622.112 268.658C623.084 268.658 623.858 268.946 624.434 269.522C625.022 270.098 625.316 270.884 625.316 271.88V277.784C625.316 277.844 625.292 277.898 625.244 277.946C625.208 277.982 625.16 278 625.1 278H623.444C623.384 278 623.33 277.982 623.282 277.946C623.246 277.898 623.228 277.844 623.228 277.784V272.312C623.228 271.76 623.072 271.316 622.76 270.98C622.448 270.632 622.034 270.458 621.518 270.458C621.002 270.458 620.582 270.626 620.258 270.962C619.946 271.298 619.79 271.742 619.79 272.294V277.784C619.79 277.844 619.766 277.898 619.718 277.946C619.682 277.982 619.634 278 619.574 278H617.918C617.858 278 617.804 277.982 617.756 277.946C617.72 277.898 617.702 277.844 617.702 277.784V269.018C617.702 268.958 617.72 268.91 617.756 268.874C617.804 268.826 617.858 268.802 617.918 268.802H619.574C619.634 268.802 619.682 268.826 619.718 268.874C619.766 268.91 619.79 268.958 619.79 269.018V269.594C619.79 269.63 619.802 269.654 619.826 269.666C619.85 269.678 619.868 269.666 619.88 269.63C620.372 268.982 621.116 268.658 622.112 268.658ZM632.929 269.018C632.929 268.958 632.947 268.91 632.983 268.874C633.031 268.826 633.085 268.802 633.145 268.802H634.783C634.843 268.802 634.891 268.826 634.927 268.874C634.975 268.91 634.999 268.958 634.999 269.018V277.784C634.999 277.844 634.975 277.898 634.927 277.946C634.891 277.982 634.843 278 634.783 278H633.145C633.085 278 633.031 277.982 632.983 277.946C632.947 277.898 632.929 277.844 632.929 277.784V277.208C632.929 277.172 632.917 277.148 632.893 277.136C632.869 277.124 632.845 277.136 632.821 277.172C632.329 277.808 631.591 278.126 630.607 278.126C629.695 278.126 628.927 277.862 628.303 277.334C627.691 276.806 627.385 276.056 627.385 275.084V269.018C627.385 268.958 627.403 268.91 627.439 268.874C627.487 268.826 627.541 268.802 627.601 268.802H629.257C629.317 268.802 629.365 268.826 629.401 268.874C629.449 268.91 629.473 268.958 629.473 269.018V274.49C629.473 275.054 629.617 275.504 629.905 275.84C630.205 276.176 630.619 276.344 631.147 276.344C631.687 276.344 632.119 276.176 632.443 275.84C632.767 275.504 632.929 275.054 632.929 274.49V269.018ZM644.989 272.366C645.037 272.666 645.061 273.002 645.061 273.374L645.043 273.932C645.043 274.076 644.971 274.148 644.827 274.148H639.193C639.133 274.148 639.103 274.178 639.103 274.238C639.139 274.634 639.193 274.904 639.265 275.048C639.553 275.912 640.255 276.35 641.371 276.362C642.187 276.362 642.835 276.026 643.315 275.354C643.363 275.282 643.423 275.246 643.495 275.246C643.543 275.246 643.585 275.264 643.621 275.3L644.737 276.218C644.845 276.302 644.863 276.398 644.791 276.506C644.419 277.034 643.921 277.442 643.297 277.73C642.685 278.018 642.001 278.162 641.245 278.162C640.309 278.162 639.511 277.952 638.851 277.532C638.203 277.112 637.729 276.524 637.429 275.768C637.153 275.12 637.015 274.22 637.015 273.068C637.015 272.372 637.087 271.808 637.231 271.376C637.471 270.536 637.921 269.876 638.581 269.396C639.253 268.904 640.057 268.658 640.993 268.658C643.357 268.658 644.689 269.894 644.989 272.366ZM640.993 270.458C640.549 270.458 640.177 270.572 639.877 270.8C639.589 271.016 639.385 271.322 639.265 271.718C639.193 271.922 639.145 272.186 639.121 272.51C639.097 272.57 639.121 272.6 639.193 272.6H642.847C642.907 272.6 642.937 272.57 642.937 272.51C642.913 272.21 642.877 271.982 642.829 271.826C642.721 271.394 642.505 271.058 642.181 270.818C641.869 270.578 641.473 270.458 640.993 270.458Z" fill="#464255"/>
<path d="M42.4 32.176C43.456 32.176 44.384 32.392 45.184 32.824C45.984 33.256 46.6 33.872 47.032 34.672C47.48 35.456 47.704 36.36 47.704 37.384C47.704 38.392 47.472 39.28 47.008 40.048C46.56 40.816 45.92 41.416 45.088 41.848C44.272 42.264 43.328 42.472 42.256 42.472H38.848C38.768 42.472 38.728 42.512 38.728 42.592V48.712C38.728 48.792 38.696 48.864 38.632 48.928C38.584 48.976 38.52 49 38.44 49H35.632C35.552 49 35.48 48.976 35.416 48.928C35.368 48.864 35.344 48.792 35.344 48.712V32.464C35.344 32.384 35.368 32.32 35.416 32.272C35.48 32.208 35.552 32.176 35.632 32.176H42.4ZM41.896 39.76C42.632 39.76 43.224 39.552 43.672 39.136C44.12 38.704 44.344 38.144 44.344 37.456C44.344 36.752 44.12 36.184 43.672 35.752C43.224 35.32 42.632 35.104 41.896 35.104H38.848C38.768 35.104 38.728 35.144 38.728 35.224V39.64C38.728 39.72 38.768 39.76 38.848 39.76H41.896ZM51.3923 35.272C50.8483 35.272 50.3923 35.096 50.0243 34.744C49.6723 34.376 49.4963 33.92 49.4963 33.376C49.4963 32.816 49.6723 32.36 50.0243 32.008C50.3763 31.656 50.8323 31.48 51.3923 31.48C51.9523 31.48 52.4083 31.656 52.7603 32.008C53.1123 32.36 53.2883 32.816 53.2883 33.376C53.2883 33.92 53.1043 34.376 52.7363 34.744C52.3843 35.096 51.9363 35.272 51.3923 35.272ZM49.9523 49C49.8723 49 49.8003 48.976 49.7363 48.928C49.6883 48.864 49.6643 48.792 49.6643 48.712V36.928C49.6643 36.848 49.6883 36.784 49.7363 36.736C49.8003 36.672 49.8723 36.64 49.9523 36.64H52.7603C52.8403 36.64 52.9043 36.672 52.9523 36.736C53.0163 36.784 53.0483 36.848 53.0483 36.928V48.712C53.0483 48.792 53.0163 48.864 52.9523 48.928C52.9043 48.976 52.8403 49 52.7603 49H49.9523ZM66.6055 41.56C66.7015 42.168 66.7335 42.848 66.7015 43.6C66.6855 43.792 66.5815 43.888 66.3895 43.888H58.9735C58.8775 43.888 58.8455 43.928 58.8775 44.008C58.9255 44.328 59.0135 44.648 59.1415 44.968C59.5575 45.864 60.4055 46.312 61.6855 46.312C62.7095 46.296 63.5175 45.88 64.1095 45.064C64.1735 44.968 64.2455 44.92 64.3255 44.92C64.3735 44.92 64.4295 44.952 64.4935 45.016L66.2215 46.72C66.3015 46.8 66.3415 46.872 66.3415 46.936C66.3415 46.968 66.3095 47.032 66.2455 47.128C65.7175 47.784 65.0375 48.296 64.2055 48.664C63.3735 49.016 62.4615 49.192 61.4695 49.192C60.0935 49.192 58.9255 48.88 57.9655 48.256C57.0215 47.632 56.3415 46.76 55.9255 45.64C55.5895 44.84 55.4215 43.792 55.4215 42.496C55.4215 41.616 55.5415 40.84 55.7815 40.168C56.1495 39.032 56.7895 38.128 57.7015 37.456C58.6295 36.784 59.7255 36.448 60.9895 36.448C62.5895 36.448 63.8695 36.912 64.8295 37.84C65.8055 38.768 66.3975 40.008 66.6055 41.56ZM61.0135 39.376C60.0055 39.376 59.3415 39.848 59.0215 40.792C58.9575 41 58.9015 41.256 58.8535 41.56C58.8535 41.64 58.8935 41.68 58.9735 41.68H63.1255C63.2215 41.68 63.2535 41.64 63.2215 41.56C63.1415 41.096 63.1015 40.872 63.1015 40.888C62.9575 40.408 62.7015 40.04 62.3335 39.784C61.9815 39.512 61.5415 39.376 61.0135 39.376ZM79.7118 49.192C78.4638 49.192 77.3678 48.952 76.4238 48.472C75.4798 47.976 74.7518 47.288 74.2398 46.408C73.7278 45.528 73.4718 44.512 73.4718 43.36V37.816C73.4718 36.664 73.7278 35.648 74.2398 34.768C74.7518 33.888 75.4798 33.208 76.4238 32.728C77.3678 32.248 78.4638 32.008 79.7118 32.008C80.9438 32.008 82.0238 32.24 82.9518 32.704C83.8958 33.152 84.6238 33.8 85.1358 34.648C85.6638 35.48 85.9278 36.448 85.9278 37.552C85.9278 37.696 85.8318 37.784 85.6398 37.816L82.8318 37.984H82.7838C82.6238 37.984 82.5438 37.896 82.5438 37.72C82.5438 36.872 82.2798 36.192 81.7518 35.68C81.2398 35.168 80.5598 34.912 79.7118 34.912C78.8478 34.912 78.1518 35.168 77.6238 35.68C77.1118 36.192 76.8558 36.872 76.8558 37.72V43.504C76.8558 44.336 77.1118 45.008 77.6238 45.52C78.1518 46.032 78.8478 46.288 79.7118 46.288C80.5598 46.288 81.2398 46.032 81.7518 45.52C82.2798 45.008 82.5438 44.336 82.5438 43.504C82.5438 43.328 82.6398 43.24 82.8318 43.24L85.6398 43.36C85.7198 43.36 85.7838 43.384 85.8318 43.432C85.8958 43.48 85.9278 43.536 85.9278 43.6C85.9278 44.704 85.6638 45.68 85.1358 46.528C84.6238 47.376 83.8958 48.032 82.9518 48.496C82.0238 48.96 80.9438 49.192 79.7118 49.192ZM94.6253 36.472C95.9053 36.472 96.9373 36.864 97.7213 37.648C98.5053 38.432 98.8973 39.496 98.8973 40.84V48.712C98.8973 48.792 98.8653 48.864 98.8013 48.928C98.7533 48.976 98.6893 49 98.6093 49H95.8013C95.7213 49 95.6493 48.976 95.5853 48.928C95.5373 48.864 95.5133 48.792 95.5133 48.712V41.536C95.5133 40.896 95.3293 40.376 94.9613 39.976C94.6093 39.576 94.1373 39.376 93.5453 39.376C92.9533 39.376 92.4733 39.576 92.1053 39.976C91.7533 40.376 91.5773 40.896 91.5773 41.536V48.712C91.5773 48.792 91.5453 48.864 91.4813 48.928C91.4333 48.976 91.3693 49 91.2893 49H88.4813C88.4013 49 88.3293 48.976 88.2653 48.928C88.2173 48.864 88.1933 48.792 88.1933 48.712V32.488C88.1933 32.408 88.2173 32.344 88.2653 32.296C88.3293 32.232 88.4013 32.2 88.4813 32.2H91.2893C91.3693 32.2 91.4333 32.232 91.4813 32.296C91.5453 32.344 91.5773 32.408 91.5773 32.488V37.792C91.5773 37.84 91.5933 37.872 91.6253 37.888C91.6573 37.904 91.6813 37.896 91.6973 37.864C92.3533 36.936 93.3293 36.472 94.6253 36.472ZM106.238 36.472C107.278 36.472 108.206 36.656 109.022 37.024C109.838 37.376 110.47 37.864 110.918 38.488C111.382 39.112 111.614 39.808 111.614 40.576V48.712C111.614 48.792 111.582 48.864 111.518 48.928C111.47 48.976 111.406 49 111.326 49H108.518C108.438 49 108.366 48.976 108.302 48.928C108.254 48.864 108.23 48.792 108.23 48.712V47.92C108.23 47.872 108.214 47.84 108.182 47.824C108.15 47.808 108.118 47.824 108.086 47.872C107.414 48.752 106.334 49.192 104.846 49.192C103.598 49.192 102.59 48.888 101.822 48.28C101.054 47.672 100.67 46.776 100.67 45.592C100.67 44.36 101.102 43.408 101.966 42.736C102.83 42.048 104.062 41.704 105.662 41.704H108.11C108.19 41.704 108.23 41.664 108.23 41.584V41.056C108.23 40.528 108.07 40.12 107.75 39.832C107.43 39.528 106.95 39.376 106.31 39.376C105.814 39.376 105.398 39.464 105.062 39.64C104.742 39.816 104.534 40.064 104.438 40.384C104.39 40.56 104.286 40.64 104.126 40.624L101.222 40.24C101.03 40.208 100.942 40.136 100.958 40.024C101.022 39.352 101.286 38.744 101.75 38.2C102.23 37.656 102.854 37.232 103.622 36.928C104.406 36.624 105.278 36.472 106.238 36.472ZM105.758 46.672C106.446 46.672 107.03 46.488 107.51 46.12C107.99 45.752 108.23 45.28 108.23 44.704V43.84C108.23 43.76 108.19 43.72 108.11 43.72H106.382C105.662 43.72 105.094 43.856 104.678 44.128C104.278 44.4 104.078 44.784 104.078 45.28C104.078 45.712 104.23 46.056 104.534 46.312C104.838 46.552 105.246 46.672 105.758 46.672ZM120.142 36.496C120.718 36.496 121.174 36.608 121.51 36.832C121.638 36.896 121.686 37.016 121.654 37.192L121.15 39.928C121.134 40.12 121.022 40.176 120.814 40.096C120.574 40.016 120.294 39.976 119.974 39.976C119.846 39.976 119.67 39.992 119.446 40.024C118.87 40.072 118.382 40.288 117.982 40.672C117.582 41.04 117.382 41.536 117.382 42.16V48.712C117.382 48.792 117.35 48.864 117.286 48.928C117.238 48.976 117.174 49 117.094 49H114.286C114.206 49 114.134 48.976 114.07 48.928C114.022 48.864 113.998 48.792 113.998 48.712V36.952C113.998 36.872 114.022 36.808 114.07 36.76C114.134 36.696 114.206 36.664 114.286 36.664H117.094C117.174 36.664 117.238 36.696 117.286 36.76C117.35 36.808 117.382 36.872 117.382 36.952V37.864C117.382 37.912 117.398 37.944 117.43 37.96C117.462 37.976 117.486 37.968 117.502 37.936C118.158 36.976 119.038 36.496 120.142 36.496ZM130.406 39.088C130.406 39.168 130.374 39.24 130.31 39.304C130.262 39.352 130.198 39.376 130.118 39.376H127.814C127.734 39.376 127.694 39.416 127.694 39.496V44.584C127.694 45.112 127.798 45.504 128.006 45.76C128.23 46.016 128.582 46.144 129.062 46.144H129.854C129.934 46.144 129.998 46.176 130.046 46.24C130.11 46.288 130.142 46.352 130.142 46.432V48.712C130.142 48.888 130.046 48.992 129.854 49.024C129.182 49.056 128.702 49.072 128.414 49.072C127.086 49.072 126.094 48.856 125.438 48.424C124.782 47.976 124.446 47.144 124.43 45.928V39.496C124.43 39.416 124.39 39.376 124.31 39.376H122.942C122.862 39.376 122.79 39.352 122.726 39.304C122.678 39.24 122.654 39.168 122.654 39.088V36.952C122.654 36.872 122.678 36.808 122.726 36.76C122.79 36.696 122.862 36.664 122.942 36.664H124.31C124.39 36.664 124.43 36.624 124.43 36.544V33.688C124.43 33.608 124.454 33.544 124.502 33.496C124.566 33.432 124.638 33.4 124.718 33.4H127.406C127.486 33.4 127.55 33.432 127.598 33.496C127.662 33.544 127.694 33.608 127.694 33.688V36.544C127.694 36.624 127.734 36.664 127.814 36.664H130.118C130.198 36.664 130.262 36.696 130.31 36.76C130.374 36.808 130.406 36.872 130.406 36.952V39.088Z" fill="#464255"/>
<path d="M513 39H499C498.204 39 497.441 39.3161 496.879 39.8787C496.316 40.4413 496 41.2044 496 42V56C496 56.7956 496.316 57.5587 496.879 58.1213C497.441 58.6839 498.204 59 499 59H513C513.796 59 514.559 58.6839 515.121 58.1213C515.684 57.5587 516 56.7956 516 56V42C516 41.2044 515.684 40.4413 515.121 39.8787C514.559 39.3161 513.796 39 513 39ZM514 56C514 56.2652 513.895 56.5196 513.707 56.7071C513.519 56.8946 513.265 57 513 57H499C498.735 57 498.48 56.8946 498.293 56.7071C498.105 56.5196 498 56.2652 498 56V42C498 41.7348 498.105 41.4804 498.293 41.2929C498.48 41.1054 498.735 41 499 41H513C513.265 41 513.519 41.1054 513.707 41.2929C513.895 41.4804 514 41.7348 514 42V56Z" fill="#FF5B5B"/>
<path d="M509.5 44H502.5C502.102 44 501.721 44.158 501.439 44.4393C501.158 44.7206 501 45.1022 501 45.5V52.5C501 52.8978 501.158 53.2794 501.439 53.5607C501.721 53.842 502.102 54 502.5 54H509.5C509.898 54 510.279 53.842 510.561 53.5607C510.842 53.2794 511 52.8978 511 52.5V45.5C511 45.1022 510.842 44.7206 510.561 44.4393C510.279 44.158 509.898 44 509.5 44Z" fill="#FF5B5B"/>
<path d="M535.382 55.144C534.446 55.144 533.63 54.994 532.934 54.694C532.238 54.394 531.698 53.974 531.314 53.434C530.942 52.894 530.756 52.258 530.756 51.526V51.076C530.756 51.016 530.774 50.968 530.81 50.932C530.858 50.884 530.912 50.86 530.972 50.86H532.574C532.634 50.86 532.682 50.884 532.718 50.932C532.766 50.968 532.79 51.016 532.79 51.076V51.418C532.79 51.97 533.036 52.432 533.528 52.804C534.02 53.164 534.692 53.344 535.544 53.344C536.276 53.344 536.828 53.188 537.2 52.876C537.572 52.564 537.758 52.162 537.758 51.67C537.758 51.334 537.656 51.052 537.452 50.824C537.248 50.584 536.954 50.368 536.57 50.176C536.198 49.984 535.634 49.744 534.878 49.456C534.026 49.144 533.336 48.85 532.808 48.574C532.28 48.298 531.836 47.926 531.476 47.458C531.128 46.978 530.954 46.384 530.954 45.676C530.954 44.62 531.338 43.786 532.106 43.174C532.874 42.562 533.9 42.256 535.184 42.256C536.084 42.256 536.876 42.412 537.56 42.724C538.256 43.036 538.796 43.474 539.18 44.038C539.564 44.59 539.756 45.232 539.756 45.964V46.27C539.756 46.33 539.732 46.384 539.684 46.432C539.648 46.468 539.6 46.486 539.54 46.486H537.92C537.86 46.486 537.806 46.468 537.758 46.432C537.722 46.384 537.704 46.33 537.704 46.27V46.072C537.704 45.508 537.47 45.034 537.002 44.65C536.546 44.254 535.91 44.056 535.094 44.056C534.434 44.056 533.918 44.194 533.546 44.47C533.186 44.746 533.006 45.136 533.006 45.64C533.006 46 533.102 46.294 533.294 46.522C533.486 46.75 533.774 46.96 534.158 47.152C534.542 47.332 535.136 47.566 535.94 47.854C536.792 48.178 537.47 48.472 537.974 48.736C538.49 49 538.928 49.372 539.288 49.852C539.66 50.32 539.846 50.908 539.846 51.616C539.846 52.696 539.444 53.554 538.64 54.19C537.848 54.826 536.762 55.144 535.382 55.144ZM546.161 45.658C547.133 45.658 547.907 45.946 548.483 46.522C549.071 47.098 549.365 47.884 549.365 48.88V54.784C549.365 54.844 549.341 54.898 549.293 54.946C549.257 54.982 549.209 55 549.149 55H547.493C547.433 55 547.379 54.982 547.331 54.946C547.295 54.898 547.277 54.844 547.277 54.784V49.312C547.277 48.76 547.121 48.316 546.809 47.98C546.497 47.632 546.083 47.458 545.567 47.458C545.051 47.458 544.631 47.626 544.307 47.962C543.995 48.298 543.839 48.742 543.839 49.294V54.784C543.839 54.844 543.815 54.898 543.767 54.946C543.731 54.982 543.683 55 543.623 55H541.967C541.907 55 541.853 54.982 541.805 54.946C541.769 54.898 541.751 54.844 541.751 54.784V42.616C541.751 42.556 541.769 42.508 541.805 42.472C541.853 42.424 541.907 42.4 541.967 42.4H543.623C543.683 42.4 543.731 42.424 543.767 42.472C543.815 42.508 543.839 42.556 543.839 42.616V46.594C543.839 46.63 543.851 46.654 543.875 46.666C543.899 46.678 543.917 46.666 543.929 46.63C544.421 45.982 545.165 45.658 546.161 45.658ZM555.377 55.144C554.429 55.144 553.613 54.904 552.929 54.424C552.257 53.944 551.783 53.278 551.507 52.426C551.303 51.778 551.201 51.094 551.201 50.374C551.201 49.606 551.297 48.922 551.489 48.322C551.765 47.482 552.245 46.828 552.929 46.36C553.613 45.892 554.435 45.658 555.395 45.658C556.307 45.658 557.093 45.892 557.753 46.36C558.425 46.828 558.899 47.476 559.175 48.304C559.391 48.88 559.499 49.564 559.499 50.356C559.499 51.112 559.397 51.796 559.193 52.408C558.917 53.26 558.443 53.932 557.771 54.424C557.099 54.904 556.301 55.144 555.377 55.144ZM555.377 53.344C555.821 53.344 556.199 53.218 556.511 52.966C556.835 52.714 557.069 52.36 557.213 51.904C557.333 51.508 557.393 51.004 557.393 50.392C557.393 49.744 557.333 49.24 557.213 48.88C557.081 48.424 556.853 48.076 556.529 47.836C556.205 47.584 555.809 47.458 555.341 47.458C554.897 47.458 554.513 47.584 554.189 47.836C553.865 48.076 553.631 48.424 553.487 48.88C553.367 49.3 553.307 49.804 553.307 50.392C553.307 50.98 553.367 51.484 553.487 51.904C553.619 52.36 553.847 52.714 554.171 52.966C554.507 53.218 554.909 53.344 555.377 53.344ZM563.194 55C563.062 55 562.978 54.94 562.942 54.82L560.368 46.036L560.35 45.964C560.35 45.844 560.416 45.784 560.548 45.784H562.258C562.39 45.784 562.474 45.844 562.51 45.964L564.004 51.976C564.016 52.012 564.034 52.03 564.058 52.03C564.082 52.03 564.1 52.012 564.112 51.976L565.678 45.964C565.714 45.844 565.798 45.784 565.93 45.784H567.424C567.556 45.784 567.64 45.844 567.676 45.964L569.278 51.976C569.29 52.012 569.308 52.03 569.332 52.03C569.356 52.03 569.374 52.012 569.386 51.976L570.988 45.964C571.024 45.844 571.108 45.784 571.24 45.784L572.932 45.82C573.004 45.82 573.052 45.844 573.076 45.892C573.112 45.928 573.124 45.982 573.112 46.054L570.52 54.82C570.484 54.94 570.406 55 570.286 55H568.558C568.426 55 568.342 54.94 568.306 54.82L566.722 49.33C566.71 49.294 566.692 49.276 566.668 49.276C566.644 49.276 566.626 49.294 566.614 49.33L565.156 54.82C565.12 54.94 565.036 55 564.904 55H563.194ZM581.769 55C581.649 55 581.571 54.94 581.535 54.82L577.755 42.652L577.737 42.58C577.737 42.46 577.803 42.4 577.935 42.4H579.717C579.849 42.4 579.933 42.46 579.969 42.58L582.669 51.976C582.681 52.012 582.699 52.03 582.723 52.03C582.747 52.03 582.765 52.012 582.777 51.976L585.459 42.58C585.495 42.46 585.579 42.4 585.711 42.4H587.457C587.529 42.4 587.583 42.424 587.619 42.472C587.655 42.52 587.661 42.58 587.637 42.652L583.803 54.82C583.767 54.94 583.689 55 583.569 55H581.769ZM591.808 45.658C592.564 45.658 593.23 45.79 593.806 46.054C594.382 46.318 594.826 46.684 595.138 47.152C595.45 47.608 595.606 48.13 595.606 48.718V54.784C595.606 54.844 595.582 54.898 595.534 54.946C595.498 54.982 595.45 55 595.39 55H593.734C593.674 55 593.62 54.982 593.572 54.946C593.536 54.898 593.518 54.844 593.518 54.784V54.208C593.518 54.172 593.506 54.154 593.482 54.154C593.458 54.142 593.434 54.148 593.41 54.172C592.822 54.82 591.97 55.144 590.854 55.144C589.954 55.144 589.21 54.916 588.622 54.46C588.046 54.004 587.758 53.326 587.758 52.426C587.758 51.49 588.082 50.764 588.73 50.248C589.39 49.72 590.314 49.456 591.502 49.456H593.428C593.488 49.456 593.518 49.426 593.518 49.366V48.934C593.518 48.466 593.38 48.106 593.104 47.854C592.828 47.59 592.414 47.458 591.862 47.458C591.406 47.458 591.034 47.542 590.746 47.71C590.47 47.866 590.296 48.088 590.224 48.376C590.188 48.52 590.104 48.58 589.972 48.556L588.226 48.34C588.166 48.328 588.112 48.31 588.064 48.286C588.028 48.25 588.016 48.208 588.028 48.16C588.124 47.428 588.514 46.828 589.198 46.36C589.894 45.892 590.764 45.658 591.808 45.658ZM591.376 53.488C591.964 53.488 592.468 53.332 592.888 53.02C593.308 52.708 593.518 52.312 593.518 51.832V50.986C593.518 50.926 593.488 50.896 593.428 50.896H591.916C591.28 50.896 590.776 51.016 590.404 51.256C590.044 51.496 589.864 51.838 589.864 52.282C589.864 52.666 590.002 52.966 590.278 53.182C590.566 53.386 590.932 53.488 591.376 53.488ZM597.918 55C597.858 55 597.804 54.982 597.756 54.946C597.72 54.898 597.702 54.844 597.702 54.784V42.616C597.702 42.556 597.72 42.508 597.756 42.472C597.804 42.424 597.858 42.4 597.918 42.4H599.574C599.634 42.4 599.682 42.424 599.718 42.472C599.766 42.508 599.79 42.556 599.79 42.616V54.784C599.79 54.844 599.766 54.898 599.718 54.946C599.682 54.982 599.634 55 599.574 55H597.918ZM607.445 46.018C607.445 45.958 607.463 45.91 607.499 45.874C607.547 45.826 607.601 45.802 607.661 45.802H609.299C609.359 45.802 609.407 45.826 609.443 45.874C609.491 45.91 609.515 45.958 609.515 46.018V54.784C609.515 54.844 609.491 54.898 609.443 54.946C609.407 54.982 609.359 55 609.299 55H607.661C607.601 55 607.547 54.982 607.499 54.946C607.463 54.898 607.445 54.844 607.445 54.784V54.208C607.445 54.172 607.433 54.148 607.409 54.136C607.385 54.124 607.361 54.136 607.337 54.172C606.845 54.808 606.107 55.126 605.123 55.126C604.211 55.126 603.443 54.862 602.819 54.334C602.207 53.806 601.901 53.056 601.901 52.084V46.018C601.901 45.958 601.919 45.91 601.955 45.874C602.003 45.826 602.057 45.802 602.117 45.802H603.773C603.833 45.802 603.881 45.826 603.917 45.874C603.965 45.91 603.989 45.958 603.989 46.018V51.49C603.989 52.054 604.133 52.504 604.421 52.84C604.721 53.176 605.135 53.344 605.663 53.344C606.203 53.344 606.635 53.176 606.959 52.84C607.283 52.504 607.445 52.054 607.445 51.49V46.018ZM619.505 49.366C619.553 49.666 619.577 50.002 619.577 50.374L619.559 50.932C619.559 51.076 619.487 51.148 619.343 51.148H613.709C613.649 51.148 613.619 51.178 613.619 51.238C613.655 51.634 613.709 51.904 613.781 52.048C614.069 52.912 614.771 53.35 615.887 53.362C616.703 53.362 617.351 53.026 617.831 52.354C617.879 52.282 617.939 52.246 618.011 52.246C618.059 52.246 618.101 52.264 618.137 52.3L619.253 53.218C619.361 53.302 619.379 53.398 619.307 53.506C618.935 54.034 618.437 54.442 617.813 54.73C617.201 55.018 616.517 55.162 615.761 55.162C614.825 55.162 614.027 54.952 613.367 54.532C612.719 54.112 612.245 53.524 611.945 52.768C611.669 52.12 611.531 51.22 611.531 50.068C611.531 49.372 611.603 48.808 611.747 48.376C611.987 47.536 612.437 46.876 613.097 46.396C613.769 45.904 614.573 45.658 615.509 45.658C617.873 45.658 619.205 46.894 619.505 49.366ZM615.509 47.458C615.065 47.458 614.693 47.572 614.393 47.8C614.105 48.016 613.901 48.322 613.781 48.718C613.709 48.922 613.661 49.186 613.637 49.51C613.613 49.57 613.637 49.6 613.709 49.6H617.363C617.423 49.6 617.453 49.57 617.453 49.51C617.429 49.21 617.393 48.982 617.345 48.826C617.237 48.394 617.021 48.058 616.697 47.818C616.385 47.578 615.989 47.458 615.509 47.458Z" fill="#464255"/>
<path d="M408 39H394C393.204 39 392.441 39.3161 391.879 39.8787C391.316 40.4413 391 41.2044 391 42V56C391 56.7956 391.316 57.5587 391.879 58.1213C392.441 58.6839 393.204 59 394 59H408C408.796 59 409.559 58.6839 410.121 58.1213C410.684 57.5587 411 56.7956 411 56V42C411 41.2044 410.684 40.4413 410.121 39.8787C409.559 39.3161 408.796 39 408 39ZM409 56C409 56.2652 408.895 56.5196 408.707 56.7071C408.519 56.8946 408.265 57 408 57H394C393.735 57 393.48 56.8946 393.293 56.7071C393.105 56.5196 393 56.2652 393 56V42C393 41.7348 393.105 41.4804 393.293 41.2929C393.48 41.1054 393.735 41 394 41H408C408.265 41 408.519 41.1054 408.707 41.2929C408.895 41.4804 409 41.7348 409 42V56Z" fill="#A3A3A3"/>
<path d="M430.526 55.144C429.626 55.144 428.834 54.97 428.15 54.622C427.466 54.262 426.938 53.764 426.566 53.128C426.194 52.492 426.008 51.754 426.008 50.914V46.468C426.008 45.628 426.194 44.89 426.566 44.254C426.938 43.618 427.466 43.126 428.15 42.778C428.834 42.43 429.626 42.256 430.526 42.256C431.414 42.256 432.2 42.424 432.884 42.76C433.568 43.096 434.096 43.57 434.468 44.182C434.84 44.794 435.026 45.502 435.026 46.306C435.026 46.366 435.002 46.42 434.954 46.468C434.918 46.504 434.87 46.522 434.81 46.522L433.154 46.612C433.01 46.612 432.938 46.546 432.938 46.414C432.938 45.706 432.716 45.136 432.272 44.704C431.84 44.272 431.258 44.056 430.526 44.056C429.794 44.056 429.206 44.272 428.762 44.704C428.318 45.136 428.096 45.706 428.096 46.414V51.004C428.096 51.7 428.318 52.264 428.762 52.696C429.206 53.128 429.794 53.344 430.526 53.344C431.258 53.344 431.84 53.134 432.272 52.714C432.716 52.282 432.938 51.712 432.938 51.004C432.938 50.872 433.01 50.806 433.154 50.806L434.81 50.878C434.87 50.878 434.918 50.896 434.954 50.932C435.002 50.968 435.026 51.01 435.026 51.058C435.026 51.874 434.84 52.594 434.468 53.218C434.096 53.83 433.568 54.304 432.884 54.64C432.2 54.976 431.414 55.144 430.526 55.144ZM441.477 45.658C442.449 45.658 443.223 45.946 443.799 46.522C444.387 47.098 444.681 47.884 444.681 48.88V54.784C444.681 54.844 444.657 54.898 444.609 54.946C444.573 54.982 444.525 55 444.465 55H442.809C442.749 55 442.695 54.982 442.647 54.946C442.611 54.898 442.593 54.844 442.593 54.784V49.312C442.593 48.76 442.437 48.316 442.125 47.98C441.813 47.632 441.399 47.458 440.883 47.458C440.367 47.458 439.947 47.626 439.623 47.962C439.311 48.298 439.155 48.742 439.155 49.294V54.784C439.155 54.844 439.131 54.898 439.083 54.946C439.047 54.982 438.999 55 438.939 55H437.283C437.223 55 437.169 54.982 437.121 54.946C437.085 54.898 437.067 54.844 437.067 54.784V42.616C437.067 42.556 437.085 42.508 437.121 42.472C437.169 42.424 437.223 42.4 437.283 42.4H438.939C438.999 42.4 439.047 42.424 439.083 42.472C439.131 42.508 439.155 42.556 439.155 42.616V46.594C439.155 46.63 439.167 46.654 439.191 46.666C439.215 46.678 439.233 46.666 439.245 46.63C439.737 45.982 440.481 45.658 441.477 45.658ZM450.368 45.658C451.124 45.658 451.79 45.79 452.366 46.054C452.942 46.318 453.386 46.684 453.698 47.152C454.01 47.608 454.166 48.13 454.166 48.718V54.784C454.166 54.844 454.142 54.898 454.094 54.946C454.058 54.982 454.01 55 453.95 55H452.294C452.234 55 452.18 54.982 452.132 54.946C452.096 54.898 452.078 54.844 452.078 54.784V54.208C452.078 54.172 452.066 54.154 452.042 54.154C452.018 54.142 451.994 54.148 451.97 54.172C451.382 54.82 450.53 55.144 449.414 55.144C448.514 55.144 447.77 54.916 447.182 54.46C446.606 54.004 446.318 53.326 446.318 52.426C446.318 51.49 446.642 50.764 447.29 50.248C447.95 49.72 448.874 49.456 450.062 49.456H451.988C452.048 49.456 452.078 49.426 452.078 49.366V48.934C452.078 48.466 451.94 48.106 451.664 47.854C451.388 47.59 450.974 47.458 450.422 47.458C449.966 47.458 449.594 47.542 449.306 47.71C449.03 47.866 448.856 48.088 448.784 48.376C448.748 48.52 448.664 48.58 448.532 48.556L446.786 48.34C446.726 48.328 446.672 48.31 446.624 48.286C446.588 48.25 446.576 48.208 446.588 48.16C446.684 47.428 447.074 46.828 447.758 46.36C448.454 45.892 449.324 45.658 450.368 45.658ZM449.936 53.488C450.524 53.488 451.028 53.332 451.448 53.02C451.868 52.708 452.078 52.312 452.078 51.832V50.986C452.078 50.926 452.048 50.896 451.988 50.896H450.476C449.84 50.896 449.336 51.016 448.964 51.256C448.604 51.496 448.424 51.838 448.424 52.282C448.424 52.666 448.562 52.966 448.838 53.182C449.126 53.386 449.492 53.488 449.936 53.488ZM460.546 45.694C460.93 45.694 461.266 45.772 461.554 45.928C461.65 45.976 461.686 46.066 461.662 46.198L461.356 47.818C461.344 47.962 461.26 48.004 461.104 47.944C460.924 47.884 460.714 47.854 460.474 47.854C460.318 47.854 460.198 47.86 460.114 47.872C459.61 47.896 459.19 48.076 458.854 48.412C458.518 48.736 458.35 49.162 458.35 49.69V54.784C458.35 54.844 458.326 54.898 458.278 54.946C458.242 54.982 458.194 55 458.134 55H456.478C456.418 55 456.364 54.982 456.316 54.946C456.28 54.898 456.262 54.844 456.262 54.784V46.018C456.262 45.958 456.28 45.91 456.316 45.874C456.364 45.826 456.418 45.802 456.478 45.802H458.134C458.194 45.802 458.242 45.826 458.278 45.874C458.326 45.91 458.35 45.958 458.35 46.018V46.828C458.35 46.876 458.356 46.906 458.368 46.918C458.392 46.918 458.416 46.9 458.44 46.864C458.944 46.084 459.646 45.694 460.546 45.694ZM468.066 47.278C468.066 47.338 468.042 47.392 467.994 47.44C467.958 47.476 467.91 47.494 467.85 47.494H466.014C465.954 47.494 465.924 47.524 465.924 47.584V51.922C465.924 52.378 466.02 52.708 466.212 52.912C466.416 53.116 466.734 53.218 467.166 53.218H467.706C467.766 53.218 467.814 53.242 467.85 53.29C467.898 53.326 467.922 53.374 467.922 53.434V54.784C467.922 54.916 467.85 54.994 467.706 55.018L466.77 55.036C465.822 55.036 465.114 54.874 464.646 54.55C464.178 54.226 463.938 53.614 463.926 52.714V47.584C463.926 47.524 463.896 47.494 463.836 47.494H462.81C462.75 47.494 462.696 47.476 462.648 47.44C462.612 47.392 462.594 47.338 462.594 47.278V46.018C462.594 45.958 462.612 45.91 462.648 45.874C462.696 45.826 462.75 45.802 462.81 45.802H463.836C463.896 45.802 463.926 45.772 463.926 45.712V43.606C463.926 43.546 463.944 43.498 463.98 43.462C464.028 43.414 464.082 43.39 464.142 43.39H465.708C465.768 43.39 465.816 43.414 465.852 43.462C465.9 43.498 465.924 43.546 465.924 43.606V45.712C465.924 45.772 465.954 45.802 466.014 45.802H467.85C467.91 45.802 467.958 45.826 467.994 45.874C468.042 45.91 468.066 45.958 468.066 46.018V47.278Z" fill="#464255"/>
<rect x="661.5" y="30.5" width="37" height="37" rx="11.5" fill="white" stroke="white"/>
<circle cx="680.5" cy="40.5" r="2.5" fill="#A3A3A3"/>
<circle cx="680.5" cy="48.5" r="2.5" fill="#A3A3A3"/>
<circle cx="680.5" cy="56.5" r="2.5" fill="#A3A3A3"/>
<defs>
<filter id="filter0_d_142_10379" x="0" y="0" width="726" height="335" filterUnits="userSpaceOnUse" color-interpolation-filters="sRGB">
<feFlood flood-opacity="0" result="BackgroundImageFix"/>
<feColorMatrix in="SourceAlpha" type="matrix" values="0 0 0 0 0 0 0 0 0 0 0 0 0 0 0 0 0 0 127 0" result="hardAlpha"/>
<feOffset dy="4"/>
<feGaussianBlur stdDeviation="2"/>
<feColorMatrix type="matrix" values="0 0 0 0 0 0 0 0 0 0 0 0 0 0 0 0 0 0 0.04 0"/>
<feBlend mode="normal" in2="BackgroundImageFix" result="effect1_dropShadow_142_10379"/>
<feBlend mode="normal" in="SourceGraphic" in2="effect1_dropShadow_142_10379" result="shape"/>
</filter>
<filter id="filter1_d_142_10379" x="52.3077" y="99.3077" width="152.286" height="152.286" filterUnits="userSpaceOnUse" color-interpolation-filters="sRGB">
<feFlood flood-opacity="0" result="BackgroundImageFix"/>
<feColorMatrix in="SourceAlpha" type="matrix" values="0 0 0 0 0 0 0 0 0 0 0 0 0 0 0 0 0 0 127 0" result="hardAlpha"/>
<feOffset dy="17"/>
<feGaussianBlur stdDeviation="17.5"/>
<feColorMatrix type="matrix" values="0 0 0 0 0 0 0 0 0 0 0 0 0 0 0 0 0 0 0.12 0"/>
<feBlend mode="normal" in2="BackgroundImageFix" result="effect1_dropShadow_142_10379"/>
<feBlend mode="normal" in="SourceGraphic" in2="effect1_dropShadow_142_10379" result="shape"/>
</filter>
<filter id="filter2_d_142_10379" x="283.308" y="99.3077" width="152.286" height="152.286" filterUnits="userSpaceOnUse" color-interpolation-filters="sRGB">
<feFlood flood-opacity="0" result="BackgroundImageFix"/>
<feColorMatrix in="SourceAlpha" type="matrix" values="0 0 0 0 0 0 0 0 0 0 0 0 0 0 0 0 0 0 127 0" result="hardAlpha"/>
<feOffset dy="17"/>
<feGaussianBlur stdDeviation="17.5"/>
<feColorMatrix type="matrix" values="0 0 0 0 0 0 0 0 0 0 0 0 0 0 0 0 0 0 0.12 0"/>
<feBlend mode="normal" in2="BackgroundImageFix" result="effect1_dropShadow_142_10379"/>
<feBlend mode="normal" in="SourceGraphic" in2="effect1_dropShadow_142_10379" result="shape"/>
</filter>
<filter id="filter3_d_142_10379" x="514.308" y="99.3077" width="152.286" height="152.286" filterUnits="userSpaceOnUse" color-interpolation-filters="sRGB">
<feFlood flood-opacity="0" result="BackgroundImageFix"/>
<feColorMatrix in="SourceAlpha" type="matrix" values="0 0 0 0 0 0 0 0 0 0 0 0 0 0 0 0 0 0 127 0" result="hardAlpha"/>
<feOffset dy="17"/>
<feGaussianBlur stdDeviation="17.5"/>
<feColorMatrix type="matrix" values="0 0 0 0 0 0 0 0 0 0 0 0 0 0 0 0 0 0 0.12 0"/>
<feBlend mode="normal" in2="BackgroundImageFix" result="effect1_dropShadow_142_10379"/>
<feBlend mode="normal" in="SourceGraphic" in2="effect1_dropShadow_142_10379" result="shape"/>
</filter>
</defs>
</svg>
